<?xml version="1.0" encoding="UTF-8" standalone="no"?>
<!-- Created with Inkscape (http://www.inkscape.org/) -->

<svg
   width="33.866665mm"
   height="33.866665mm"
   viewBox="0 0 33.866665 33.866665"
   version="1.1"
   id="svg5"
   inkscape:version="1.1.1 (3bf5ae0d25, 2021-09-20)"
   sodipodi:docname="adder_icon.svg"
   inkscape:export-filename="E:\shapez\cli\shapezio-mods\src\wires-plus\res\sprites\building_icons\adder.png"
   inkscape:export-xdpi="96"
   inkscape:export-ydpi="96"
   xmlns:inkscape="http://www.inkscape.org/namespaces/inkscape"
   xmlns:sodipodi="http://sodipodi.sourceforge.net/DTD/sodipodi-0.dtd"
   xmlns="http://www.w3.org/2000/svg"
   xmlns:svg="http://www.w3.org/2000/svg">
  <sodipodi:namedview
     id="namedview7"
     pagecolor="#505050"
     bordercolor="#eeeeee"
     borderopacity="1"
     inkscape:pageshadow="0"
     inkscape:pageopacity="0"
     inkscape:pagecheckerboard="0"
     inkscape:document-units="mm"
     showgrid="false"
     inkscape:zoom="4.525404"
     inkscape:cx="33.919624"
     inkscape:cy="56.900997"
     inkscape:window-width="1920"
     inkscape:window-height="1057"
     inkscape:window-x="1072"
     inkscape:window-y="375"
     inkscape:window-maximized="1"
     inkscape:current-layer="layer1" />
  <defs
     id="defs2" />
  <g
     inkscape:label="Layer 1"
     inkscape:groupmode="layer"
     id="layer1"
     transform="translate(-29.369562,-121.31388)">
    <path
       id="rect858"
       style="fill:#8e919b;fill-opacity:1;stroke:#63656b;stroke-width:2.11667;stroke-linejoin:round;stroke-miterlimit:4;stroke-dasharray:none;stroke-opacity:1;paint-order:markers stroke fill"
       d="m 44.691107,127.66388 c -0.939319,0 -1.695504,0.75618 -1.695504,1.6955 v 5.58054 h -5.580538 c -0.939319,0 -1.695504,0.75619 -1.695504,1.6955 v 3.22358 c 0,0.93932 0.756185,1.6955 1.695504,1.6955 h 5.580538 v 5.58054 c 0,0.93932 0.756185,1.6955 1.695504,1.6955 h 3.223575 c 0.939319,0 1.695504,-0.75618 1.695504,-1.6955 v -5.58054 h 5.580538 c 0.939319,0 1.695504,-0.75618 1.695504,-1.6955 v -3.22358 c 0,-0.93931 -0.756185,-1.6955 -1.695504,-1.6955 h -5.580538 v -5.58054 c 0,-0.93932 -0.756185,-1.6955 -1.695504,-1.6955 z" />
  </g>
</svg>
