<?xml version="1.0" encoding="UTF-8" standalone="no"?>
<!-- Created with Inkscape (http://www.inkscape.org/) -->

<svg
   version="1.1"
   id="svg5187"
   width="128"
   height="128"
   viewBox="0 0 128 128"
   sodipodi:docname="display_controller.svg"
   inkscape:version="1.1.1 (3bf5ae0d25, 2021-09-20)"
   inkscape:export-filename="E:\shapez\shrimp\icon_display_controller.png"
   inkscape:export-xdpi="96"
   inkscape:export-ydpi="96"
   xmlns:inkscape="http://www.inkscape.org/namespaces/inkscape"
   xmlns:sodipodi="http://sodipodi.sourceforge.net/DTD/sodipodi-0.dtd"
   xmlns="http://www.w3.org/2000/svg"
   xmlns:svg="http://www.w3.org/2000/svg">
  <defs
     id="defs5191" />
  <sodipodi:namedview
     id="namedview5189"
     pagecolor="#505050"
     bordercolor="#eeeeee"
     borderopacity="1"
     inkscape:pageshadow="0"
     inkscape:pageopacity="0"
     inkscape:pagecheckerboard="0"
     showgrid="false"
     inkscape:zoom="7.9439027"
     inkscape:cx="92.272026"
     inkscape:cy="75.340802"
     inkscape:window-width="3840"
     inkscape:window-height="2131"
     inkscape:window-x="1341"
     inkscape:window-y="-9"
     inkscape:window-maximized="1"
     inkscape:current-layer="g5193" />
  <g
     inkscape:groupmode="layer"
     inkscape:label="Image"
     id="g5193">
    <path
       id="rect19210-9"
       style="fill:#8e919b;fill-opacity:1;stroke:#63656b;stroke-width:12;stroke-linecap:butt;stroke-linejoin:round;stroke-miterlimit:4;stroke-dasharray:none;stroke-opacity:1;paint-order:markers stroke fill"
       d="m 25.490236,18.984375 c -4.798757,0 -8.662109,3.863353 -8.662109,8.662109 v 61.652344 c 0,4.798757 3.863352,8.66211 8.662109,8.66211 h 77.019524 c 4.79876,0 8.66211,-3.863353 8.66211,-8.66211 V 27.646484 c 0,-4.798756 -3.86335,-8.662109 -8.66211,-8.662109 z m 5.556641,9.587891 h 65.955078 c 2.232157,0 4.029295,1.781435 4.029295,3.992187 V 77.5 c 0,2.210752 -1.797138,3.990234 -4.029295,3.990234 H 31.046877 C 28.81472,81.490234 27.01758,79.710752 27.01758,77.5 V 32.564453 c 0,-2.210752 1.79714,-3.992187 4.029297,-3.992187 z" />
    <g
       id="g10783"
       transform="matrix(1.1222069,-0.001722,-0.001722,1.1202185,-6.7487364,-5.4603489)"
       style="stroke-width:0.891893" />
    <rect
       style="fill:#91949e;fill-opacity:1;stroke:#63656b;stroke-width:6.00002;stroke-linecap:butt;stroke-linejoin:round;stroke-miterlimit:4;stroke-dasharray:none;stroke-opacity:1"
       id="rect6258"
       width="11.793829"
       height="64.038254"
       x="81.512001"
       y="18.029091"
       rx="5.8969145"
       ry="4.4565201"
       transform="matrix(0.86667704,0.49886963,-0.50156483,0.86512006,0,0)" />
    <path
       style="fill:#dd66ff;fill-opacity:1;stroke:#52575a;stroke-width:6;stroke-linecap:butt;stroke-linejoin:round;stroke-miterlimit:4;stroke-dasharray:none;stroke-opacity:1"
       d="m 82.063752,41.137635 c 0,0 -21.066508,3.439718 -25.749016,12.157447 -2.526116,4.703035 0.447735,11.401189 4.665122,13.881055 4.586379,2.696832 11.702542,1.604359 14.003526,-3.068434 2.168102,-4.402939 -2.792718,-10.684976 -0.755126,-14.693998 1.776985,-3.496272 7.835494,-8.27607 7.835494,-8.27607 z"
       id="path4807"
       sodipodi:nodetypes="cssssc" />
  </g>
</svg>
