<?xml version="1.0" encoding="UTF-8" standalone="no"?>
<!-- Created with Inkscape (http://www.inkscape.org/) -->

<svg
   width="33.866665mm"
   height="33.866665mm"
   viewBox="0 0 33.866665 33.866665"
   version="1.1"
   id="svg5"
   inkscape:version="1.1.1 (3bf5ae0d25, 2021-09-20)"
   sodipodi:docname="math_seed.svg"
   inkscape:export-filename="E:\shapez\sprites\math\seed.png"
   inkscape:export-xdpi="96"
   inkscape:export-ydpi="96"
   xmlns:inkscape="http://www.inkscape.org/namespaces/inkscape"
   xmlns:sodipodi="http://sodipodi.sourceforge.net/DTD/sodipodi-0.dtd"
   xmlns="http://www.w3.org/2000/svg"
   xmlns:svg="http://www.w3.org/2000/svg">
  <sodipodi:namedview
     id="namedview7"
     pagecolor="#505050"
     bordercolor="#eeeeee"
     borderopacity="1"
     inkscape:pageshadow="0"
     inkscape:pageopacity="0"
     inkscape:pagecheckerboard="0"
     inkscape:document-units="mm"
     showgrid="false"
     inkscape:zoom="4.525404"
     inkscape:cx="33.146212"
     inkscape:cy="54.69125"
     inkscape:window-width="1920"
     inkscape:window-height="1057"
     inkscape:window-x="1072"
     inkscape:window-y="437"
     inkscape:window-maximized="1"
     inkscape:current-layer="layer1" />
  <defs
     id="defs2" />
  <g
     inkscape:label="Layer 1"
     inkscape:groupmode="layer"
     id="layer1"
     transform="translate(-29.369562,-121.31388)">
    <g
       id="g839"
       transform="matrix(1.7590519,0,0,1.766124,-35.801853,-107.50718)"
       style="stroke-width:1.50111;stroke-miterlimit:4;stroke-dasharray:none;paint-order:markers stroke fill">
      <path
         style="color:#000000;display:inline;fill:#9599a4;fill-opacity:1;stroke:#64666e;stroke-width:1.50111;stroke-linecap:round;stroke-miterlimit:4;stroke-dasharray:none;stroke-opacity:1;paint-order:markers stroke fill"
         d="m 46.21767,136.18279 a 0.54285786,0.65300915 0 0 0 -0.247118,0.87411 c 0.57003,1.39282 0.396459,2.37065 0.141592,3.57355 -0.254868,1.2029 -0.621133,2.61397 -0.172315,4.34161 a 0.54285786,0.65300915 0 0 0 0.679908,0.42903 0.54285786,0.65300915 0 0 0 0.356651,-0.81787 c -0.3509,-1.35073 -0.07794,-2.38091 0.187008,-3.6314 0.26495,-1.25049 0.491788,-2.73812 -0.217731,-4.47177 a 0.54285786,0.65300915 0 0 0 -0.727995,-0.29726 z"
         id="path12232" />
      <path
         id="path11791"
         style="display:inline;fill:#9599a4;fill-opacity:1;stroke:#64666e;stroke-width:1.50111;stroke-linecap:round;stroke-linejoin:round;stroke-miterlimit:4;stroke-dasharray:none;stroke-opacity:1;paint-order:markers stroke fill"
         d="m 52.015968,135.1906 a 3.4594985,3.4594985 0 0 0 -3.410812,2.891 3.4594985,3.4594985 0 0 0 1.429016,0.31102 3.4594985,3.4594985 0 0 0 3.41129,-2.89291 3.4594985,3.4594985 0 0 0 -1.429494,-0.30911 z" />
      <path
         id="path11791-1"
         style="display:inline;fill:#9599a4;fill-opacity:1;stroke:#64666e;stroke-width:1.50111;stroke-linecap:round;stroke-linejoin:round;stroke-miterlimit:4;stroke-dasharray:none;stroke-opacity:1;paint-order:markers stroke fill"
         d="m 41.335166,132.87237 a 3.4594985,3.4594985 0 0 1 3.410813,2.891 3.4594985,3.4594985 0 0 1 -1.429016,0.31103 3.4594985,3.4594985 0 0 1 -3.41129,-2.89291 3.4594985,3.4594985 0 0 1 1.429493,-0.30912 z" />
    </g>
  </g>
</svg>
