<?xml version="1.0" encoding="UTF-8" standalone="no"?>
<!-- Created with Inkscape (http://www.inkscape.org/) -->

<svg
   width="72"
   height="72"
   viewBox="0 0 19.05 19.05"
   version="1.1"
   id="svg5"
   inkscape:version="1.1.1 (3bf5ae0d25, 2021-09-20)"
   sodipodi:docname="steam.svg"
   inkscape:export-filename="E:\shapez\thomas\fluids\water.png"
   inkscape:export-xdpi="96"
   inkscape:export-ydpi="96"
   xmlns:inkscape="http://www.inkscape.org/namespaces/inkscape"
   xmlns:sodipodi="http://sodipodi.sourceforge.net/DTD/sodipodi-0.dtd"
   xmlns="http://www.w3.org/2000/svg"
   xmlns:svg="http://www.w3.org/2000/svg">
  <sodipodi:namedview
     id="namedview7"
     pagecolor="#505050"
     bordercolor="#eeeeee"
     borderopacity="1"
     inkscape:pageshadow="0"
     inkscape:pageopacity="0"
     inkscape:pagecheckerboard="0"
     inkscape:document-units="px"
     showgrid="false"
     units="px"
     inkscape:zoom="5.1241864"
     inkscape:cx="31.907504"
     inkscape:cy="50.837339"
     inkscape:window-width="3840"
     inkscape:window-height="2131"
     inkscape:window-x="1341"
     inkscape:window-y="-9"
     inkscape:window-maximized="1"
     inkscape:current-layer="layer1" />
  <defs
     id="defs2" />
  <g
     inkscape:label="Layer 1"
     inkscape:groupmode="layer"
     id="layer1">
    <circle
       style="fill:#bdc3c9;fill-opacity:1;stroke:#b1b5bb;stroke-width:0.926042;stroke-linejoin:round;stroke-miterlimit:4;stroke-dasharray:none;stroke-opacity:1"
       id="path84088"
       cx="4.6791949"
       cy="10.545281"
       r="3.5799031" />
    <circle
       style="fill:#bdc3c9;fill-opacity:1;stroke:#b1b5bb;stroke-width:0.926042;stroke-linejoin:round;stroke-miterlimit:4;stroke-dasharray:none;stroke-opacity:1"
       id="path84088-7"
       cx="9.3881035"
       cy="11.499963"
       r="3.5799031" />
    <circle
       style="fill:#bdc3c9;fill-opacity:1;stroke:#b1b5bb;stroke-width:0.926042;stroke-linejoin:round;stroke-miterlimit:4;stroke-dasharray:none;stroke-opacity:1"
       id="path84088-4"
       cx="14.370805"
       cy="10.26074"
       r="3.5799031" />
    <circle
       style="fill:#cdd3da;fill-opacity:1;stroke:#b1b5bb;stroke-width:0.926042;stroke-linejoin:round;stroke-miterlimit:4;stroke-dasharray:none;stroke-opacity:1"
       id="path84088-3"
       cx="6.9096608"
       cy="7.5499444"
       r="3.5799031" />
    <circle
       style="fill:#cdd3da;fill-opacity:1;stroke:#b1b5bb;stroke-width:0.926042;stroke-linejoin:round;stroke-miterlimit:4;stroke-dasharray:none;stroke-opacity:1"
       id="path84088-0"
       cx="12.202168"
       cy="7.5499444"
       r="3.5799031" />
    <path
       id="path84088-1"
       style="fill:none;fill-opacity:1;stroke:#64666d;stroke-width:0.926042;stroke-linejoin:round;stroke-miterlimit:4;stroke-dasharray:none;stroke-opacity:1"
       d="m 6.9092727,3.9700414 a 3.5799032,3.5799032 0 0 0 -3.56309,3.2535481 3.5799032,3.5799032 0 0 0 -2.2468911,3.3217615 3.5799032,3.5799032 0 0 0 3.5796264,3.579626 3.5799032,3.5799032 0 0 0 1.8283121,-0.503328 3.5799032,3.5799032 0 0 0 2.8809611,1.458309 3.5799032,3.5799032 0 0 0 3.0943848,-1.78077 3.5799032,3.5799032 0 0 0 1.888257,0.541569 3.5799032,3.5799032 0 0 0 3.579625,-3.580143 A 3.5799032,3.5799032 0 0 0 15.730955,6.9491875 3.5799032,3.5799032 0 0 0 12.201973,3.9700414 3.5799032,3.5799032 0 0 0 9.5566562,5.1399958 3.5799032,3.5799032 0 0 0 6.9092727,3.9700414 Z" />
  </g>
</svg>
