<?xml version="1.0" encoding="UTF-8" standalone="no"?>
<!-- Created with Inkscape (http://www.inkscape.org/) -->

<svg
   width="33.866665mm"
   height="33.866665mm"
   viewBox="0 0 33.866665 33.866665"
   version="1.1"
   id="svg5"
   inkscape:version="1.1.1 (3bf5ae0d25, 2021-09-20)"
   sodipodi:docname="switcher.svg"
   inkscape:export-filename="E:\shapez\sprites\switcher.png"
   inkscape:export-xdpi="96"
   inkscape:export-ydpi="96"
   xmlns:inkscape="http://www.inkscape.org/namespaces/inkscape"
   xmlns:sodipodi="http://sodipodi.sourceforge.net/DTD/sodipodi-0.dtd"
   xmlns="http://www.w3.org/2000/svg"
   xmlns:svg="http://www.w3.org/2000/svg">
  <sodipodi:namedview
     id="namedview7"
     pagecolor="#505050"
     bordercolor="#eeeeee"
     borderopacity="1"
     inkscape:pageshadow="0"
     inkscape:pageopacity="0"
     inkscape:pagecheckerboard="0"
     inkscape:document-units="mm"
     showgrid="false"
     inkscape:zoom="2.262702"
     inkscape:cx="10.164838"
     inkscape:cy="159.76474"
     inkscape:window-width="1920"
     inkscape:window-height="1057"
     inkscape:window-x="1072"
     inkscape:window-y="437"
     inkscape:window-maximized="1"
     inkscape:current-layer="layer1" />
  <defs
     id="defs2" />
  <g
     inkscape:label="Layer 1"
     inkscape:groupmode="layer"
     id="layer1"
     transform="translate(-29.369562,-121.31388)">
    <path
       id="path14095-7-0-6"
       clip-path="none"
       style="color:#000000;fill:#76a9cf;fill-opacity:1;stroke:#63656b;stroke-width:2.64583;stroke-linecap:round;stroke-linejoin:round;stroke-miterlimit:4;stroke-dasharray:none;stroke-opacity:1;paint-order:markers stroke fill"
       d="m 54.358269,135.64355 a 2.1439848,2.1439848 0 0 0 0.06524,0.43333 c 0.987383,3.68498 -0.613201,7.548 -3.917068,9.45549 -2.881307,1.66353 -6.404234,1.4604 -9.047575,-0.40792 l 1.256017,-1.25601 -7.807354,-2.09176 2.091758,7.80735 1.398855,-1.39885 c 4.036728,3.21148 9.701934,3.68515 14.249502,1.05961 1.241664,-0.71688 2.327781,-1.62078 3.231031,-2.66105 2.469114,-2.84364 3.592191,-6.7004 2.930247,-10.50618 a 1.7581849,1.7581849 0 0 1 -1.568475,0.33856 z" />
    <path
       id="path14095-5-4"
       clip-path="none"
       style="color:#000000;fill:#88d468;fill-opacity:1;stroke:#63656b;stroke-width:2.64583;stroke-linecap:round;stroke-linejoin:round;stroke-miterlimit:4;stroke-dasharray:none;stroke-opacity:1;paint-order:markers stroke fill"
       d="m 46.335284,125.55353 c -2.187452,-0.008 -4.390786,0.54822 -6.380343,1.6969 -1.008849,0.58246 -1.913426,1.28973 -2.701568,2.09244 -0.181557,0.18534 -0.357803,0.3761 -0.527403,0.57067 -2.473406,2.84858 -3.594974,6.71271 -2.92544,10.52471 a 1.7581849,1.7581849 0 0 1 1.562295,-0.35984 l 2.886983,0.77325 a 2.1439848,2.1439848 0 0 0 -0.06799,-0.43126 c -0.987394,-3.68499 0.612514,-7.548 3.916382,-9.45549 2.881317,-1.66353 6.402541,-1.46207 9.045514,0.40585 l -1.254642,1.25465 7.806666,2.09244 -2.091758,-7.80735 -1.399541,1.39954 c -2.270664,-1.80647 -5.05672,-2.74678 -7.869159,-2.75651 z" />
  </g>
</svg>
