<?xml version="1.0" encoding="UTF-8" standalone="no"?>
<!-- Created with Inkscape (http://www.inkscape.org/) -->

<svg
   xmlns:dc="http://purl.org/dc/elements/1.1/"
   xmlns:cc="http://creativecommons.org/ns#"
   xmlns:rdf="http://www.w3.org/1999/02/22-rdf-syntax-ns#"
   xmlns:svg="http://www.w3.org/2000/svg"
   xmlns="http://www.w3.org/2000/svg"
   xmlns:sodipodi="http://sodipodi.sourceforge.net/DTD/sodipodi-0.dtd"
   xmlns:inkscape="http://www.inkscape.org/namespaces/inkscape"
   width="50.799999mm"
   height="50.799999mm"
   viewBox="0 0 50.799999 50.799999"
   version="1.1"
   id="svg8"
   inkscape:export-filename="E:\shapez\shrimp\building_chunkunlock.png"
   inkscape:export-xdpi="96"
   inkscape:export-ydpi="96"
   inkscape:version="0.92.3 (2405546, 2018-03-11)"
   sodipodi:docname="building_chunkunlock.svg">
  <defs
     id="defs2" />
  <sodipodi:namedview
     id="base"
     pagecolor="#ffffff"
     bordercolor="#666666"
     borderopacity="1.0"
     inkscape:pageopacity="0.0"
     inkscape:pageshadow="2"
     inkscape:zoom="2.8"
     inkscape:cx="155.4437"
     inkscape:cy="82.950365"
     inkscape:document-units="mm"
     inkscape:current-layer="layer1"
     showgrid="false"
     inkscape:window-width="1920"
     inkscape:window-height="1057"
     inkscape:window-x="1912"
     inkscape:window-y="-8"
     inkscape:window-maximized="1" />
  <metadata
     id="metadata5">
    <rdf:RDF>
      <cc:Work
         rdf:about="">
        <dc:format>image/svg+xml</dc:format>
        <dc:type
           rdf:resource="http://purl.org/dc/dcmitype/StillImage" />
        <dc:title></dc:title>
      </cc:Work>
    </rdf:RDF>
  </metadata>
  <g
     inkscape:label="Layer 1"
     inkscape:groupmode="layer"
     id="layer1"
     transform="translate(0,-246.2)">
    <rect
       style="opacity:1;fill:#000000;fill-opacity:0.0745098;fill-rule:nonzero;stroke:none;stroke-width:2.5999999;stroke-linecap:butt;stroke-linejoin:round;stroke-miterlimit:4;stroke-dasharray:none;stroke-dashoffset:0;stroke-opacity:1;paint-order:markers stroke fill"
       id="rect817-1"
       width="42.06004"
       height="42.06004"
       x="6.4866486"
       y="253.74496"
       rx="2.8040023"
       ry="2.8040023" />
    <path
       style="opacity:1;fill:#000000;fill-opacity:0.0745098;fill-rule:nonzero;stroke:none;stroke-width:2.5999999;stroke-linecap:butt;stroke-linejoin:round;stroke-miterlimit:4;stroke-dasharray:none;stroke-dashoffset:0;stroke-opacity:1;paint-order:markers stroke fill"
       d="m 3.4166667,257.2748 v 35.00044 l 7.0155923,-7.01559 v -20.96926 z"
       id="path854-6"
       inkscape:connector-curvature="0" />
    <path
       style="opacity:1;fill:#8e919b;fill-opacity:1;fill-rule:nonzero;stroke:#64666e;stroke-width:2.5999999;stroke-linecap:butt;stroke-linejoin:round;stroke-miterlimit:4;stroke-dasharray:none;stroke-dashoffset:0;stroke-opacity:1;paint-order:markers stroke fill"
       d="m 1.3,254.09978 v 35.00044 l 7.0155924,-7.01559 v -20.96926 z"
       id="path854"
       inkscape:connector-curvature="0" />
    <rect
       style="opacity:1;fill:#dee1ea;fill-opacity:1;fill-rule:nonzero;stroke:#64666e;stroke-width:2.6;stroke-linecap:butt;stroke-linejoin:round;stroke-miterlimit:4;stroke-dasharray:none;stroke-dashoffset:0;stroke-opacity:1;paint-order:markers stroke fill"
       id="rect817"
       width="42.060036"
       height="42.060036"
       x="4.3699822"
       y="250.56999"
       rx="2.8040023"
       ry="2.8040023" />
    <path
       style="opacity:1;fill:#ced1d9;fill-opacity:1;fill-rule:nonzero;stroke:none;stroke-width:2.5999999;stroke-linecap:butt;stroke-linejoin:round;stroke-miterlimit:4;stroke-dasharray:none;stroke-dashoffset:0;stroke-opacity:1;paint-order:markers stroke fill"
       d="m 27.516915,262.63339 a 7,7 0 0 0 -7.000089,7.00009 v 2.82463 h -1.700155 v 13.40022 h 17.399971 v -13.40022 h -1.699638 v -2.82463 a 7,7 0 0 0 -7.000089,-7.00009 z m 0,2.00039 a 5.0000001,5.0000001 0 0 1 4.999696,4.9997 v 2.82463 h -9.999907 v -2.82463 a 5.0000001,5.0000001 0 0 1 5.000211,-4.9997 z m 5.29e-4,10.02471 a 2.9997953,2.9997953 0 0 1 2.999287,2.99982 2.9997953,2.9997953 0 0 1 -1.000455,2.23087 v 3.76876 h -0.499194 -3.000334 -0.500227 v -3.77237 a 2.9997953,2.9997953 0 0 1 -0.999423,-2.22726 2.9997953,2.9997953 0 0 1 3.000334,-2.99982 z"
       id="rect859-3"
       inkscape:connector-curvature="0" />
    <path
       style="opacity:1;fill:#8e919b;fill-opacity:1;fill-rule:nonzero;stroke:#63656b;stroke-width:2.5999999;stroke-linecap:butt;stroke-linejoin:round;stroke-miterlimit:4;stroke-dasharray:none;stroke-dashoffset:0;stroke-opacity:1;paint-order:markers stroke fill"
       d="m 25.400259,259.98754 a 6.9999999,6.9999999 0 0 0 -7.000089,7.00009 v 2.82463 h -1.700155 v 13.40022 h 17.399971 v -13.40022 h -1.699638 v -2.82463 a 6.9999999,6.9999999 0 0 0 -7.000089,-7.00009 z m 0,2.00039 a 5,5 0 0 1 4.999696,4.9997 v 2.82463 h -9.999907 v -2.82463 a 5,5 0 0 1 5.000211,-4.9997 z m 5.17e-4,10.02471 a 2.9997953,2.9997953 0 0 1 2.999299,2.99982 2.9997953,2.9997953 0 0 1 -1.000455,2.23087 v 3.76876 h -0.499194 -3.000334 -0.500227 v -3.77237 a 2.9997953,2.9997953 0 0 1 -0.999423,-2.22726 2.9997953,2.9997953 0 0 1 3.000334,-2.99982 z"
       id="rect859"
       inkscape:connector-curvature="0" />
  </g>
</svg>
