<?xml version="1.0" encoding="UTF-8" standalone="no"?>
<!-- Created with Inkscape (http://www.inkscape.org/) -->

<svg
   xmlns:dc="http://purl.org/dc/elements/1.1/"
   xmlns:cc="http://creativecommons.org/ns#"
   xmlns:rdf="http://www.w3.org/1999/02/22-rdf-syntax-ns#"
   xmlns:svg="http://www.w3.org/2000/svg"
   xmlns="http://www.w3.org/2000/svg"
   xmlns:sodipodi="http://sodipodi.sourceforge.net/DTD/sodipodi-0.dtd"
   xmlns:inkscape="http://www.inkscape.org/namespaces/inkscape"
   width="50.799999mm"
   height="50.799999mm"
   viewBox="0 0 50.799999 50.799999"
   version="1.1"
   id="svg8"
   inkscape:version="0.92.3 (2405546, 2018-03-11)"
   sodipodi:docname="building_flag.svg"
   inkscape:export-filename="E:\shapez\shrimp\minez\minez_flag_x.png"
   inkscape:export-xdpi="96"
   inkscape:export-ydpi="96">
  <sodipodi:namedview
     id="base"
     pagecolor="#ffffff"
     bordercolor="#666666"
     borderopacity="1.0"
     inkscape:pageopacity="0.0"
     inkscape:pageshadow="2"
     inkscape:zoom="3.340343"
     inkscape:cx="35.065422"
     inkscape:cy="92.843205"
     inkscape:document-units="mm"
     inkscape:current-layer="layer1"
     showgrid="false"
     inkscape:measure-start="213.601,129.478"
     inkscape:measure-end="141.768,135.703"
     inkscape:window-width="1920"
     inkscape:window-height="1057"
     inkscape:window-x="1912"
     inkscape:window-y="-8"
     inkscape:window-maximized="1" />
  <defs
     id="defs2" />
  <metadata
     id="metadata5">
    <rdf:RDF>
      <cc:Work
         rdf:about="">
        <dc:format>image/svg+xml</dc:format>
        <dc:type
           rdf:resource="http://purl.org/dc/dcmitype/StillImage" />
        <dc:title />
      </cc:Work>
    </rdf:RDF>
  </metadata>
  <g
     transform="translate(-63.046429,-110.58214)"
     id="layer1"
     inkscape:groupmode="layer"
     inkscape:label="Layer 1">
    <path
       style="color:#000000;font-style:normal;font-variant:normal;font-weight:normal;font-stretch:normal;font-size:medium;line-height:normal;font-family:sans-serif;font-variant-ligatures:normal;font-variant-position:normal;font-variant-caps:normal;font-variant-numeric:normal;font-variant-alternates:normal;font-feature-settings:normal;text-indent:0;text-align:start;text-decoration:none;text-decoration-line:none;text-decoration-style:solid;text-decoration-color:#000000;letter-spacing:normal;word-spacing:normal;text-transform:none;writing-mode:lr-tb;direction:ltr;text-orientation:mixed;dominant-baseline:auto;baseline-shift:baseline;text-anchor:start;white-space:normal;shape-padding:0;clip-rule:nonzero;display:inline;overflow:visible;visibility:visible;opacity:1;isolation:auto;mix-blend-mode:normal;color-interpolation:sRGB;color-interpolation-filters:linearRGB;solid-color:#000000;solid-opacity:1;vector-effect:none;fill:#000000;fill-opacity:0.06666667;fill-rule:nonzero;stroke:none;stroke-width:3.20000005;stroke-linecap:butt;stroke-linejoin:round;stroke-miterlimit:4;stroke-dasharray:none;stroke-dashoffset:0;stroke-opacity:1;paint-order:stroke fill markers;color-rendering:auto;image-rendering:auto;shape-rendering:auto;text-rendering:auto;enable-background:accumulate"
       d="m 101.98192,125.54836 -23.86915,23.86914 1.130859,1.13086 23.869141,-23.86719 z"
       id="path832-0-0"
       inkscape:connector-curvature="0" />
    <path
       inkscape:connector-curvature="0"
       style="opacity:1;fill:#000000;fill-opacity:0.06666667;fill-rule:nonzero;stroke:none;stroke-width:3.19999981;stroke-linecap:butt;stroke-linejoin:round;stroke-miterlimit:4;stroke-dasharray:none;stroke-dashoffset:0;stroke-opacity:1;paint-order:markers stroke fill"
       d="m 81.477349,125.32447 v 24.4998 h 1.193724 v -13.62294 c 0.354092,-0.14861 0.701204,-0.27734 1.036113,-0.37001 0.37388,-0.10344 0.736643,-0.17432 1.090372,-0.21756 0.353751,-0.0432 0.698026,-0.0591 1.035598,-0.0522 0.337558,0.007 0.668377,0.0361 0.993738,0.0832 0.650708,0.0941 1.280633,0.25838 1.906341,0.45269 0.625711,0.19431 1.246984,0.41881 1.879473,0.63303 0.632479,0.21422 1.276654,0.41879 1.947685,0.57258 0.335518,0.0769 0.677767,0.14086 1.028877,0.18758 0.351111,0.0467 0.71092,0.0762 1.08159,0.0827 0.37068,0.007 0.75249,-0.0103 1.1467,-0.0537 0.39421,-0.0438 0.80094,-0.11508 1.22266,-0.21911 0.42172,-0.10404 0.85836,-0.2406 1.31155,-0.41496 0.41632,-0.16018 0.85099,-0.36093 1.29708,-0.5886 v -9.54566 c -0.44609,0.22766 -0.88076,0.42893 -1.29708,0.58911 -0.45319,0.17437 -0.88983,0.31092 -1.31155,0.41496 -0.42172,0.10403 -0.82845,0.17537 -1.22266,0.2191 -0.39421,0.0438 -0.77602,0.0598 -1.1467,0.0532 -0.37067,-0.007 -0.730479,-0.0354 -1.08159,-0.0822 -0.35111,-0.0468 -0.693359,-0.1112 -1.028877,-0.18811 -0.671031,-0.15377 -1.315206,-0.35783 -1.947685,-0.57205 -0.632489,-0.21422 -1.253762,-0.43821 -1.879473,-0.63252 -0.625708,-0.19432 -1.255633,-0.35861 -1.906341,-0.45269 -0.325361,-0.0471 -0.65618,-0.0768 -0.993738,-0.0837 -0.337572,-0.007 -0.681847,0.009 -1.035598,0.0522 -0.353729,0.0433 -0.716492,0.1136 -1.090372,0.21704 -0.334909,0.0927 -0.682021,0.22192 -1.036113,0.37052 v -1.3317 z"
       id="path4562-9" />
    <g
       id="g4593"
       transform="translate(-36.621535,-73.446613)"
       style="fill:#dee1ea;fill-opacity:1">
      <path
         id="path4562"
         transform="matrix(0.26458333,0,0,0.26458333,63.046429,110.58214)"
         d="m 200.07227,325.3125 v 92.59766 h 4.51171 v -51.48828 c 1.3383,-0.56164 2.65022,-1.04819 3.91602,-1.39844 1.41309,-0.39096 2.78416,-0.65884 4.12109,-0.82227 1.33701,-0.16327 2.63821,-0.22334 3.91407,-0.19726 1.27581,0.0264 2.52615,0.13643 3.75586,0.31445 2.45937,0.35565 4.84019,0.97654 7.20507,1.71094 2.36489,0.73443 4.71301,1.58292 7.10352,2.39258 2.39047,0.80965 4.82515,1.58284 7.36133,2.16406 1.2681,0.29064 2.56164,0.5324 3.88867,0.70898 1.32703,0.17651 2.68693,0.28793 4.08789,0.3125 1.401,0.0265 2.84406,-0.0391 4.33398,-0.20312 1.48993,-0.16555 3.0272,-0.43494 4.6211,-0.82813 1.5939,-0.39322 3.24419,-0.90936 4.95703,-1.56836 1.57349,-0.6054 3.21633,-1.36416 4.90234,-2.22461 v -36.07812 c -1.68601,0.86048 -3.32885,1.62116 -4.90234,2.22656 -1.71284,0.65904 -3.36313,1.17514 -4.95703,1.56836 -1.5939,0.39318 -3.13117,0.66281 -4.6211,0.82812 -1.48992,0.16555 -2.93298,0.22612 -4.33398,0.20118 -1.40096,-0.0265 -2.76086,-0.13367 -4.08789,-0.31055 -1.32703,-0.17688 -2.62057,-0.42029 -3.88867,-0.71094 -2.53618,-0.58121 -4.97086,-1.35246 -7.36133,-2.16211 -2.39051,-0.80965 -4.73863,-1.65622 -7.10352,-2.39062 -2.36488,-0.73444 -4.7457,-1.35536 -7.20507,-1.71094 -1.22971,-0.17802 -2.48005,-0.29033 -3.75586,-0.31641 -1.27586,-0.0265 -2.57706,0.0336 -3.91407,0.19727 -1.33693,0.16365 -2.708,0.42936 -4.12109,0.82031 -1.2658,0.35036 -2.57772,0.83876 -3.91602,1.40039 v -5.0332 z"
         style="opacity:1;fill:#dee1ea;fill-opacity:1;fill-rule:nonzero;stroke:#63656b;stroke-width:12.09448719;stroke-linecap:butt;stroke-linejoin:round;stroke-miterlimit:4;stroke-dasharray:none;stroke-dashoffset:0;stroke-opacity:1;paint-order:markers stroke fill"
         inkscape:connector-curvature="0" />
      <rect
         y="196.6544"
         x="115.98222"
         height="24.499796"
         width="1.1937233"
         id="rect4589"
         style="opacity:1;fill:#dee1ea;fill-opacity:1;fill-rule:nonzero;stroke:#63656b;stroke-width:3.20000005;stroke-linecap:butt;stroke-linejoin:round;stroke-miterlimit:4;stroke-dasharray:none;stroke-dashoffset:0;stroke-opacity:1;paint-order:markers stroke fill" />
    </g>
    <path
       style="color:#000000;font-style:normal;font-variant:normal;font-weight:normal;font-stretch:normal;font-size:medium;line-height:normal;font-family:sans-serif;font-variant-ligatures:normal;font-variant-position:normal;font-variant-caps:normal;font-variant-numeric:normal;font-variant-alternates:normal;font-feature-settings:normal;text-indent:0;text-align:start;text-decoration:none;text-decoration-line:none;text-decoration-style:solid;text-decoration-color:#000000;letter-spacing:normal;word-spacing:normal;text-transform:none;writing-mode:lr-tb;direction:ltr;text-orientation:mixed;dominant-baseline:auto;baseline-shift:baseline;text-anchor:start;white-space:normal;shape-padding:0;clip-rule:nonzero;display:inline;overflow:visible;visibility:visible;opacity:1;isolation:auto;mix-blend-mode:normal;color-interpolation:sRGB;color-interpolation-filters:linearRGB;solid-color:#000000;solid-opacity:1;vector-effect:none;fill:#ff666a;fill-opacity:1;fill-rule:nonzero;stroke:#7d3d4c;stroke-width:3.2;stroke-linecap:butt;stroke-linejoin:round;stroke-miterlimit:4;stroke-dasharray:none;stroke-dashoffset:0;stroke-opacity:1;color-rendering:auto;image-rendering:auto;shape-rendering:auto;text-rendering:auto;enable-background:accumulate;paint-order:stroke fill markers"
       d="m 99.865234,123.43164 -23.86914,23.86914 1.130859,1.13086 23.869137,-23.86719 z"
       id="path832"
       inkscape:connector-curvature="0" />
    <path
       style="color:#000000;font-style:normal;font-variant:normal;font-weight:normal;font-stretch:normal;font-size:medium;line-height:normal;font-family:sans-serif;font-variant-ligatures:normal;font-variant-position:normal;font-variant-caps:normal;font-variant-numeric:normal;font-variant-alternates:normal;font-feature-settings:normal;text-indent:0;text-align:start;text-decoration:none;text-decoration-line:none;text-decoration-style:solid;text-decoration-color:#000000;letter-spacing:normal;word-spacing:normal;text-transform:none;writing-mode:lr-tb;direction:ltr;text-orientation:mixed;dominant-baseline:auto;baseline-shift:baseline;text-anchor:start;white-space:normal;shape-padding:0;clip-rule:nonzero;display:inline;overflow:visible;visibility:visible;opacity:1;isolation:auto;mix-blend-mode:normal;color-interpolation:sRGB;color-interpolation-filters:linearRGB;solid-color:#000000;solid-opacity:1;vector-effect:none;fill:#ff666a;fill-opacity:1;fill-rule:nonzero;stroke:#7d3d4c;stroke-width:3.20000005;stroke-linecap:butt;stroke-linejoin:round;stroke-miterlimit:4;stroke-dasharray:none;stroke-dashoffset:0;stroke-opacity:1;paint-order:stroke fill markers;color-rendering:auto;image-rendering:auto;shape-rendering:auto;text-rendering:auto;enable-background:accumulate"
       d="m 99.86524,123.43164 -23.869142,23.86914 1.130859,1.13086 23.869133,-23.86719 z"
       id="path832-0"
       inkscape:connector-curvature="0" />
  </g>
</svg>
