<?xml version="1.0" encoding="UTF-8" standalone="no"?>
<!-- Created with Inkscape (http://www.inkscape.org/) -->

<svg
   width="384"
   height="192"
   viewBox="0 0 101.6 50.8"
   version="1.1"
   id="svg5"
   inkscape:export-filename="E:\shapez\sprites\math-power.png"
   inkscape:export-xdpi="96"
   inkscape:export-ydpi="96"
   inkscape:version="1.1.1 (3bf5ae0d25, 2021-09-20)"
   sodipodi:docname="math_2op_bitwise.svg"
   xmlns:inkscape="http://www.inkscape.org/namespaces/inkscape"
   xmlns:sodipodi="http://sodipodi.sourceforge.net/DTD/sodipodi-0.dtd"
   xmlns="http://www.w3.org/2000/svg"
   xmlns:svg="http://www.w3.org/2000/svg">
  <sodipodi:namedview
     id="namedview7"
     pagecolor="#505050"
     bordercolor="#eeeeee"
     borderopacity="1"
     inkscape:pageshadow="0"
     inkscape:pageopacity="0"
     inkscape:pagecheckerboard="0"
     inkscape:document-units="px"
     showgrid="false"
     units="px"
     inkscape:zoom="2.0000001"
     inkscape:cx="101"
     inkscape:cy="204.24999"
     inkscape:window-width="1920"
     inkscape:window-height="1057"
     inkscape:window-x="1072"
     inkscape:window-y="437"
     inkscape:window-maximized="1"
     inkscape:current-layer="g17120"
     height="384px"
     showguides="false" />
  <defs
     id="defs2">
    <inkscape:path-effect
       effect="fillet_chamfer"
       id="path-effect92355"
       is_visible="true"
       lpeversion="1"
       satellites_param="IF,0,0,1,0,5,0,1 @ F,0,0,1,0,1,0,1 @ F,0,0,1,0,1,0,1 @ IF,0,1,1,0,5,0,1 @ F,0,0,1,0,1,0,1 @ IF,0,0,1,0,5,0,1"
       unit="px"
       method="auto"
       mode="F"
       radius="5"
       chamfer_steps="1"
       flexible="false"
       use_knot_distance="true"
       apply_no_radius="true"
       apply_with_radius="true"
       only_selected="true"
       hide_knots="false" />
    <inkscape:path-effect
       effect="fillet_chamfer"
       id="path-effect92064"
       is_visible="true"
       lpeversion="1"
       satellites_param="F,0,1,1,0,2.056932,0,1 @ F,0,1,1,0,0,0,1 @ F,0,0,1,0,0,0,1 @ F,0,0,1,0,0,0,1 @ F,0,0,1,0,0,0,1 @ F,0,0,1,0,0,0,1"
       unit="px"
       method="auto"
       mode="F"
       radius="4"
       chamfer_steps="1"
       flexible="false"
       use_knot_distance="true"
       apply_no_radius="true"
       apply_with_radius="true"
       only_selected="true"
       hide_knots="false" />
    <inkscape:path-effect
       effect="fillet_chamfer"
       id="path-effect92060"
       is_visible="true"
       lpeversion="1"
       satellites_param="IF,0,1,1,0,5,0,1 @ F,0,0,1,0,1,0,1 @ F,0,0,1,0,1,0,1 @ IF,0,1,1,0,5,0,1 @ F,0,0,1,0,1,0,1 @ IF,0,1,1,0,5,0,1"
       unit="px"
       method="auto"
       mode="F"
       radius="5"
       chamfer_steps="1"
       flexible="false"
       use_knot_distance="true"
       apply_no_radius="true"
       apply_with_radius="true"
       only_selected="true"
       hide_knots="false" />
    <inkscape:path-effect
       effect="fillet_chamfer"
       id="path-effect70825"
       is_visible="true"
       lpeversion="1"
       satellites_param="F,0,0,1,0,2.5,0,1 @ F,0,0,1,0,2.5,0,1 @ F,0,0,1,0,2.5,0,1 @ F,0,0,1,0,2.5,0,1 @ F,0,0,1,0,2.5,0,1 @ F,0,0,1,0,2.5,0,1 @ F,0,0,1,0,2.5,0,1 @ F,0,0,1,0,2.5,0,1 @ F,0,0,1,0,2.5,0,1"
       unit="px"
       method="auto"
       mode="F"
       radius="2.5"
       chamfer_steps="1"
       flexible="false"
       use_knot_distance="true"
       apply_no_radius="true"
       apply_with_radius="true"
       only_selected="false"
       hide_knots="false" />
    <inkscape:path-effect
       effect="fillet_chamfer"
       id="path-effect9418"
       is_visible="true"
       lpeversion="1"
       satellites_param="F,0,1,1,0,2.056932,0,1 @ F,0,1,1,0,0,0,1 @ F,0,0,1,0,0,0,1 @ F,0,0,1,0,0,0,1 @ F,0,0,1,0,0,0,1 @ F,0,0,1,0,0,0,1"
       unit="px"
       method="auto"
       mode="F"
       radius="4"
       chamfer_steps="1"
       flexible="false"
       use_knot_distance="true"
       apply_no_radius="true"
       apply_with_radius="true"
       only_selected="true"
       hide_knots="false" />
    <inkscape:path-effect
       effect="fillet_chamfer"
       id="path-effect9414"
       is_visible="true"
       lpeversion="1"
       satellites_param="F,0,1,1,0,6,0,1 @ F,0,1,1,0,6,0,1 @ F,0,1,1,0,6,0,1 @ F,0,1,1,0,6,0,1"
       unit="px"
       method="auto"
       mode="F"
       radius="1"
       chamfer_steps="1"
       flexible="false"
       use_knot_distance="true"
       apply_no_radius="true"
       apply_with_radius="true"
       only_selected="true"
       hide_knots="false" />
    <inkscape:path-effect
       effect="fillet_chamfer"
       id="path-effect8931"
       is_visible="true"
       lpeversion="1"
       satellites_param="F,0,1,1,0,6,0,1 @ F,0,1,1,0,6,0,1 @ F,0,1,1,0,6,0,1 @ F,0,1,1,0,6,0,1"
       unit="px"
       method="auto"
       mode="F"
       radius="1"
       chamfer_steps="1"
       flexible="false"
       use_knot_distance="true"
       apply_no_radius="true"
       apply_with_radius="true"
       only_selected="true"
       hide_knots="false" />
    <inkscape:path-effect
       effect="fillet_chamfer"
       id="path-effect2991"
       is_visible="true"
       lpeversion="1"
       satellites_param="F,0,1,1,0,2.056932,0,1 @ F,0,1,1,0,0,0,1 @ F,0,0,1,0,0,0,1 @ F,0,0,1,0,0,0,1 @ F,0,0,1,0,0,0,1 @ F,0,0,1,0,0,0,1"
       unit="px"
       method="auto"
       mode="F"
       radius="4"
       chamfer_steps="1"
       flexible="false"
       use_knot_distance="true"
       apply_no_radius="true"
       apply_with_radius="true"
       only_selected="true"
       hide_knots="false" />
    <inkscape:path-effect
       effect="fillet_chamfer"
       id="path-effect4760"
       is_visible="true"
       lpeversion="1"
       satellites_param="F,0,0,1,0,0,0,1 @ F,0,0,1,0,0,0,1 @ F,0,0,1,0,0,0,1"
       unit="px"
       method="auto"
       mode="F"
       radius="1"
       chamfer_steps="1"
       flexible="false"
       use_knot_distance="true"
       apply_no_radius="true"
       apply_with_radius="true"
       only_selected="false"
       hide_knots="false" />
    <inkscape:path-effect
       effect="fillet_chamfer"
       id="path-effect4409"
       is_visible="true"
       lpeversion="1"
       satellites_param="F,0,0,1,0,0,0,2 @ F,0,0,1,0,0,0,2 @ F,0,0,1,0,0,0,2"
       unit="px"
       method="auto"
       mode="F"
       radius="0"
       chamfer_steps="1"
       flexible="false"
       use_knot_distance="true"
       apply_no_radius="true"
       apply_with_radius="true"
       only_selected="false"
       hide_knots="false" />
    <inkscape:path-effect
       effect="fillet_chamfer"
       id="path-effect22732"
       is_visible="true"
       lpeversion="1"
       satellites_param="F,0,1,1,0,4,0,1 @ F,0,0,1,0,0,0,1 @ F,0,0,1,0,0,0,1 @ F,0,0,1,0,0,0,1 @ F,0,0,1,0,0,0,1 @ F,0,0,1,0,0,0,1"
       unit="px"
       method="auto"
       mode="F"
       radius="4"
       chamfer_steps="1"
       flexible="false"
       use_knot_distance="true"
       apply_no_radius="true"
       apply_with_radius="true"
       only_selected="true"
       hide_knots="false" />
    <inkscape:path-effect
       effect="fillet_chamfer"
       id="path-effect20463"
       is_visible="true"
       lpeversion="1"
       satellites_param="F,0,1,1,0,2.056932,0,1 @ F,0,1,1,0,0,0,1 @ F,0,0,1,0,0,0,1 @ F,0,0,1,0,0,0,1 @ F,0,0,1,0,0,0,1 @ F,0,0,1,0,0,0,1"
       unit="px"
       method="auto"
       mode="F"
       radius="4"
       chamfer_steps="1"
       flexible="false"
       use_knot_distance="true"
       apply_no_radius="true"
       apply_with_radius="true"
       only_selected="true"
       hide_knots="false" />
    <filter
       style="color-interpolation-filters:sRGB;"
       inkscape:label="Drop Shadow"
       id="filter92835"
       x="0"
       y="0"
       width="1.3203398"
       height="1.8894706">
      <feFlood
         flood-opacity="0.121569"
         flood-color="rgb(0,0,0)"
         result="flood"
         id="feFlood92825" />
      <feComposite
         in="flood"
         in2="SourceGraphic"
         operator="in"
         result="composite1"
         id="feComposite92827" />
      <feGaussianBlur
         in="composite1"
         stdDeviation="0"
         result="blur"
         id="feGaussianBlur92829" />
      <feOffset
         dx="2.3"
         dy="2.8"
         result="offset"
         id="feOffset92831" />
      <feComposite
         in="SourceGraphic"
         in2="offset"
         operator="over"
         result="composite2"
         id="feComposite92833" />
    </filter>
    <filter
       style="color-interpolation-filters:sRGB;"
       inkscape:label="Drop Shadow"
       id="filter92847"
       x="0"
       y="0"
       width="1.3203396"
       height="1.8894706">
      <feFlood
         flood-opacity="0.121569"
         flood-color="rgb(0,0,0)"
         result="flood"
         id="feFlood92837" />
      <feComposite
         in="flood"
         in2="SourceGraphic"
         operator="in"
         result="composite1"
         id="feComposite92839" />
      <feGaussianBlur
         in="composite1"
         stdDeviation="0"
         result="blur"
         id="feGaussianBlur92841" />
      <feOffset
         dx="2.3"
         dy="2.8"
         result="offset"
         id="feOffset92843" />
      <feComposite
         in="SourceGraphic"
         in2="offset"
         operator="over"
         result="composite2"
         id="feComposite92845" />
    </filter>
    <filter
       style="color-interpolation-filters:sRGB;"
       inkscape:label="Drop Shadow"
       id="filter92859"
       x="0"
       y="0"
       width="1.0313258"
       height="1.0755906">
      <feFlood
         flood-opacity="0.121569"
         flood-color="rgb(0,0,0)"
         result="flood"
         id="feFlood92849" />
      <feComposite
         in="flood"
         in2="SourceGraphic"
         operator="in"
         result="composite1"
         id="feComposite92851" />
      <feGaussianBlur
         in="composite1"
         stdDeviation="0"
         result="blur"
         id="feGaussianBlur92853" />
      <feOffset
         dx="2.3"
         dy="2.8"
         result="offset"
         id="feOffset92855" />
      <feComposite
         in="SourceGraphic"
         in2="offset"
         operator="over"
         result="composite2"
         id="feComposite92857" />
    </filter>
    <filter
       style="color-interpolation-filters:sRGB;"
       inkscape:label="Drop Shadow"
       id="filter92871"
       x="0"
       y="0"
       width="1.1728858"
       height="1.2122204">
      <feFlood
         flood-opacity="0.121569"
         flood-color="rgb(0,0,0)"
         result="flood"
         id="feFlood92861" />
      <feComposite
         in="flood"
         in2="SourceGraphic"
         operator="in"
         result="composite1"
         id="feComposite92863" />
      <feGaussianBlur
         in="composite1"
         stdDeviation="0"
         result="blur"
         id="feGaussianBlur92865" />
      <feOffset
         dx="2.3"
         dy="2.8"
         result="offset"
         id="feOffset92867" />
      <feComposite
         in="SourceGraphic"
         in2="offset"
         operator="over"
         result="composite2"
         id="feComposite92869" />
    </filter>
    <filter
       style="color-interpolation-filters:sRGB;"
       inkscape:label="Drop Shadow"
       id="filter92883"
       x="0"
       y="0"
       width="1.2513993"
       height="1.3278274">
      <feFlood
         flood-opacity="0.121569"
         flood-color="rgb(0,0,0)"
         result="flood"
         id="feFlood92873" />
      <feComposite
         in="flood"
         in2="SourceGraphic"
         operator="in"
         result="composite1"
         id="feComposite92875" />
      <feGaussianBlur
         in="composite1"
         stdDeviation="0"
         result="blur"
         id="feGaussianBlur92877" />
      <feOffset
         dx="2.3"
         dy="2.8"
         result="offset"
         id="feOffset92879" />
      <feComposite
         in="SourceGraphic"
         in2="offset"
         operator="over"
         result="composite2"
         id="feComposite92881" />
    </filter>
    <filter
       style="color-interpolation-filters:sRGB;"
       inkscape:label="Drop Shadow"
       id="filter92895"
       x="0"
       y="0"
       width="2.0866099"
       height="1.1081244">
      <feFlood
         flood-opacity="0.121569"
         flood-color="rgb(0,0,0)"
         result="flood"
         id="feFlood92885" />
      <feComposite
         in="flood"
         in2="SourceGraphic"
         operator="in"
         result="composite1"
         id="feComposite92887" />
      <feGaussianBlur
         in="composite1"
         stdDeviation="0"
         result="blur"
         id="feGaussianBlur92889" />
      <feOffset
         dx="2.3"
         dy="2.8"
         result="offset"
         id="feOffset92891" />
      <feComposite
         in="SourceGraphic"
         in2="offset"
         operator="over"
         result="composite2"
         id="feComposite92893" />
    </filter>
    <filter
       style="color-interpolation-filters:sRGB;"
       inkscape:label="Drop Shadow"
       id="filter92907"
       x="0"
       y="0"
       width="1.3429659"
       height="2.1683413">
      <feFlood
         flood-opacity="0.121569"
         flood-color="rgb(0,0,0)"
         result="flood"
         id="feFlood92897" />
      <feComposite
         in="flood"
         in2="SourceGraphic"
         operator="in"
         result="composite1"
         id="feComposite92899" />
      <feGaussianBlur
         in="composite1"
         stdDeviation="0"
         result="blur"
         id="feGaussianBlur92901" />
      <feOffset
         dx="2.3"
         dy="2.8"
         result="offset"
         id="feOffset92903" />
      <feComposite
         in="SourceGraphic"
         in2="offset"
         operator="over"
         result="composite2"
         id="feComposite92905" />
    </filter>
    <filter
       style="color-interpolation-filters:sRGB;"
       inkscape:label="Drop Shadow"
       id="filter92919"
       x="0"
       y="0"
       width="1.1552306"
       height="1.1996732">
      <feFlood
         flood-opacity="0.121569"
         flood-color="rgb(0,0,0)"
         result="flood"
         id="feFlood92909" />
      <feComposite
         in="flood"
         in2="SourceGraphic"
         operator="in"
         result="composite1"
         id="feComposite92911" />
      <feGaussianBlur
         in="composite1"
         stdDeviation="0"
         result="blur"
         id="feGaussianBlur92913" />
      <feOffset
         dx="2.3"
         dy="2.8"
         result="offset"
         id="feOffset92915" />
      <feComposite
         in="SourceGraphic"
         in2="offset"
         operator="over"
         result="composite2"
         id="feComposite92917" />
    </filter>
    <filter
       style="color-interpolation-filters:sRGB;"
       inkscape:label="Drop Shadow"
       id="filter14680"
       x="0"
       y="0"
       width="1.1467269"
       height="1.1257432">
      <feFlood
         flood-opacity="0.121569"
         flood-color="rgb(0,0,0)"
         result="flood"
         id="feFlood14670" />
      <feComposite
         in="flood"
         in2="SourceGraphic"
         operator="in"
         result="composite1"
         id="feComposite14672" />
      <feGaussianBlur
         in="composite1"
         stdDeviation="0"
         result="blur"
         id="feGaussianBlur14674" />
      <feOffset
         dx="1.4"
         dy="1.8"
         result="offset"
         id="feOffset14676" />
      <feComposite
         in="SourceGraphic"
         in2="offset"
         operator="over"
         result="composite2"
         id="feComposite14678" />
    </filter>
  </defs>
  <g
     inkscape:label="Base"
     inkscape:groupmode="layer"
     id="layer1"
     style="display:inline">
    <path
       id="rect4106-9"
       style="display:inline;fill:#ff0000;fill-opacity:1;stroke:none;stroke-width:3.175;stroke-linejoin:round;stroke-opacity:1;paint-order:stroke fill markers;filter:url(#filter92835)"
       d="m 26.187238,45.498054 h 5.06321 l 1.058333,3.14794 h -7.179876 z"
       sodipodi:nodetypes="ccccc" />
    <path
       id="rect4106-0-2"
       style="display:inline;fill:#ff0000;fill-opacity:1;stroke:none;stroke-width:3.175;stroke-linejoin:round;stroke-opacity:1;paint-order:stroke fill markers;filter:url(#filter92847)"
       d="m 70.34956,45.498054 h 5.06321 l 1.05834,3.14794 h -7.17988 z"
       sodipodi:nodetypes="ccccc" />
    <path
       id="rect4106"
       style="fill:#797b85;fill-opacity:1;stroke:#64666e;stroke-width:3.175;stroke-linejoin:round;stroke-opacity:1;paint-order:stroke fill markers"
       d="m 26.18724,45.498046 h 5.06321 l 1.058333,3.147942 h -7.179876 z"
       sodipodi:nodetypes="ccccc" />
    <path
       id="rect4106-0"
       style="fill:#797b85;fill-opacity:1;stroke:#64666e;stroke-width:3.175;stroke-linejoin:round;stroke-opacity:1;paint-order:stroke fill markers"
       d="m 70.349565,45.498046 h 5.06321 l 1.058333,3.147942 h -7.179876 z"
       sodipodi:nodetypes="ccccc" />
    <path
       id="rect1250-4-0"
       style="display:inline;fill:#ff0000;fill-opacity:1;stroke:none;stroke-width:3.175;stroke-linejoin:round;paint-order:stroke fill markers;filter:url(#filter92859)"
       d="m 13.824479,11.879174 0,31.04166 a 1,1 45 0 0 1,1 H 86.24635 a 1.0000002,1.0000002 135 0 0 1,-1 l 3e-6,-18.27087 a 4.9999992,4.9999992 45.000005 0 1 -4.999999,-5 H 44.98698 a 1.0000001,1.0000001 44.999998 0 1 -1,-1 l -1e-6,-6.77079 a 5.0000004,5.0000004 44.999998 0 1 -5,-5 h -20.1625 a 5,5 135 0 1 -5,5 z"
       inkscape:path-effect="#path-effect92060"
       inkscape:original-d="m 13.824479,6.879174 v 37.04166 H 87.24635 l 4e-6,-24.27087 H 43.98698 l -1e-6,-12.77079 z"
       sodipodi:nodetypes="ccccccc" />
    <path
       id="rect1250-4-0-1"
       style="display:inline;fill:#dee1ea;fill-opacity:1;stroke:#64666e;stroke-width:3.175;stroke-linejoin:round;paint-order:stroke fill markers"
       d="m 13.824479,11.879177 v 31.041656 a 1,1 45 0 0 1,1 h 71.421877 a 0.99999992,0.99999992 135 0 0 1,-1 l -2e-6,-18.270866 a 5.0000004,5.0000004 44.999998 0 1 -5,-5 l -37.259372,0 a 1.0000002,1.0000002 44.999993 0 1 -1,-1 l -2e-6,-6.77079 A 5.0000012,5.0000012 44.999993 0 1 38.986979,6.8791766 h -20.1625 a 5,5 135 0 1 -5,5.0000004 z"
       inkscape:path-effect="#path-effect92355"
       inkscape:original-d="m 13.824479,6.8791766 0,37.0416564 h 73.421877 l -2e-6,-24.270866 H 43.986982 l -3e-6,-12.7707904 z"
       sodipodi:nodetypes="ccccccc" />
    <path
       id="rect17618-6-3"
       style="display:inline;fill:#ff0000;fill-opacity:1;stroke:none;stroke-width:3.175;stroke-linejoin:round;stroke-opacity:1;paint-order:stroke fill markers;filter:url(#filter92871)"
       d="M 73.93967,32.783936 V 43.920834 H 71.823 V 32.843674 H 60.63609 v -2.11667 h 11.246648 a 2.056932,2.056932 45 0 1 2.056932,2.056932 z"
       inkscape:original-d="m 73.93967,30.727004 v 13.19383 H 71.823 V 32.843674 H 60.63609 v -2.11667 z"
       sodipodi:nodetypes="ccccccc"
       inkscape:path-effect="#path-effect92064" />
    <path
       id="rect17618-6"
       style="fill:#8e919b;fill-opacity:1;stroke:#64666e;stroke-width:3.175;stroke-linejoin:round;stroke-opacity:1;paint-order:stroke fill markers"
       d="M 73.939672,32.783936 V 43.920833 H 71.823005 V 32.843674 H 60.63609 v -2.11667 h 11.24665 a 2.056932,2.056932 45 0 1 2.056932,2.056932 z"
       inkscape:original-d="M 73.939672,30.727004 V 43.920833 H 71.823005 V 32.843674 H 60.63609 v -2.11667 z"
       sodipodi:nodetypes="ccccccc"
       inkscape:path-effect="#path-effect20463" />
    <path
       id="rect1491-6"
       style="display:inline;fill:#ff0000;fill-opacity:1;stroke:none;stroke-width:3.175;stroke-linejoin:round;stroke-opacity:1;paint-order:stroke fill markers;filter:url(#filter92883)"
       d="m 37.71139,27.514794 v 3.21221 h 4.40386 v 2.11666 h -4.40386 v 3.21221 l -4.744931,-4.27054 z" />
    <path
       id="rect1491"
       style="fill:#8e919b;fill-opacity:1;stroke:#64666e;stroke-width:3.175;stroke-linejoin:round;stroke-opacity:1;paint-order:stroke fill markers"
       d="m 37.711391,27.51479 v 3.212206 h 4.403865 v 2.116666 h -4.403865 v 3.212206 l -4.74493,-4.270539 z" />
    <path
       id="rect3960-8"
       style="display:inline;fill:#ff0000;fill-opacity:1;stroke:none;stroke-width:3.175;stroke-linecap:round;stroke-linejoin:round;stroke-opacity:1;paint-order:markers stroke fill;filter:url(#filter92895)"
       d="m 29.776992,18.024744 8e-6,25.89609 h -2.116667 l -8e-6,-25.89609 z"
       sodipodi:nodetypes="ccccc" />
    <path
       id="rect3960"
       style="fill:#8e919b;fill-opacity:1;stroke:#64666e;stroke-width:3.175;stroke-linecap:round;stroke-linejoin:round;stroke-opacity:1;paint-order:markers stroke fill"
       d="m 29.776994,18.024739 8e-6,25.896094 h -2.116667 l -8e-6,-25.896094 z"
       sodipodi:nodetypes="ccccc" />
    <path
       id="rect8497-8-1"
       style="display:inline;fill:#ff0000;stroke:none;stroke-width:3.175;stroke-linejoin:round;paint-order:stroke fill markers;filter:url(#filter92919)"
       d="m 21.310495,6.820434 v 11.52291 c 0,0.6925 0.5575,1.25 1.25,1.25 H 34.87716 c 0.6925,0 1.25,-0.5575 1.25,-1.25 V 6.820434 c 0,-0.6925 -0.5575,-1.25 -1.25,-1.25 H 22.560495 c -0.6925,0 -1.25,0.5575 -1.25,1.25 z" />
    <path
       id="rect4106-9-9-7"
       style="display:inline;fill:#ff0000;fill-opacity:1;stroke:none;stroke-width:3.175;stroke-linejoin:round;stroke-opacity:1;paint-order:stroke fill markers;filter:url(#filter92907)"
       d="m 31.469683,1.587504 h -5.48709 l -0.616866,2.39656 h 6.706206 z"
       sodipodi:nodetypes="ccccc" />
    <g
       id="g2627"
       transform="matrix(-1,0,0,1,101.6,0)">
      <path
         id="rect4106-9-9"
         style="fill:#797b85;fill-opacity:1;stroke:#64666e;stroke-width:3.175;stroke-linejoin:round;stroke-opacity:1;paint-order:stroke fill markers"
         d="m 70.130317,1.5875008 h 5.48709 l 0.616866,2.3965574 h -6.706206 z"
         sodipodi:nodetypes="ccccc" />
      <path
         id="rect8497-8"
         style="fill:#dee1ea;stroke:#64666e;stroke-width:3.175;stroke-linejoin:round;paint-order:stroke fill markers"
         d="m 6.820426,-80.289505 h 11.522917 c 0.6925,0 1.25,0.5575 1.25,1.25 v 12.316667 c 0,0.6925 -0.5575,1.25 -1.25,1.25 H 6.820426 c -0.6925,0 -1.25,-0.5575 -1.25,-1.25 v -12.316667 c 0,-0.6925 0.5575,-1.25 1.25,-1.25 z"
         transform="rotate(90)" />
    </g>
    <path
       id="path6480-0"
       style="display:inline;fill:#ff0000;fill-opacity:1;stroke:none;stroke-width:3.175;stroke-linecap:round;stroke-linejoin:round;stroke-miterlimit:4;stroke-dasharray:none;stroke-opacity:1;paint-order:markers stroke fill;filter:url(#filter14680)"
       d="m 51.554475,25.138 a 4.770761,4.770761 0 0 0 -4.770769,4.770769 4.770761,4.770761 0 0 0 0.639755,2.386934 4.770761,4.770761 0 0 0 -0.639755,2.386417 4.770761,4.770761 0 0 0 4.770769,4.770768 4.770761,4.770761 0 0 0 4.770768,-4.770768 4.770761,4.770761 0 0 0 -0.640271,-2.385901 4.770761,4.770761 0 0 0 0.640271,-2.38745 A 4.770761,4.770761 0 0 0 51.554475,25.138 Z" />
  </g>
  <g
     inkscape:groupmode="layer"
     id="layer3"
     inkscape:label="and"
     style="display:none">
    <path
       id="path6480-4-5"
       style="display:inline;fill:#8e919b;fill-opacity:1;stroke:none;stroke-width:3.175;stroke-linecap:round;stroke-linejoin:round;stroke-miterlimit:4;stroke-dasharray:none;stroke-opacity:1;paint-order:markers stroke fill"
       d="m 51.554475,39.453406 a 4.770761,4.770761 0 0 0 4.770768,-4.770769 4.770761,4.770761 0 0 0 -0.64027,-2.386934 4.770761,4.770761 0 0 1 -4.130498,2.383835 4.770761,4.770761 0 0 1 -4.130498,-2.383835 4.770761,4.770761 0 0 0 -0.64027,2.386934 4.770761,4.770761 0 0 0 4.770768,4.770769 z" />
    <path
       id="path6480-4"
       style="display:inline;fill:#8e919b;fill-opacity:1;stroke:none;stroke-width:3.175;stroke-linecap:round;stroke-linejoin:round;stroke-miterlimit:4;stroke-dasharray:none;stroke-opacity:1;paint-order:markers stroke fill"
       d="m 51.554475,25.138 a 4.770761,4.770761 0 0 0 -4.770768,4.770769 4.770761,4.770761 0 0 0 0.64027,2.386934 4.770761,4.770761 0 0 1 4.130498,-2.383835 4.770761,4.770761 0 0 1 4.130498,2.383835 4.770761,4.770761 0 0 0 0.64027,-2.386934 A 4.770761,4.770761 0 0 0 51.554475,25.138 Z" />
    <path
       id="path6480"
       style="display:inline;fill:#8e919b;fill-opacity:1;stroke:#64666e;stroke-width:12;stroke-linecap:round;stroke-linejoin:round;stroke-miterlimit:4;stroke-dasharray:none;stroke-opacity:1;paint-order:markers stroke fill"
       d="m 194.85156,95.009766 a 18.031223,18.031223 0 0 0 -18.03125,18.031254 18.031223,18.031223 0 0 0 2.41797,9.02148 18.031223,18.031223 0 0 0 -2.41797,9.01953 18.031223,18.031223 0 0 0 18.03125,18.03125 18.031223,18.031223 0 0 0 18.03125,-18.03125 18.031223,18.031223 0 0 0 -2.41992,-9.01758 18.031223,18.031223 0 0 0 2.41992,-9.02343 18.031223,18.031223 0 0 0 -18.03125,-18.031254 z"
       transform="scale(0.26458333)" />
    <path
       id="path6480-3"
       style="display:inline;fill:#ff004e;fill-opacity:1;stroke:none;stroke-width:3.175;stroke-linecap:round;stroke-linejoin:round;stroke-miterlimit:4;stroke-dasharray:none;stroke-opacity:1;paint-order:markers stroke fill"
       d="m 51.554475,29.911867 a 4.770761,4.770761 0 0 0 -4.130497,2.383835 4.770761,4.770761 0 0 0 4.130497,2.383835 4.770761,4.770761 0 0 0 4.130498,-2.383835 4.770761,4.770761 0 0 0 -4.130498,-2.383835 z" />
  </g>
  <g
     inkscape:groupmode="layer"
     id="g17110"
     inkscape:label="or"
     style="display:none">
    <path
       id="path17106"
       style="display:inline;fill:#ff004e;fill-opacity:1;stroke:#64666e;stroke-width:12;stroke-linecap:round;stroke-linejoin:round;stroke-miterlimit:4;stroke-dasharray:none;stroke-opacity:1;paint-order:markers stroke fill"
       d="m 194.85156,95.009766 a 18.031223,18.031223 0 0 0 -18.03125,18.031254 18.031223,18.031223 0 0 0 2.41797,9.02148 18.031223,18.031223 0 0 0 -2.41797,9.01953 18.031223,18.031223 0 0 0 18.03125,18.03125 18.031223,18.031223 0 0 0 18.03125,-18.03125 18.031223,18.031223 0 0 0 -2.41992,-9.01758 18.031223,18.031223 0 0 0 2.41992,-9.02343 18.031223,18.031223 0 0 0 -18.03125,-18.031254 z"
       transform="scale(0.26458333)" />
  </g>
  <g
     inkscape:groupmode="layer"
     id="g17120"
     inkscape:label="xor"
     style="display:inline">
    <path
       id="path17112"
       style="display:inline;fill:#8e919b;fill-opacity:1;stroke:none;stroke-width:3.175;stroke-linecap:round;stroke-linejoin:round;stroke-miterlimit:4;stroke-dasharray:none;stroke-opacity:1;paint-order:markers stroke fill"
       d="m 51.554475,39.453406 a 4.770761,4.770761 0 0 0 4.770768,-4.770769 4.770761,4.770761 0 0 0 -0.64027,-2.386934 4.770761,4.770761 0 0 1 -4.130498,2.383835 4.770761,4.770761 0 0 1 -4.130498,-2.383835 4.770761,4.770761 0 0 0 -0.64027,2.386934 4.770761,4.770761 0 0 0 4.770768,4.770769 z" />
    <path
       id="path17114"
       style="display:inline;fill:#8e919b;fill-opacity:1;stroke:none;stroke-width:3.175;stroke-linecap:round;stroke-linejoin:round;stroke-miterlimit:4;stroke-dasharray:none;stroke-opacity:1;paint-order:markers stroke fill"
       d="m 51.554475,25.138 a 4.770761,4.770761 0 0 0 -4.770768,4.770769 4.770761,4.770761 0 0 0 0.64027,2.386934 4.770761,4.770761 0 0 1 4.130498,-2.383835 4.770761,4.770761 0 0 1 4.130498,2.383835 4.770761,4.770761 0 0 0 0.64027,-2.386934 A 4.770761,4.770761 0 0 0 51.554475,25.138 Z" />
    <path
       id="path17116"
       style="display:inline;fill:#8e919b;fill-opacity:1;stroke:#64666e;stroke-width:12;stroke-linecap:round;stroke-linejoin:round;stroke-miterlimit:4;stroke-dasharray:none;stroke-opacity:1;paint-order:markers stroke fill"
       d="m 194.85156,95.009766 a 18.031223,18.031223 0 0 0 -18.03125,18.031254 18.031223,18.031223 0 0 0 2.41797,9.02148 18.031223,18.031223 0 0 0 -2.41797,9.01953 18.031223,18.031223 0 0 0 18.03125,18.03125 18.031223,18.031223 0 0 0 18.03125,-18.03125 18.031223,18.031223 0 0 0 -2.41992,-9.01758 18.031223,18.031223 0 0 0 2.41992,-9.02343 18.031223,18.031223 0 0 0 -18.03125,-18.031254 z"
       transform="scale(0.26458333)" />
    <path
       id="path17102"
       style="display:inline;fill:#ff004e;fill-opacity:1;stroke:none;stroke-width:3.175;stroke-linecap:round;stroke-linejoin:round;stroke-miterlimit:4;stroke-dasharray:none;stroke-opacity:1;paint-order:markers stroke fill"
       d="m 51.554475,39.453406 a 4.770761,4.770761 0 0 0 4.770768,-4.770769 4.770761,4.770761 0 0 0 -0.64027,-2.386934 4.770761,4.770761 0 0 1 -4.130498,2.383835 4.770761,4.770761 0 0 1 -4.130498,-2.383835 4.770761,4.770761 0 0 0 -0.64027,2.386934 4.770761,4.770761 0 0 0 4.770768,4.770769 z" />
    <path
       id="path17104"
       style="display:inline;fill:#ff004e;fill-opacity:1;stroke:none;stroke-width:3.175;stroke-linecap:round;stroke-linejoin:round;stroke-miterlimit:4;stroke-dasharray:none;stroke-opacity:1;paint-order:markers stroke fill"
       d="m 51.554475,25.138 a 4.770761,4.770761 0 0 0 -4.770768,4.770769 4.770761,4.770761 0 0 0 0.64027,2.386934 4.770761,4.770761 0 0 1 4.130498,-2.383835 4.770761,4.770761 0 0 1 4.130498,2.383835 4.770761,4.770761 0 0 0 0.64027,-2.386934 A 4.770761,4.770761 0 0 0 51.554475,25.138 Z" />
  </g>
</svg>
