<?xml version="1.0" encoding="UTF-8" standalone="no"?>
<!-- Created with Inkscape (http://www.inkscape.org/) -->

<svg
   width="192"
   height="192"
   viewBox="0 0 50.8 50.800001"
   version="1.1"
   id="svg5"
   inkscape:export-filename="E:\shapez\cli\shapezio-mods\src\wires-plus\res\sprites\buildings\memory_simple.png"
   inkscape:export-xdpi="96"
   inkscape:export-ydpi="96"
   inkscape:version="1.1.1 (3bf5ae0d25, 2021-09-20)"
   sodipodi:docname="memory_simple.svg"
   xmlns:inkscape="http://www.inkscape.org/namespaces/inkscape"
   xmlns:sodipodi="http://sodipodi.sourceforge.net/DTD/sodipodi-0.dtd"
   xmlns="http://www.w3.org/2000/svg"
   xmlns:svg="http://www.w3.org/2000/svg">
  <sodipodi:namedview
     id="namedview7"
     pagecolor="#505050"
     bordercolor="#eeeeee"
     borderopacity="1"
     inkscape:pageshadow="0"
     inkscape:pageopacity="0"
     inkscape:pagecheckerboard="0"
     inkscape:document-units="px"
     showgrid="false"
     units="px"
     inkscape:zoom="4.0000001"
     inkscape:cx="43.749999"
     inkscape:cy="97.374998"
     inkscape:window-width="1920"
     inkscape:window-height="1057"
     inkscape:window-x="1072"
     inkscape:window-y="375"
     inkscape:window-maximized="1"
     inkscape:current-layer="layer1"
     width="192px" />
  <defs
     id="defs2">
    <inkscape:path-effect
       effect="fillet_chamfer"
       id="path-effect22670"
       is_visible="true"
       lpeversion="1"
       satellites_param="F,0,0,1,0,1,0,1 @ F,0,0,1,0,1,0,1 @ F,0,1,1,0,4,0,1 @ F,0,0,1,0,1,0,1 @ F,0,0,1,0,1,0,1 @ F,0,0,1,0,1,0,1 @ F,0,0,1,0,1,0,1 @ F,0,0,1,0,1,0,1 @ F,0,0,1,0,1,0,1 @ F,0,1,1,0,4,0,1 @ F,0,0,1,0,1,0,1 @ F,0,0,1,0,1,0,1 @ F,0,0,1,0,1,0,1 @ F,0,0,1,0,1,0,1"
       unit="px"
       method="auto"
       mode="F"
       radius="4"
       chamfer_steps="1"
       flexible="false"
       use_knot_distance="true"
       apply_no_radius="true"
       apply_with_radius="true"
       only_selected="true"
       hide_knots="false" />
    <inkscape:path-effect
       effect="fillet_chamfer"
       id="path-effect20858"
       is_visible="true"
       lpeversion="1"
       satellites_param="F,0,0,1,0,1,0,1 @ F,0,0,1,0,1,0,1 @ F,0,1,1,0,4,0,1 @ F,0,0,1,0,1,0,1 @ F,0,0,1,0,1,0,1 @ F,0,0,1,0,1,0,1 @ F,0,0,1,0,1,0,1 @ F,0,0,1,0,1,0,1 @ F,0,0,1,0,1,0,1 @ F,0,1,1,0,4,0,1 @ F,0,0,1,0,1,0,1 @ F,0,0,1,0,1,0,1 @ F,0,0,1,0,1,0,1 @ F,0,0,1,0,1,0,1"
       unit="px"
       method="auto"
       mode="F"
       radius="4"
       chamfer_steps="1"
       flexible="false"
       use_knot_distance="true"
       apply_no_radius="true"
       apply_with_radius="true"
       only_selected="true"
       hide_knots="false" />
    <inkscape:path-effect
       effect="fillet_chamfer"
       id="path-effect20509"
       is_visible="true"
       lpeversion="1"
       satellites_param="F,0,0,1,0,1,0,1 @ F,0,0,1,0,1,0,1 @ F,0,1,1,0,4,0,1 @ F,0,0,1,0,1,0,1 @ F,0,0,1,0,1,0,1 @ F,0,0,1,0,1,0,1 @ F,0,0,1,0,1,0,1 @ F,0,0,1,0,1,0,1 @ F,0,0,1,0,1,0,1 @ F,0,1,1,0,4,0,1 @ F,0,0,1,0,1,0,1 @ F,0,0,1,0,1,0,1 @ F,0,0,1,0,1,0,1 @ F,0,0,1,0,1,0,1"
       unit="px"
       method="auto"
       mode="F"
       radius="4"
       chamfer_steps="1"
       flexible="false"
       use_knot_distance="true"
       apply_no_radius="true"
       apply_with_radius="true"
       only_selected="true"
       hide_knots="false" />
    <inkscape:path-effect
       effect="fillet_chamfer"
       id="path-effect21885"
       is_visible="true"
       lpeversion="1"
       satellites_param="F,0,0,1,0,4,0,1 @ F,0,0,1,0,4,0,1 @ F,0,0,1,0,4,0,1 @ F,0,0,1,0,4,0,1"
       unit="px"
       method="auto"
       mode="F"
       radius="4"
       chamfer_steps="1"
       flexible="false"
       use_knot_distance="true"
       apply_no_radius="true"
       apply_with_radius="true"
       only_selected="false"
       hide_knots="false" />
    <inkscape:path-effect
       effect="fillet_chamfer"
       id="path-effect21757"
       is_visible="true"
       lpeversion="1"
       satellites_param="F,0,0,1,0,4,0,1 @ F,0,0,1,0,4,0,1 @ F,0,0,1,0,4,0,1 @ F,0,0,1,0,4,0,1"
       unit="px"
       method="auto"
       mode="F"
       radius="4"
       chamfer_steps="1"
       flexible="false"
       use_knot_distance="true"
       apply_no_radius="true"
       apply_with_radius="true"
       only_selected="false"
       hide_knots="false" />
    <inkscape:path-effect
       effect="fillet_chamfer"
       id="path-effect4119"
       is_visible="true"
       lpeversion="1"
       satellites_param="F,0,0,1,0,4,0,1 @ F,0,0,1,0,4,0,1 @ F,0,0,1,0,4,0,1 @ F,0,0,1,0,4,0,1"
       unit="px"
       method="auto"
       mode="F"
       radius="4"
       chamfer_steps="1"
       flexible="false"
       use_knot_distance="true"
       apply_no_radius="true"
       apply_with_radius="true"
       only_selected="false"
       hide_knots="false" />
    <inkscape:path-effect
       effect="fillet_chamfer"
       id="path-effect2939"
       is_visible="true"
       lpeversion="1"
       satellites_param="F,0,0,1,0,4,0,1 @ F,0,0,1,0,4,0,1 @ F,0,0,1,0,4,0,1 @ F,0,0,1,0,4,0,1"
       unit="px"
       method="auto"
       mode="F"
       radius="4"
       chamfer_steps="1"
       flexible="false"
       use_knot_distance="true"
       apply_no_radius="true"
       apply_with_radius="true"
       only_selected="false"
       hide_knots="false" />
    <inkscape:path-effect
       effect="fillet_chamfer"
       id="path-effect4760"
       is_visible="true"
       lpeversion="1"
       satellites_param="F,0,0,1,0,0,0,1 @ F,0,0,1,0,0,0,1 @ F,0,0,1,0,0,0,1"
       unit="px"
       method="auto"
       mode="F"
       radius="1"
       chamfer_steps="1"
       flexible="false"
       use_knot_distance="true"
       apply_no_radius="true"
       apply_with_radius="true"
       only_selected="false"
       hide_knots="false" />
    <inkscape:path-effect
       effect="fillet_chamfer"
       id="path-effect4409"
       is_visible="true"
       lpeversion="1"
       satellites_param="F,0,0,1,0,0,0,2 @ F,0,0,1,0,0,0,2 @ F,0,0,1,0,0,0,2"
       unit="px"
       method="auto"
       mode="F"
       radius="0"
       chamfer_steps="1"
       flexible="false"
       use_knot_distance="true"
       apply_no_radius="true"
       apply_with_radius="true"
       only_selected="false"
       hide_knots="false" />
    <inkscape:path-effect
       effect="fillet_chamfer"
       id="path-effect22732"
       is_visible="true"
       lpeversion="1"
       satellites_param="F,0,1,1,0,4,0,1 @ F,0,0,1,0,0,0,1 @ F,0,0,1,0,0,0,1 @ F,0,0,1,0,0,0,1 @ F,0,0,1,0,0,0,1 @ F,0,0,1,0,0,0,1"
       unit="px"
       method="auto"
       mode="F"
       radius="4"
       chamfer_steps="1"
       flexible="false"
       use_knot_distance="true"
       apply_no_radius="true"
       apply_with_radius="true"
       only_selected="true"
       hide_knots="false" />
    <inkscape:path-effect
       effect="fillet_chamfer"
       id="path-effect20463"
       is_visible="true"
       lpeversion="1"
       satellites_param="F,0,1,1,0,2.056932,0,1 @ F,0,1,1,0,2.056932,0,1 @ F,0,0,1,0,0,0,1 @ F,0,0,1,0,0,0,1 @ F,0,0,1,0,0,0,1 @ F,0,0,1,0,0,0,1"
       unit="px"
       method="auto"
       mode="F"
       radius="4"
       chamfer_steps="1"
       flexible="false"
       use_knot_distance="true"
       apply_no_radius="true"
       apply_with_radius="true"
       only_selected="true"
       hide_knots="false" />
    <filter
       style="color-interpolation-filters:sRGB;"
       inkscape:label="Drop Shadow"
       id="filter23308"
       x="0"
       y="0"
       width="1.1552306"
       height="1.1996731">
      <feFlood
         flood-opacity="0.121569"
         flood-color="rgb(0,0,0)"
         result="flood"
         id="feFlood23298" />
      <feComposite
         in="flood"
         in2="SourceGraphic"
         operator="in"
         result="composite1"
         id="feComposite23300" />
      <feGaussianBlur
         in="composite1"
         stdDeviation="0"
         result="blur"
         id="feGaussianBlur23302" />
      <feOffset
         dx="2.3"
         dy="2.8"
         result="offset"
         id="feOffset23304" />
      <feComposite
         in="SourceGraphic"
         in2="offset"
         operator="over"
         result="composite2"
         id="feComposite23306" />
    </filter>
    <filter
       style="color-interpolation-filters:sRGB;"
       inkscape:label="Drop Shadow"
       id="filter23320"
       x="0"
       y="0"
       width="1.3429659"
       height="2.1683428">
      <feFlood
         flood-opacity="0.121569"
         flood-color="rgb(0,0,0)"
         result="flood"
         id="feFlood23310" />
      <feComposite
         in="flood"
         in2="SourceGraphic"
         operator="in"
         result="composite1"
         id="feComposite23312" />
      <feGaussianBlur
         in="composite1"
         stdDeviation="0"
         result="blur"
         id="feGaussianBlur23314" />
      <feOffset
         dx="2.3"
         dy="2.8"
         result="offset"
         id="feOffset23316" />
      <feComposite
         in="SourceGraphic"
         in2="offset"
         operator="over"
         result="composite2"
         id="feComposite23318" />
    </filter>
    <filter
       style="color-interpolation-filters:sRGB;"
       inkscape:label="Drop Shadow"
       id="filter23332"
       x="0"
       y="0"
       width="1.1552306"
       height="1.2073553">
      <feFlood
         flood-opacity="0.121569"
         flood-color="rgb(0,0,0)"
         result="flood"
         id="feFlood23322" />
      <feComposite
         in="flood"
         in2="SourceGraphic"
         operator="in"
         result="composite1"
         id="feComposite23324" />
      <feGaussianBlur
         in="composite1"
         stdDeviation="0"
         result="blur"
         id="feGaussianBlur23326" />
      <feOffset
         dx="2.3"
         dy="2.8"
         result="offset"
         id="feOffset23328" />
      <feComposite
         in="SourceGraphic"
         in2="offset"
         operator="over"
         result="composite2"
         id="feComposite23330" />
    </filter>
    <filter
       style="color-interpolation-filters:sRGB;"
       inkscape:label="Drop Shadow"
       id="filter23344"
       x="0"
       y="0"
       width="2.0866141"
       height="1.2645669">
      <feFlood
         flood-opacity="0.121569"
         flood-color="rgb(0,0,0)"
         result="flood"
         id="feFlood23334" />
      <feComposite
         in="flood"
         in2="SourceGraphic"
         operator="in"
         result="composite1"
         id="feComposite23336" />
      <feGaussianBlur
         in="composite1"
         stdDeviation="0"
         result="blur"
         id="feGaussianBlur23338" />
      <feOffset
         dx="2.3"
         dy="2.8"
         result="offset"
         id="feOffset23340" />
      <feComposite
         in="SourceGraphic"
         in2="offset"
         operator="over"
         result="composite2"
         id="feComposite23342" />
    </filter>
    <filter
       style="color-interpolation-filters:sRGB;"
       inkscape:label="Drop Shadow"
       id="filter23356"
       x="0"
       y="0"
       width="1.2692868"
       height="1.3088247">
      <feFlood
         flood-opacity="0.121569"
         flood-color="rgb(0,0,0)"
         result="flood"
         id="feFlood23346" />
      <feComposite
         in="flood"
         in2="SourceGraphic"
         operator="in"
         result="composite1"
         id="feComposite23348" />
      <feGaussianBlur
         in="composite1"
         stdDeviation="0"
         result="blur"
         id="feGaussianBlur23350" />
      <feOffset
         dx="2.3"
         dy="2.8"
         result="offset"
         id="feOffset23352" />
      <feComposite
         in="SourceGraphic"
         in2="offset"
         operator="over"
         result="composite2"
         id="feComposite23354" />
    </filter>
    <filter
       style="color-interpolation-filters:sRGB;"
       inkscape:label="Drop Shadow"
       id="filter23368"
       x="0"
       y="0"
       width="1.0638772"
       height="1.0755906">
      <feFlood
         flood-opacity="0.121569"
         flood-color="rgb(0,0,0)"
         result="flood"
         id="feFlood23358" />
      <feComposite
         in="flood"
         in2="SourceGraphic"
         operator="in"
         result="composite1"
         id="feComposite23360" />
      <feGaussianBlur
         in="composite1"
         stdDeviation="0"
         result="blur"
         id="feGaussianBlur23362" />
      <feOffset
         dx="2.3"
         dy="2.8"
         result="offset"
         id="feOffset23364" />
      <feComposite
         in="SourceGraphic"
         in2="offset"
         operator="over"
         result="composite2"
         id="feComposite23366" />
    </filter>
    <filter
       style="color-interpolation-filters:sRGB;"
       inkscape:label="Drop Shadow"
       id="filter23380"
       x="0"
       y="0"
       width="1.3203398"
       height="1.8894697">
      <feFlood
         flood-opacity="0.121569"
         flood-color="rgb(0,0,0)"
         result="flood"
         id="feFlood23370" />
      <feComposite
         in="flood"
         in2="SourceGraphic"
         operator="in"
         result="composite1"
         id="feComposite23372" />
      <feGaussianBlur
         in="composite1"
         stdDeviation="0"
         result="blur"
         id="feGaussianBlur23374" />
      <feOffset
         dx="2.3"
         dy="2.8"
         result="offset"
         id="feOffset23376" />
      <feComposite
         in="SourceGraphic"
         in2="offset"
         operator="over"
         result="composite2"
         id="feComposite23378" />
    </filter>
  </defs>
  <g
     inkscape:label="Layer 1"
     inkscape:groupmode="layer"
     id="layer1">
    <path
       id="rect4106-9-9-3-6"
       style="fill:#ff0000;fill-opacity:1;stroke:none;stroke-width:3.175;stroke-linejoin:round;stroke-opacity:1;paint-order:stroke fill markers;filter:url(#filter23320)"
       d="m 28.150731,1.5875007 h -5.48709 l -0.616866,2.396557 h 6.706206 z"
       sodipodi:nodetypes="ccccc" />
    <path
       id="rect4106-8"
       style="fill:#ff0000;fill-opacity:1;stroke:none;stroke-width:3.175;stroke-linejoin:round;stroke-opacity:1;paint-order:stroke fill markers;filter:url(#filter23380)"
       d="m 22.86832,45.466742 h 5.06321 l 1.058333,3.147943 h -7.179876 z"
       sodipodi:nodetypes="ccccc" />
    <path
       id="rect4106"
       style="fill:#797b85;fill-opacity:1;stroke:#64666e;stroke-width:3.175;stroke-linejoin:round;stroke-opacity:1;paint-order:stroke fill markers"
       d="m 22.86832,45.466742 h 5.06321 l 1.058333,3.147943 h -7.179876 z"
       sodipodi:nodetypes="ccccc" />
    <path
       id="rect2531-5"
       style="fill:#ff0000;fill-opacity:1;stroke:none;stroke-width:3.175;stroke-linecap:round;stroke-linejoin:round;paint-order:markers stroke fill;filter:url(#filter23368)"
       d="m 13.777712,6.9453127 a 3.8357152,3.8357152 0 0 0 -0.253732,0.0217 2.4142171,2.4142171 0 0 0 -1.542541,0.68523 l -3.8778,3.8778003 a 2.4142101,2.4142101 0 0 0 -0.706934,1.706872 v 24.458456 a 2.4142171,2.4142171 0 0 0 0.706934,1.706874 l 3.8778,3.877797 a 2.4142101,2.4142101 0 0 0 1.542541,0.685232 3.8357012,3.8357012 0 0 0 0.253732,0.0217 h 23.244575 a 3.8357012,3.8357012 0 0 0 0.252698,-0.0217 2.4142101,2.4142101 0 0 0 1.543577,-0.685232 l 3.877281,-3.877797 a 2.4142171,2.4142171 0 0 0 0.707451,-1.706874 V 13.236918 A 2.41421,2.41421 0 0 0 42.695843,11.530046 L 38.818562,7.6522457 a 2.4142172,2.4142172 0 0 0 -1.543577,-0.685229 3.8357152,3.8357152 0 0 0 -0.252698,-0.0217 z" />
    <path
       id="rect2531"
       style="fill:#80b3ff;fill-opacity:1;stroke:#535d6c;stroke-width:3.175;stroke-linecap:round;stroke-linejoin:round;paint-order:markers stroke fill"
       d="M 13.777712,6.9453127 A 3.8357152,3.8357152 0 0 0 13.52398,6.9670164 2.4142171,2.4142171 0 0 0 11.981439,7.652246 l -3.8778,3.8778 a 2.4142101,2.4142101 0 0 0 -0.7069336,1.706872 v 24.458456 a 2.4142171,2.4142171 0 0 0 0.7069336,1.706874 l 3.8778,3.877797 a 2.4142101,2.4142101 0 0 0 1.542541,0.685232 3.8357012,3.8357012 0 0 0 0.253732,0.0217 h 23.244575 a 3.8357012,3.8357012 0 0 0 0.252698,-0.0217 2.4142101,2.4142101 0 0 0 1.543577,-0.685232 l 3.877281,-3.877797 a 2.4142171,2.4142171 0 0 0 0.707451,-1.706874 V 13.236918 A 2.41421,2.41421 0 0 0 42.695843,11.530046 L 38.818562,7.6522463 A 2.4142172,2.4142172 0 0 0 37.274985,6.9670167 3.8357152,3.8357152 0 0 0 37.022287,6.9453127 Z" />
    <path
       id="rect1491-3-8-3"
       style="fill:#ff0000;fill-opacity:1;stroke:none;stroke-width:3.175;stroke-linejoin:round;stroke-opacity:1;paint-order:stroke fill markers;filter:url(#filter23356)"
       d="m 21.129338,39.665292 4.27054,-4.744932 4.270539,4.744932 h -3.212206 v 4.321699 h -2.116666 v -4.321699 z"
       sodipodi:nodetypes="cccccccc" />
    <rect
       style="fill:#ff0000;fill-opacity:1;stroke:none;stroke-width:3.175;stroke-linecap:round;stroke-linejoin:round;stroke-opacity:1;paint-order:markers stroke fill;filter:url(#filter23344)"
       id="rect13039-8"
       width="2.1166668"
       height="10.583333"
       x="24.341543"
       y="18.33469" />
    <rect
       style="fill:#8e919b;fill-opacity:1;stroke:#535d6c;stroke-width:3.175;stroke-linecap:round;stroke-linejoin:round;stroke-opacity:1;paint-order:markers stroke fill"
       id="rect13039"
       width="2.1166668"
       height="10.583333"
       x="24.341541"
       y="18.33469" />
    <path
       id="rect1491-3-8"
       style="fill:#8e919b;fill-opacity:1;stroke:#535d6c;stroke-width:3.175;stroke-linejoin:round;stroke-opacity:1;paint-order:stroke fill markers"
       d="m 21.129338,39.665292 4.27054,-4.744932 4.270539,4.744932 h -3.212206 v 4.321699 h -2.116666 v -4.321699 z"
       sodipodi:nodetypes="cccccccc" />
    <path
       id="rect10216-9"
       style="fill:#ff0000;stroke:none;stroke-width:3.175;stroke-linecap:round;stroke-linejoin:round;stroke-opacity:1;paint-order:markers stroke fill;filter:url(#filter23332)"
       d="m 22.404834,23.224829 c -0.08526,0.0023 -0.171293,0.02551 -0.250631,0.07131 l -0.91674,0.529167 c -0.253883,0.146579 -0.340366,0.468554 -0.193787,0.722436 l 2.523361,4.370276 h -5.046204 c -0.293158,0 -0.529167,0.236008 -0.529167,0.529167 v 1.058333 c 0,0.293159 0.236009,0.529167 0.529167,0.529167 h 5.046204 l -2.523361,4.370276 c -0.146579,0.253881 -0.0601,0.575858 0.193787,0.722437 l 0.91674,0.529167 c 0.253882,0.146579 0.575857,0.06061 0.722437,-0.19327 L 25.4,32.093018 l 2.522843,4.370277 c 0.146579,0.253881 0.469071,0.339849 0.722953,0.19327 l 0.91674,-0.529167 c 0.253883,-0.146579 0.33985,-0.468556 0.19327,-0.722437 l -2.52336,-4.370276 h 5.046721 c 0.293158,0 0.529166,-0.236008 0.529166,-0.529167 v -1.058333 c 0,-0.293159 -0.236008,-0.529167 -0.529166,-0.529167 h -5.046721 l 2.52336,-4.370276 c 0.14658,-0.253882 0.06061,-0.575857 -0.19327,-0.722436 l -0.91674,-0.529167 c -0.253882,-0.146579 -0.576374,-0.06061 -0.722953,0.19327 L 25.4,27.859685 22.87664,23.489409 c -0.100774,-0.174544 -0.284227,-0.26965 -0.471806,-0.264584 z" />
    <path
       id="rect10216"
       style="fill:#dee1ea;stroke:#535d6c;stroke-width:3.175;stroke-linecap:round;stroke-linejoin:round;stroke-opacity:1;paint-order:markers stroke fill"
       d="m 22.404834,23.224829 c -0.08526,0.0023 -0.171293,0.02551 -0.250631,0.07131 l -0.91674,0.529167 c -0.253883,0.146579 -0.340366,0.468554 -0.193787,0.722436 l 2.523361,4.370276 h -5.046204 c -0.293158,0 -0.529167,0.236008 -0.529167,0.529167 v 1.058333 c 0,0.293159 0.236009,0.529167 0.529167,0.529167 h 5.046204 l -2.523361,4.370276 c -0.146579,0.253881 -0.0601,0.575858 0.193787,0.722437 l 0.91674,0.529167 c 0.253882,0.146579 0.575857,0.06061 0.722437,-0.19327 L 25.4,32.093018 l 2.522843,4.370277 c 0.146579,0.253881 0.469071,0.339849 0.722953,0.19327 l 0.91674,-0.529167 c 0.253883,-0.146579 0.33985,-0.468556 0.19327,-0.722437 l -2.52336,-4.370276 h 5.046721 c 0.293158,0 0.529166,-0.236008 0.529166,-0.529167 v -1.058333 c 0,-0.293159 -0.236008,-0.529167 -0.529166,-0.529167 h -5.046721 l 2.52336,-4.370276 c 0.14658,-0.253882 0.06061,-0.575857 -0.19327,-0.722436 l -0.91674,-0.529167 c -0.253882,-0.146579 -0.576374,-0.06061 -0.722953,0.19327 L 25.4,27.859685 22.87664,23.489409 c -0.100774,-0.174544 -0.284227,-0.26965 -0.471806,-0.264584 z" />
    <path
       id="rect4106-9-9-3"
       style="fill:#797b85;fill-opacity:1;stroke:#64666e;stroke-width:3.175;stroke-linejoin:round;stroke-opacity:1;paint-order:stroke fill markers"
       d="m 28.150731,1.5875012 h -5.48709 l -0.616866,2.396557 h 6.706206 z"
       sodipodi:nodetypes="ccccc" />
    <path
       id="rect8497-8-0-9"
       style="fill:#ff0000;stroke:none;stroke-width:3.175;stroke-linejoin:round;paint-order:stroke fill markers;filter:url(#filter23308)"
       d="M 17.991542,6.8204257 V 18.343343 c 0,0.6925 0.5575,1.25 1.25,1.25 h 12.316667 c 0.6925,0 1.25,-0.5575 1.25,-1.25 V 6.8204257 c 0,-0.6925 -0.5575,-1.25 -1.25,-1.25 H 19.241542 c -0.6925,0 -1.25,0.5575 -1.25,1.25 z" />
    <path
       id="rect8497-8-0"
       style="fill:#dee1ea;stroke:#64666e;stroke-width:3.175;stroke-linejoin:round;paint-order:stroke fill markers"
       d="M 17.991542,6.8204258 V 18.343343 c 0,0.6925 0.5575,1.25 1.25,1.25 h 12.316667 c 0.6925,0 1.25,-0.5575 1.25,-1.25 V 6.8204258 c 0,-0.6925 -0.5575,-1.25 -1.25,-1.25 H 19.241542 c -0.6925,0 -1.25,0.5575 -1.25,1.25 z" />
  </g>
</svg>
