<?xml version="1.0" encoding="UTF-8" standalone="no"?>
<!-- Created with Inkscape (http://www.inkscape.org/) -->

<svg
   width="192"
   height="192"
   viewBox="0 0 50.799999 50.800001"
   version="1.1"
   id="svg5"
   inkscape:version="1.1.1 (3bf5ae0d25, 2021-09-20)"
   sodipodi:docname="waffledevs_1x1painter.svg"
   inkscape:export-filename="E:\shapez\waffledevs_1x1painter.png"
   inkscape:export-xdpi="96"
   inkscape:export-ydpi="96"
   xmlns:inkscape="http://www.inkscape.org/namespaces/inkscape"
   xmlns:sodipodi="http://sodipodi.sourceforge.net/DTD/sodipodi-0.dtd"
   xmlns="http://www.w3.org/2000/svg"
   xmlns:svg="http://www.w3.org/2000/svg">
  <sodipodi:namedview
     id="namedview7"
     pagecolor="#505050"
     bordercolor="#eeeeee"
     borderopacity="1"
     inkscape:pageshadow="0"
     inkscape:pageopacity="0"
     inkscape:pagecheckerboard="0"
     inkscape:document-units="px"
     showgrid="false"
     units="px"
     width="192px"
     inkscape:zoom="2.262702"
     inkscape:cx="60.768055"
     inkscape:cy="43.973975"
     inkscape:window-width="1920"
     inkscape:window-height="1057"
     inkscape:window-x="1072"
     inkscape:window-y="375"
     inkscape:window-maximized="1"
     inkscape:current-layer="layer1" />
  <defs
     id="defs2">
    <inkscape:path-effect
       effect="fillet_chamfer"
       id="path-effect72085"
       is_visible="true"
       lpeversion="1"
       satellites_param="F,0,0,1,0,0,0,1 @ F,0,1,1,0,0,0,1 @ F,0,0,1,0,4,0,2 @ F,0,0,1,0,5,0,2 @ F,0,0,1,0,0,0,1 @ F,0,0,1,0,0,0,1 @ F,0,0,1,0,3,0,2"
       unit="px"
       method="auto"
       mode="F"
       radius="0"
       chamfer_steps="1"
       flexible="false"
       use_knot_distance="true"
       apply_no_radius="true"
       apply_with_radius="true"
       only_selected="true"
       hide_knots="false" />
    <inkscape:path-effect
       effect="fillet_chamfer"
       id="path-effect61543"
       is_visible="true"
       lpeversion="1"
       satellites_param="F,0,0,1,0,0,0,1 @ F,0,1,1,0,0,0,1 @ F,0,0,1,0,4,0,2 @ F,0,0,1,0,5,0,2 @ F,0,0,1,0,0,0,1 @ F,0,0,1,0,0,0,1 @ F,0,0,1,0,3,0,2"
       unit="px"
       method="auto"
       mode="F"
       radius="0"
       chamfer_steps="1"
       flexible="false"
       use_knot_distance="true"
       apply_no_radius="true"
       apply_with_radius="true"
       only_selected="true"
       hide_knots="false" />
    <inkscape:path-effect
       effect="fillet_chamfer"
       id="path-effect56865"
       is_visible="true"
       lpeversion="1"
       satellites_param="F,0,0,1,0,6,0,1 @ F,0,0,1,0,6,0,1 @ F,0,0,1,0,6,0,1"
       unit="px"
       method="auto"
       mode="F"
       radius="6"
       chamfer_steps="1"
       flexible="false"
       use_knot_distance="true"
       apply_no_radius="true"
       apply_with_radius="true"
       only_selected="false"
       hide_knots="false" />
    <filter
       style="color-interpolation-filters:sRGB;"
       inkscape:label="Invert"
       id="filter4446"
       x="0"
       y="0"
       width="1"
       height="1">
      <feColorMatrix
         values="-1 0 0 0 1 0 -1 0 0 1 0 0 -1 0 1 -0.21 -0.72 -0.07 2 0 "
         result="color2"
         id="feColorMatrix4444" />
    </filter>
    <clipPath
       clipPathUnits="userSpaceOnUse"
       id="clipPath56643">
      <rect
         style="fill:#ff00ff;fill-opacity:1;stroke:none;stroke-width:3.175;stroke-linejoin:round;stroke-miterlimit:4;stroke-dasharray:none;stroke-opacity:1;paint-order:stroke fill markers"
         id="rect56645"
         width="25.4"
         height="50.799999"
         x="29.375698"
         y="63.936409" />
    </clipPath>
    <clipPath
       clipPathUnits="userSpaceOnUse"
       id="clipPath56647">
      <rect
         style="fill:#ff00ff;fill-opacity:1;stroke:none;stroke-width:3.175;stroke-linejoin:round;stroke-miterlimit:4;stroke-dasharray:none;stroke-opacity:1;paint-order:stroke fill markers"
         id="rect56649"
         width="25.4"
         height="50.799999"
         x="-115.34673"
         y="20.203663" />
    </clipPath>
    <filter
       style="color-interpolation-filters:sRGB;"
       inkscape:label="Drop Shadow"
       id="filter74788"
       x="0"
       y="0"
       width="1.0509554"
       height="1.0636605">
      <feFlood
         flood-opacity="0.121569"
         flood-color="rgb(0,0,0)"
         result="flood"
         id="feFlood74778" />
      <feComposite
         in="flood"
         in2="SourceGraphic"
         operator="in"
         result="composite1"
         id="feComposite74780" />
      <feGaussianBlur
         in="composite1"
         stdDeviation="0"
         result="blur"
         id="feGaussianBlur74782" />
      <feOffset
         dx="2.2"
         dy="2.7"
         result="offset"
         id="feOffset74784" />
      <feComposite
         in="SourceGraphic"
         in2="offset"
         operator="over"
         result="composite2"
         id="feComposite74786" />
    </filter>
    <filter
       style="color-interpolation-filters:sRGB;"
       inkscape:label="Drop Shadow"
       id="filter74800"
       x="0"
       y="0"
       width="1.057503"
       height="1.1019038">
      <feFlood
         flood-opacity="0.121569"
         flood-color="rgb(0,0,0)"
         result="flood"
         id="feFlood74790" />
      <feComposite
         in="flood"
         in2="SourceGraphic"
         operator="in"
         result="composite1"
         id="feComposite74792" />
      <feGaussianBlur
         in="composite1"
         stdDeviation="0"
         result="blur"
         id="feGaussianBlur74794" />
      <feOffset
         dx="2.2"
         dy="2.7"
         result="offset"
         id="feOffset74796" />
      <feComposite
         in="SourceGraphic"
         in2="offset"
         operator="over"
         result="composite2"
         id="feComposite74798" />
    </filter>
    <filter
       style="color-interpolation-filters:sRGB;"
       inkscape:label="Drop Shadow"
       id="filter74812"
       x="0"
       y="0"
       width="1.1087589"
       height="1.1517938">
      <feFlood
         flood-opacity="0.121569"
         flood-color="rgb(0,0,0)"
         result="flood"
         id="feFlood74802" />
      <feComposite
         in="flood"
         in2="SourceGraphic"
         operator="in"
         result="composite1"
         id="feComposite74804" />
      <feGaussianBlur
         in="composite1"
         stdDeviation="0"
         result="blur"
         id="feGaussianBlur74806" />
      <feOffset
         dx="1.3999999999999999"
         dy="2.2000000000000002"
         result="offset"
         id="feOffset74808" />
      <feComposite
         in="SourceGraphic"
         in2="offset"
         operator="over"
         result="composite2"
         id="feComposite74810" />
    </filter>
    <filter
       style="color-interpolation-filters:sRGB;"
       inkscape:label="Drop Shadow"
       id="filter74824"
       x="0"
       y="0"
       width="1.1523442"
       height="1.195006">
      <feFlood
         flood-opacity="0.121569"
         flood-color="rgb(0,0,0)"
         result="flood"
         id="feFlood74814" />
      <feComposite
         in="flood"
         in2="SourceGraphic"
         operator="in"
         result="composite1"
         id="feComposite74816" />
      <feGaussianBlur
         in="composite1"
         stdDeviation="0"
         result="blur"
         id="feGaussianBlur74818" />
      <feOffset
         dx="2.2"
         dy="2.7"
         result="offset"
         id="feOffset74820" />
      <feComposite
         in="SourceGraphic"
         in2="offset"
         operator="over"
         result="composite2"
         id="feComposite74822" />
    </filter>
    <filter
       style="color-interpolation-filters:sRGB;"
       inkscape:label="Drop Shadow"
       id="filter74836"
       x="0"
       y="0"
       width="1.1290768"
       height="1.2479534">
      <feFlood
         flood-opacity="0.121569"
         flood-color="rgb(0,0,0)"
         result="flood"
         id="feFlood74826" />
      <feComposite
         in="flood"
         in2="SourceGraphic"
         operator="in"
         result="composite1"
         id="feComposite74828" />
      <feGaussianBlur
         in="composite1"
         stdDeviation="0"
         result="blur"
         id="feGaussianBlur74830" />
      <feOffset
         dx="2.2"
         dy="2.7"
         result="offset"
         id="feOffset74832" />
      <feComposite
         in="SourceGraphic"
         in2="offset"
         operator="over"
         result="composite2"
         id="feComposite74834" />
    </filter>
    <filter
       style="color-interpolation-filters:sRGB;"
       inkscape:label="Drop Shadow"
       id="filter74848"
       x="0"
       y="0"
       width="1.6394169"
       height="1.3157553">
      <feFlood
         flood-opacity="0.121569"
         flood-color="rgb(0,0,0)"
         result="flood"
         id="feFlood74838" />
      <feComposite
         in="flood"
         in2="SourceGraphic"
         operator="in"
         result="composite1"
         id="feComposite74840" />
      <feGaussianBlur
         in="composite1"
         stdDeviation="0"
         result="blur"
         id="feGaussianBlur74842" />
      <feOffset
         dx="2.2"
         dy="2.7"
         result="offset"
         id="feOffset74844" />
      <feComposite
         in="SourceGraphic"
         in2="offset"
         operator="over"
         result="composite2"
         id="feComposite74846" />
    </filter>
  </defs>
  <g
     inkscape:label="Layer 1"
     inkscape:groupmode="layer"
     id="layer1">
    <path
       style="fill:#ff0000;fill-opacity:1;stroke:none;stroke-width:3.175;stroke-linecap:butt;stroke-linejoin:round;stroke-miterlimit:4;stroke-dasharray:none;stroke-opacity:1;paint-order:stroke fill markers;filter:url(#filter74788)"
       d="m 3.660302,8.0000631 6.027715,-5.5 h 33.147285 a 4,4 45 0 1 4,4 V 39.000063 a 3.8292861,3.8292861 142.55304 0 1 -4.827225,3.696965 L 34.085302,40.558397 18.422802,44.912563 6.5937456,42.378481 A 3.7107422,3.7107422 51.045722 0 1 3.660302,38.750063 Z"
       id="path60150-7"
       sodipodi:nodetypes="cccccccc"
       inkscape:path-effect="#path-effect72085"
       inkscape:original-d="m 3.660302,8.0000631 6.027715,-5.5 H 46.835302 V 44.000063 l -12.75,-3.441666 -15.6625,4.354166 -14.7625,-3.1625 z" />
    <path
       style="fill:#dee1ea;fill-opacity:1;stroke:#64666e;stroke-width:3.175;stroke-linecap:butt;stroke-linejoin:round;stroke-miterlimit:4;stroke-dasharray:none;stroke-opacity:1;paint-order:stroke fill markers"
       d="M 3.6625,8 9.690215,2.5 H 42.8375 a 4,4 45 0 1 4,4 V 39 a 3.8292861,3.8292861 142.55304 0 1 -4.827225,3.696965 L 34.0875,40.558334 18.425,44.9125 6.5959436,42.378418 A 3.7107422,3.7107422 51.045722 0 1 3.6625,38.75 Z"
       id="path60150"
       sodipodi:nodetypes="cccccccc"
       inkscape:path-effect="#path-effect61543"
       inkscape:original-d="M 3.6625,8 9.690215,2.5 H 46.8375 V 44 L 34.0875,40.558334 18.425,44.9125 3.6625,41.75 Z" />
    <path
       id="path56681-0"
       style="fill:#ff0000;fill-opacity:1;stroke:none;stroke-width:3.175;stroke-linejoin:round;stroke-miterlimit:4;stroke-dasharray:none;stroke-opacity:1;paint-order:stroke fill markers;filter:url(#filter74800)"
       inkscape:transform-center-x="-1.7445952"
       d="M 24.47176,5.4002501 V 24.339145 H 10.864839 v 1.852084 h 28.591537 v 4.732527 a 0.80030695,0.97229095 0 0 0 1.200444,0.841809 l 8.06669,-5.658052 a 0.80030695,0.97229095 0 0 0 0,-1.684135 l -8.06669,-5.658052 a 0.80030695,0.97229095 0 0 0 -1.200444,0.841809 v 4.73201 H 26.323843 V 5.4002501 Z" />
    <path
       id="rect51246-3"
       style="fill:#ff0000;fill-opacity:1;stroke:none;stroke-width:3.17499;stroke-linejoin:round;stroke-miterlimit:4;stroke-dasharray:none;stroke-opacity:1;paint-order:stroke fill markers;filter:url(#filter74836)"
       d="m 19.625045,19.656209 c -0.317685,0 -0.573439,0.257104 -0.573439,0.576466 v 1.721144 c -1.348691,0.260667 -2.324098,1.446149 -2.325864,2.826789 0,1.59187 1.283688,2.882335 2.867196,2.882335 h 0.621226 5.549213 v 2.882334 h 1.242451 v -2.882334 -0.624506 c 0,-0.01081 -1.91e-4,-0.02123 -7.64e-4,-0.0319 -5.74e-4,-0.01067 -0.0015,-0.02138 -0.0026,-0.0319 -0.0011,-0.01052 -0.0022,-0.02117 -0.0037,-0.03153 -0.0015,-0.01036 -0.0035,-0.02059 -0.0056,-0.03077 -0.0021,-0.01018 -0.0042,-0.02003 -0.0067,-0.03002 -0.0025,-0.01 -0.0056,-0.01986 -0.0086,-0.02965 -0.003,-0.0098 -0.0062,-0.0197 -0.0097,-0.02927 -0.0035,-0.0096 -0.0073,-0.0188 -0.0112,-0.02815 -0.0039,-0.0094 -0.008,-0.01867 -0.01231,-0.02777 -0.0044,-0.0091 -0.0087,-0.01817 -0.01344,-0.02702 -0.0048,-0.0088 -0.0097,-0.01769 -0.01493,-0.02627 -0.0052,-0.0086 -0.01086,-0.01684 -0.01642,-0.02515 -0.0056,-0.0083 -0.01122,-0.01638 -0.01718,-0.02439 -0.0059,-0.008 -0.01197,-0.01594 -0.01829,-0.02364 -0.0063,-0.0077 -0.01273,-0.01551 -0.01941,-0.02289 -0.0067,-0.0074 -0.01351,-0.01434 -0.02053,-0.02139 -0.007,-0.0071 -0.0143,-0.01393 -0.02165,-0.02064 -0.0073,-0.0067 -0.0151,-0.01354 -0.02277,-0.01989 -0.0077,-0.0064 -0.01518,-0.01241 -0.02315,-0.01839 -0.008,-0.006 -0.01638,-0.01166 -0.02464,-0.01726 -0.0083,-0.0056 -0.01648,-0.01093 -0.02501,-0.01614 -0.0085,-0.0052 -0.01734,-0.01022 -0.02613,-0.01501 -0.0088,-0.0048 -0.01745,-0.0095 -0.02651,-0.01389 -0.0091,-0.0044 -0.01833,-0.0084 -0.02763,-0.01239 -0.0093,-0.0039 -0.01885,-0.0078 -0.02837,-0.01126 -0.0095,-0.0035 -0.019,-0.0067 -0.02875,-0.0098 -0.0097,-0.003 -0.01955,-0.0057 -0.02949,-0.0083 -0.0099,-0.0026 -0.02011,-0.0051 -0.03024,-0.0071 -0.01013,-0.0021 -0.02031,-0.0037 -0.03061,-0.0053 -0.0103,-0.0016 -0.0209,-0.0031 -0.03136,-0.0041 -0.01047,-0.0011 -0.02074,-0.0017 -0.03136,-0.0023 -0.01061,-5.38e-4 -0.02135,-0.0011 -0.03211,-0.0011 H 20.21415 19.592925 c -0.897322,0 -1.624745,-0.731264 -1.624745,-1.633323 0.0046,-0.688226 0.437898,-1.299695 1.083412,-1.528988 v 1.59279 c 0,0.319362 0.255754,0.576467 0.573439,0.576467 h 13.571394 c 0.317685,0 0.573439,-0.257105 0.573439,-0.576467 v -4.611738 c 0,-0.319362 -0.255754,-0.576466 -0.573439,-0.576466 z"
       sodipodi:nodetypes="ssccscccccsssssssssssssssscsssssssssssssssscsccsssssss" />
    <path
       id="path56681"
       style="fill:#91949e;fill-opacity:1;stroke:#64666e;stroke-width:12;stroke-linejoin:round;stroke-miterlimit:4;stroke-dasharray:none;stroke-opacity:1;paint-order:stroke fill markers"
       inkscape:transform-center-x="-1.7445952"
       d="M 92.5 20.410156 L 92.5 91.990234 L 41.072266 91.990234 L 41.072266 98.990234 L 149.13477 98.990234 L 149.13477 116.87695 A 3.0247822 3.6748005 0 0 0 153.67188 120.05859 L 184.16016 98.673828 A 3.0247822 3.6748005 0 0 0 184.16016 92.308594 L 153.67188 70.923828 A 3.0247822 3.6748005 0 0 0 149.13477 74.105469 L 149.13477 91.990234 L 99.5 91.990234 L 99.5 20.410156 L 92.5 20.410156 z "
       transform="scale(0.26458333)" />
    <path
       id="path1207-6"
       style="fill:#ff0000;stroke:none;stroke-width:1.5875;stroke-linejoin:round;filter:url(#filter74812)"
       d="m 7.227804,18.153392 6.436252,3.080313 -1e-6,8.332718 -6.436251,3.080311 -6.436252,-3.080311 v -8.332718 z"
       sodipodi:nodetypes="ccccccc" />
    <path
       id="path1207"
       style="fill:#ffffff;stroke:#64666e;stroke-width:1.5875;stroke-linejoin:round;fill-opacity:1"
       d="m 7.230002,18.153329 6.436252,3.080313 -1e-6,8.332718 -6.4362513,3.080311 -6.43625171,-3.080311 2e-7,-8.332718 z"
       sodipodi:nodetypes="ccccccc" />
    <rect
       style="fill:#ff0000;fill-opacity:1;stroke:none;stroke-width:3.175;stroke-linejoin:round;stroke-miterlimit:4;stroke-dasharray:none;stroke-opacity:1;paint-order:stroke fill markers;filter:url(#filter74848)"
       id="rect55754-9"
       width="3.4406347"
       height="8.5509243"
       x="24.664278"
       y="30.484707"
       rx="0.85989588"
       ry="0.85989577" />
    <g
       id="g56126"
       transform="matrix(0.72244304,0,0,0.72625744,-11.005459,10.673246)"
       style="stroke-width:1.38055">
      <path
         id="rect51246"
         style="fill:#91949e;fill-opacity:1;stroke:#64666e;stroke-width:16.5666;stroke-linejoin:round;stroke-miterlimit:4;stroke-dasharray:none;stroke-opacity:1;paint-order:stroke fill markers"
         d="m 160.25781,46.748047 c -1.662,0 -3,1.338 -3,3 v 8.957031 c -7.0558,1.35654 -12.15873,7.525926 -12.16797,14.710938 0,8.284271 6.71573,15 15,15 h 3.25 29.03122 v 15.000004 h 6.5 v -15.000004 -3.25 c 0,-0.05627 -0.001,-0.110469 -0.004,-0.166016 -0.003,-0.05555 -0.008,-0.111255 -0.0137,-0.166016 -0.006,-0.05476 -0.0113,-0.110155 -0.0195,-0.164062 -0.008,-0.05391 -0.0185,-0.107169 -0.0293,-0.160156 -0.0108,-0.05299 -0.0218,-0.104251 -0.0352,-0.15625 -0.0133,-0.052 -0.0291,-0.103352 -0.0449,-0.154297 -0.0158,-0.05095 -0.0326,-0.10252 -0.0508,-0.152344 -0.0182,-0.04982 -0.0381,-0.09785 -0.0586,-0.146484 -0.0205,-0.04864 -0.0417,-0.09715 -0.0644,-0.144532 -0.0228,-0.04738 -0.0453,-0.09457 -0.0703,-0.140625 -0.025,-0.04606 -0.051,-0.09205 -0.0781,-0.136718 -0.0271,-0.04467 -0.0568,-0.08765 -0.0859,-0.13086 -0.0292,-0.04321 -0.0587,-0.08527 -0.0899,-0.126953 -0.0311,-0.04169 -0.0626,-0.08295 -0.0957,-0.123047 -0.0331,-0.0401 -0.0666,-0.0807 -0.10156,-0.11914 -0.0349,-0.03844 -0.0707,-0.07462 -0.10743,-0.111328 -0.0367,-0.03672 -0.0748,-0.0725 -0.11328,-0.107422 -0.0384,-0.03492 -0.079,-0.07045 -0.11914,-0.103516 -0.0401,-0.03306 -0.0794,-0.06457 -0.12109,-0.0957 -0.0417,-0.03114 -0.0857,-0.0607 -0.12891,-0.08984 -0.0432,-0.02914 -0.0862,-0.0569 -0.13086,-0.08398 -0.0447,-0.02708 -0.0907,-0.05317 -0.13672,-0.07813 -0.046,-0.02496 -0.0913,-0.0495 -0.13867,-0.07227 -0.0474,-0.02276 -0.0959,-0.04395 -0.14453,-0.06445 -0.0486,-0.0205 -0.0986,-0.04042 -0.14844,-0.05859 -0.0498,-0.01817 -0.0994,-0.035 -0.15039,-0.05078 -0.0509,-0.01578 -0.10229,-0.02965 -0.15429,-0.04297 -0.052,-0.01332 -0.10522,-0.02632 -0.15821,-0.03711 -0.053,-0.01079 -0.10625,-0.01915 -0.16015,-0.02734 -0.0539,-0.0082 -0.10935,-0.01596 -0.16406,-0.02148 -0.0548,-0.0055 -0.10852,-0.0089 -0.16407,-0.01172 -0.0555,-0.0028 -0.1117,-0.0059 -0.16797,-0.0059 h -32.28122 -3.25 c -4.69442,0 -8.5,-3.80558 -8.5,-8.5 0.0242,-3.58161 2.2909,-6.763765 5.66797,-7.957032 v 8.289063 c 0,1.662 1.338,3 3,3 h 71 c 1.662,0 3,-1.338 3,-3 v -24 c 0,-1.662 -1.338,-3 -3,-3 z"
         transform="scale(0.26458333)"
         sodipodi:nodetypes="ssccscccccsssssssssssssssscsssssssssssssssscsccsssssss" />
      <rect
         style="fill:#91949e;fill-opacity:1;stroke:#64666e;stroke-width:4.38325;stroke-linejoin:round;stroke-miterlimit:4;stroke-dasharray:none;stroke-opacity:1;paint-order:stroke fill markers"
         id="rect55754"
         width="4.7624998"
         height="11.773958"
         x="49.37682"
         y="27.278753"
         rx="1.1902611"
         ry="1.1840096" />
    </g>
    <path
       id="path4970-6-4"
       style="fill:#ff0000;fill-opacity:1;stroke:none;stroke-width:3.175;stroke-linejoin:round;stroke-miterlimit:4;stroke-dasharray:none;stroke-opacity:1;filter:url(#filter74824)"
       d="m 23.175974,1.5875631 a 4.9988636,4.9988636 0 0 0 -4.998661,4.998661 4.9988636,4.9988636 0 0 0 2.233456,4.1620199 4.9988636,4.9988636 0 0 0 2.487703,4.015259 4.9988636,4.9988636 0 0 0 6.828525,-1.829346 4.9988636,4.9988636 0 0 0 0.659908,-2.186946 4.9988636,4.9988636 0 0 0 2.231387,-4.1609869 4.9988636,4.9988636 0 0 0 -4.998662,-4.998661 4.9988636,4.9988636 0 0 0 -2.220018,0.521932 4.9988636,4.9988636 0 0 0 -2.223638,-0.521932 z" />
    <g
       id="g48308"
       transform="translate(-52.281289,17.233582)">
      <path
         id="path4970-6"
         style="fill:#dee1ea;fill-opacity:1;stroke:#64666e;stroke-width:3.175;stroke-linejoin:round;stroke-miterlimit:4;stroke-dasharray:none;stroke-opacity:1"
         d="m 75.459461,-15.646082 a 4.9988636,4.9988636 0 0 0 -4.998661,4.998661 4.9988636,4.9988636 0 0 0 2.233456,4.1620201 4.9988636,4.9988636 0 0 0 2.487703,4.0152588 4.9988636,4.9988636 0 0 0 6.828525,-1.8293457 4.9988636,4.9988636 0 0 0 0.659908,-2.1869466 4.9988636,4.9988636 0 0 0 2.231387,-4.1609866 4.9988636,4.9988636 0 0 0 -4.998662,-4.998661 4.9988636,4.9988636 0 0 0 -2.220018,0.521932 4.9988636,4.9988636 0 0 0 -2.223638,-0.521932 z" />
      <path
         id="path21358"
         style="fill:#ffffff;fill-opacity:1;stroke:none;stroke-width:1.5875;stroke-linejoin:round;stroke-miterlimit:4;stroke-dasharray:none;stroke-opacity:1"
         d="m 77.676257,-6.1728226 a 4.9988636,4.9988636 0 0 0 0.105936,-0.047543 4.9988636,4.9988636 0 0 0 0.516247,-0.3126422 4.9988636,4.9988636 0 0 0 0.475425,-0.3720703 4.9988636,4.9988636 0 0 0 0.426847,-0.4268476 4.9988636,4.9988636 0 0 0 0.37207,-0.4749061 4.9988636,4.9988636 0 0 0 0.312642,-0.5167646 4.9988636,4.9988636 0 0 0 0.247528,-0.550354 4.9988636,4.9988636 0 0 0 0.179835,-0.5767088 4.9988636,4.9988636 0 0 0 0.108522,-0.5937628 4.9988636,4.9988636 0 0 0 0.03669,-0.602547 4.9988636,4.9988636 0 0 0 -0.0047,-0.206189 4.9988636,4.9988636 0 0 0 -0.0067,-0.108521 4.9988636,4.9988636 0 0 0 -0.04702,-0.03152 4.9988636,4.9988636 0 0 0 -0.109038,-0.06873 4.9988636,4.9988636 0 0 0 -0.110587,-0.06563 4.9988636,4.9988636 0 0 0 -0.330214,-0.174666 4.9988636,4.9988636 0 0 0 -0.342614,-0.149862 4.9988636,4.9988636 0 0 0 -0.352949,-0.123507 4.9988636,4.9988636 0 0 0 -0.36122,-0.09663 4.9988636,4.9988636 0 0 0 -0.367419,-0.06925 4.9988636,4.9988636 0 0 0 -0.371554,-0.04186 4.9988636,4.9988636 0 0 0 -0.373621,-0.01395 4.9988636,4.9988636 0 0 0 -0.373102,0.01395 4.9988636,4.9988636 0 0 0 -0.371554,0.04186 4.9988636,4.9988636 0 0 0 -0.367419,0.06925 4.9988636,4.9988636 0 0 0 -0.36122,0.09663 4.9988636,4.9988636 0 0 0 -0.352949,0.123507 4.9988636,4.9988636 0 0 0 -0.342614,0.149862 4.9988636,4.9988636 0 0 0 -0.330213,0.174666 4.9988636,4.9988636 0 0 0 -0.266134,0.166915 4.9988636,4.9988636 0 0 0 -0.01188,0.313676 4.9988636,4.9988636 0 0 0 2.772958,4.4741459 z" />
      <path
         id="path21361"
         style="fill:#fcf52a;fill-opacity:1;stroke:none;stroke-width:1.5875;stroke-linejoin:round;stroke-miterlimit:4;stroke-dasharray:none;stroke-opacity:1"
         d="m 80.44559,-10.96258 a 4.9988636,4.9988636 0 0 0 -0.01292,-0.175183 4.9988636,4.9988636 0 0 0 -0.02997,-0.243396 4.9988636,4.9988636 0 0 0 -0.04186,-0.241845 4.9988636,4.9988636 0 0 0 -0.05375,-0.239262 4.9988636,4.9988636 0 0 0 -0.06563,-0.236678 4.9988636,4.9988636 0 0 0 -0.077,-0.232544 4.9988636,4.9988636 0 0 0 -0.08837,-0.228927 4.9988636,4.9988636 0 0 0 -0.09922,-0.224276 4.9988636,4.9988636 0 0 0 -0.110588,-0.219625 4.9988636,4.9988636 0 0 0 -0.120922,-0.213423 4.9988636,4.9988636 0 0 0 -0.13126,-0.207223 4.9988636,4.9988636 0 0 0 -0.141076,-0.200504 4.9988636,4.9988636 0 0 0 -0.150894,-0.19327 4.9988636,4.9988636 0 0 0 -0.160198,-0.186035 4.9988636,4.9988636 0 0 0 -0.1695,-0.177767 4.9988636,4.9988636 0 0 0 -0.177765,-0.168982 4.9988636,4.9988636 0 0 0 -0.185518,-0.160197 4.9988636,4.9988636 0 0 0 -0.19327,-0.150895 4.9988636,4.9988636 0 0 0 -0.201023,-0.141594 4.9988636,4.9988636 0 0 0 -0.207221,-0.131258 4.9988636,4.9988636 0 0 0 -0.213424,-0.120923 4.9988636,4.9988636 0 0 0 -0.133842,-0.06718 4.9988636,4.9988636 0 0 0 -2.76624,4.16202 4.9988636,4.9988636 0 0 1 0.266134,-0.166915 4.9988636,4.9988636 0 0 1 0.330213,-0.174666 4.9988636,4.9988636 0 0 1 0.342614,-0.149862 4.9988636,4.9988636 0 0 1 0.352949,-0.123507 4.9988636,4.9988636 0 0 1 0.36122,-0.09663 4.9988636,4.9988636 0 0 1 0.367419,-0.06925 4.9988636,4.9988636 0 0 1 0.371554,-0.04186 4.9988636,4.9988636 0 0 1 0.373102,-0.01395 4.9988636,4.9988636 0 0 1 0.373621,0.01395 4.9988636,4.9988636 0 0 1 0.371555,0.04186 4.9988636,4.9988636 0 0 1 0.367419,0.06925 4.9988636,4.9988636 0 0 1 0.361219,0.09663 4.9988636,4.9988636 0 0 1 0.352949,0.123507 4.9988636,4.9988636 0 0 1 0.342614,0.149862 4.9988636,4.9988636 0 0 1 0.330214,0.174666 4.9988636,4.9988636 0 0 1 0.110588,0.06563 4.9988636,4.9988636 0 0 1 0.109037,0.06873 4.9988636,4.9988636 0 0 1 0.04702,0.03152 z" />
      <path
         id="path21361-0"
         style="fill:#dd66ff;fill-opacity:1;stroke:none;stroke-width:1.5875;stroke-linejoin:round;stroke-miterlimit:4;stroke-dasharray:none;stroke-opacity:1"
         d="m 77.682063,-6.1721141 a 4.9988636,4.9988636 0 0 0 0.158173,0.076403 4.9988636,4.9988636 0 0 0 0.225772,0.095743 4.9988636,4.9988636 0 0 0 0.230374,0.084671 4.9988636,4.9988636 0 0 0 0.234082,0.073082 4.9988636,4.9988636 0 0 0 0.237784,0.061502 4.9988636,4.9988636 0 0 0 0.239889,0.049588 4.9988636,4.9988636 0 0 0 0.242442,0.037933 4.9988636,4.9988636 0 0 0 0.243839,0.026211 4.9988636,4.9988636 0 0 0 0.245495,0.01404 4.9988636,4.9988636 0 0 0 0.24529,0.00199 4.9988636,4.9988636 0 0 0 0.245091,-0.010063 4.9988636,4.9988636 0 0 0 0.244179,-0.021923 4.9988636,4.9988636 0 0 0 0.242824,-0.034043 4.9988636,4.9988636 0 0 0 0.24121,-0.045718 4.9988636,4.9988636 0 0 0 0.238701,-0.057908 4.9988636,4.9988636 0 0 0 0.235225,-0.069458 4.9988636,4.9988636 0 0 0 0.231494,-0.080565 4.9988636,4.9988636 0 0 0 0.227313,-0.091929 4.9988636,4.9988636 0 0 0 0.223136,-0.103294 4.9988636,4.9988636 0 0 0 0.217283,-0.1138297 4.9988636,4.9988636 0 0 0 0.211435,-0.1243691 4.9988636,4.9988636 0 0 0 0.1251,-0.08232 4.9988636,4.9988636 0 0 0 -2.221295,-4.4766441 4.9988636,4.9988636 0 0 1 0.01149,0.313936 4.9988636,4.9988636 0 0 1 -0.01384,0.373306 4.9988636,4.9988636 0 0 1 -0.04152,0.3716439 4.9988636,4.9988636 0 0 1 -0.06951,0.367416 4.9988636,4.9988636 0 0 1 -0.09693,0.361141 4.9988636,4.9988636 0 0 1 -0.123738,0.352819 4.9988636,4.9988636 0 0 1 -0.149525,0.342705 4.9988636,4.9988636 0 0 1 -0.17447,0.330091 4.9988636,4.9988636 0 0 1 -0.198891,0.3165902 4.9988636,4.9988636 0 0 1 -0.22203,0.300846 4.9988636,4.9988636 0 0 1 -0.243681,0.2835692 4.9988636,4.9988636 0 0 1 -0.264294,0.2645098 4.9988636,4.9988636 0 0 1 -0.283435,0.2439093 4.9988636,4.9988636 0 0 1 -0.301091,0.2217815 4.9988636,4.9988636 0 0 1 -0.316372,0.1986407 4.9988636,4.9988636 0 0 1 -0.112131,0.062957 4.9988636,4.9988636 0 0 1 -0.114041,0.060064 4.9988636,4.9988636 0 0 1 -0.05081,0.024961 z" />
      <path
         id="path21361-0-0"
         style="fill:#87fff5;fill-opacity:1;stroke:none;stroke-width:1.5875;stroke-linejoin:round;stroke-miterlimit:4;stroke-dasharray:none;stroke-opacity:1"
         d="m 74.915181,-10.960645 a 4.9988636,4.9988636 0 0 0 -0.145254,0.09878 4.9988636,4.9988636 0 0 0 -0.195802,0.147652 4.9988636,4.9988636 0 0 0 -0.188514,0.157175 4.9988636,4.9988636 0 0 0 -0.180332,0.16618 4.9988636,4.9988636 0 0 0 -0.172154,0.175176 4.9988636,4.9988636 0 0 0 -0.162889,0.182955 4.9988636,4.9988636 0 0 0 -0.154072,0.1909954 4.9988636,4.9988636 0 0 0 -0.144619,0.198065 4.9988636,4.9988636 0 0 0 -0.134906,0.205585 4.9988636,4.9988636 0 0 0 -0.124369,0.211432 4.9988636,4.9988636 0 0 0 -0.11383,0.217287 4.9988636,4.9988636 0 0 0 -0.103104,0.222427 4.9988636,4.9988636 0 0 0 -0.09193,0.227313 4.9988636,4.9988636 0 0 0 -0.08101,0.231753 4.9988636,4.9988636 0 0 0 -0.0692,0.2356751 4.9988636,4.9988636 0 0 0 -0.05746,0.2384398 4.9988636,4.9988636 0 0 0 -0.04597,0.2407622 4.9988636,4.9988636 0 0 0 -0.03404,0.2428233 4.9988636,4.9988636 0 0 0 -0.02211,0.2448885 4.9988636,4.9988636 0 0 0 -0.01006,0.2450874 4.9988636,4.9988636 0 0 0 0.002,0.2452927 4.9988636,4.9988636 0 0 0 0.0087,0.1494997 4.9988636,4.9988636 0 0 0 4.987534,0.3146238 4.9988636,4.9988636 0 0 1 -0.277622,-0.1470174 4.9988636,4.9988636 0 0 1 -0.316371,-0.1986383 4.9988636,4.9988636 0 0 1 -0.301093,-0.2217794 4.9988636,4.9988636 0 0 1 -0.283437,-0.2439054 4.9988636,4.9988636 0 0 1 -0.264292,-0.2645143 4.9988636,4.9988636 0 0 1 -0.243682,-0.2835698 4.9988636,4.9988636 0 0 1 -0.222028,-0.300845 4.9988636,4.9988636 0 0 1 -0.198633,-0.3161409 4.9988636,4.9988636 0 0 1 -0.174729,-0.33054 4.9988636,4.9988636 0 0 1 -0.149525,-0.342706 4.9988636,4.9988636 0 0 1 -0.123738,-0.352819 4.9988636,4.9988636 0 0 1 -0.09693,-0.36114 4.9988636,4.9988636 0 0 1 -0.06951,-0.367417 4.9988636,4.9988636 0 0 1 -0.04152,-0.3716434 4.9988636,4.9988636 0 0 1 -0.01384,-0.373306 4.9988636,4.9988636 0 0 1 0.0015,-0.128587 4.9988636,4.9988636 0 0 1 0.005,-0.128795 4.9988636,4.9988636 0 0 1 0.0038,-0.05648 z" />
      <path
         id="path21333"
         style="fill:#ff666a;fill-opacity:1;stroke:none;stroke-width:1.5875;stroke-linejoin:round;stroke-miterlimit:4;stroke-dasharray:none;stroke-opacity:1"
         d="m 80.448304,-10.963164 a 4.9988636,4.9988636 0 0 1 0.05994,0.03979 4.9988636,4.9988636 0 0 1 0.105421,0.0739 4.9988636,4.9988636 0 0 1 0.103354,0.077 4.9988636,4.9988636 0 0 1 0.101285,0.07958 4.9988636,4.9988636 0 0 1 0.09922,0.08165 4.9988636,4.9988636 0 0 1 0.09715,0.08475 4.9988636,4.9988636 0 0 1 0.09457,0.08733 4.9988636,4.9988636 0 0 1 0.0925,0.0894 4.9988636,4.9988636 0 0 1 0.09043,0.09147 4.9988636,4.9988636 0 0 1 0.08785,0.09405 4.9988636,4.9988636 0 0 1 0.08527,0.09664 4.9988636,4.9988636 0 0 1 0.08268,0.098185 4.9988636,4.9988636 0 0 1 0.08062,0.1007689 4.9988636,4.9988636 0 0 1 0.07751,0.1028362 4.9988636,4.9988636 0 0 1 0.07493,0.1043863 4.9988636,4.9988636 0 0 1 0.07235,0.1064535 4.9988636,4.9988636 0 0 1 0.06976,0.1085204 4.9988636,4.9988636 0 0 1 0.06666,0.1100709 4.9988636,4.9988636 0 0 1 0.06408,0.1116211 4.9988636,4.9988636 0 0 1 0.06098,0.1131713 4.9988636,4.9988636 0 0 1 0.05788,0.1152385 4.9988636,4.9988636 0 0 1 0.05529,0.1162719 4.9988636,4.9988636 0 0 1 0.05168,0.1173057 4.9988636,4.9988636 0 0 1 0.04909,0.1193726 4.9988636,4.9988636 0 0 1 0.04599,0.120406 4.9988636,4.9988636 0 0 1 0.04289,0.1209228 4.9988636,4.9988636 0 0 1 0.03979,0.1224733 4.9988636,4.9988636 0 0 1 0.03617,0.1235064 4.9988636,4.9988636 0 0 1 0.03359,0.1245404 4.9988636,4.9988636 0 0 1 0.02997,0.1250569 4.9988636,4.9988636 0 0 1 0.02687,0.1260904 4.9988636,4.9988636 0 0 1 0.02377,0.1266074 4.9988636,4.9988636 0 0 1 0.02015,0.1266073 4.9988636,4.9988636 0 0 1 0.01705,0.1276406 4.9988636,4.9988636 0 0 1 0.01395,0.1281575 4.9988636,4.9988636 0 0 1 0.01034,0.1281576 4.9988636,4.9988636 0 0 1 0.0072,0.1286745 4.9988636,4.9988636 0 0 1 0.0036,0.1286743 4.9988636,4.9988636 0 0 1 0.001,0.1286743 4.9988636,4.9988636 0 0 1 -0.0031,0.1286743 4.9988636,4.9988636 0 0 1 -0.0062,0.1286742 4.9988636,4.9988636 0 0 1 -0.001,0.012919 4.9988636,4.9988636 0 0 0 2.231905,-4.1615025 4.9988636,4.9988636 0 0 0 -4.998661,-4.998662 4.9988636,4.9988636 0 0 0 -2.221053,0.522966 4.9988636,4.9988636 0 0 1 0.133842,0.06718 4.9988636,4.9988636 0 0 1 0.213424,0.120923 4.9988636,4.9988636 0 0 1 0.207221,0.131258 4.9988636,4.9988636 0 0 1 0.201023,0.141594 4.9988636,4.9988636 0 0 1 0.19327,0.150895 4.9988636,4.9988636 0 0 1 0.185518,0.160197 4.9988636,4.9988636 0 0 1 0.177765,0.168982 4.9988636,4.9988636 0 0 1 0.1695,0.177767 4.9988636,4.9988636 0 0 1 0.160198,0.186035 4.9988636,4.9988636 0 0 1 0.150894,0.19327 4.9988636,4.9988636 0 0 1 0.141076,0.200504 4.9988636,4.9988636 0 0 1 0.13126,0.207223 4.9988636,4.9988636 0 0 1 0.120922,0.213423 4.9988636,4.9988636 0 0 1 0.110588,0.219625 4.9988636,4.9988636 0 0 1 0.09922,0.224276 4.9988636,4.9988636 0 0 1 0.08837,0.228927 4.9988636,4.9988636 0 0 1 0.077,0.232544 4.9988636,4.9988636 0 0 1 0.06563,0.236678 4.9988636,4.9988636 0 0 1 0.05375,0.239262 4.9988636,4.9988636 0 0 1 0.04186,0.241845 4.9988636,4.9988636 0 0 1 0.02997,0.243396 4.9988636,4.9988636 0 0 1 0.01292,0.175183 z" />
      <path
         id="path21333-9"
         style="fill:#66a7ff;fill-opacity:1;stroke:none;stroke-width:1.5875;stroke-linejoin:round;stroke-miterlimit:4;stroke-dasharray:none;stroke-opacity:1"
         d="m 77.682039,-6.1721159 a 4.9988636,4.9988636 0 0 1 -0.06443,0.03201 4.9988636,4.9988636 0 0 1 -0.11671,0.05435 4.9988636,4.9988636 0 0 1 -0.118361,0.05101 4.9988636,4.9988636 0 0 1 -0.119561,0.04793 4.9988636,4.9988636 0 0 1 -0.120321,0.0451 4.9988636,4.9988636 0 0 1 -0.121971,0.04176 4.9988636,4.9988636 0 0 1 -0.122915,0.03824 4.9988636,4.9988636 0 0 1 -0.123672,0.03541 4.9988636,4.9988636 0 0 1 -0.124431,0.03258 4.9988636,4.9988636 0 0 1 -0.125374,0.02905 4.9988636,4.9988636 0 0 1 -0.126328,0.02553 4.9988636,4.9988636 0 0 1 -0.126366,0.02251 4.9988636,4.9988636 0 0 1 -0.127579,0.01944 4.9988636,4.9988636 0 0 1 -0.127813,0.01571 4.9988636,4.9988636 0 0 1 -0.127866,0.0127 4.9988636,4.9988636 0 0 1 -0.128367,0.0094 4.9988636,4.9988636 0 0 1 -0.128861,0.0062 4.9988636,4.9988636 0 0 1 -0.128655,0.0027 4.9988636,4.9988636 0 0 1 -0.128706,-3.15e-4 4.9988636,4.9988636 0 0 1 -0.128499,-0.0038 4.9988636,4.9988636 0 0 1 -0.12874,-0.0075 4.9988636,4.9988636 0 0 1 -0.12834,-0.01025 4.9988636,4.9988636 0 0 1 -0.12743,-0.0139 4.9988636,4.9988636 0 0 1 -0.127924,-0.01717 4.9988636,4.9988636 0 0 1 -0.127269,-0.02037 4.9988636,4.9988636 0 0 1 -0.126168,-0.02332 4.9988636,4.9988636 0 0 1 -0.12596,-0.02678 4.9988636,4.9988636 0 0 1 -0.125044,-0.03043 4.9988636,4.9988636 0 0 1 -0.124651,-0.03318 4.9988636,4.9988636 0 0 1 -0.123287,-0.03657 4.9988636,4.9988636 0 0 1 -0.122633,-0.03977 4.9988636,4.9988636 0 0 1 -0.12153,-0.04272 4.9988636,4.9988636 0 0 1 -0.11972,-0.04585 4.9988636,4.9988636 0 0 1 -0.119065,-0.04905 4.9988636,4.9988636 0 0 1 -0.117963,-0.052 4.9988636,4.9988636 0 0 1 -0.116157,-0.05512 4.9988636,4.9988636 0 0 1 -0.115036,-0.0581 4.9988636,4.9988636 0 0 1 -0.113235,-0.06122 4.9988636,4.9988636 0 0 1 -0.111935,-0.06347 4.9988636,4.9988636 0 0 1 -0.109885,-0.06702 4.9988636,4.9988636 0 0 1 -0.108335,-0.06971 4.9988636,4.9988636 0 0 1 -0.01069,-0.0073 4.9988636,4.9988636 0 0 0 2.488015,4.0136381 4.9988636,4.9988636 0 0 0 6.828299,-1.8296364 4.9988636,4.9988636 0 0 0 0.657624,-2.1849717 4.9988636,4.9988636 0 0 1 -0.1251,0.08232 4.9988636,4.9988636 0 0 1 -0.211435,0.124369 4.9988636,4.9988636 0 0 1 -0.217283,0.11383 4.9988636,4.9988636 0 0 1 -0.223135,0.103294 4.9988636,4.9988636 0 0 1 -0.227314,0.09193 4.9988636,4.9988636 0 0 1 -0.231494,0.08057 4.9988636,4.9988636 0 0 1 -0.235225,0.06946 4.9988636,4.9988636 0 0 1 -0.238701,0.05791 4.9988636,4.9988636 0 0 1 -0.24121,0.04572 4.9988636,4.9988636 0 0 1 -0.242824,0.03404 4.9988636,4.9988636 0 0 1 -0.244179,0.02192 4.9988636,4.9988636 0 0 1 -0.245091,0.01006 4.9988636,4.9988636 0 0 1 -0.24529,-0.002 4.9988636,4.9988636 0 0 1 -0.245495,-0.01404 4.9988636,4.9988636 0 0 1 -0.243839,-0.02621 4.9988636,4.9988636 0 0 1 -0.242442,-0.03793 4.9988636,4.9988636 0 0 1 -0.239889,-0.04959 4.9988636,4.9988636 0 0 1 -0.237784,-0.0615 4.9988636,4.9988636 0 0 1 -0.234082,-0.07308 4.9988636,4.9988636 0 0 1 -0.230374,-0.08467 4.9988636,4.9988636 0 0 1 -0.225772,-0.09574 4.9988636,4.9988636 0 0 1 -0.158173,-0.0764 z" />
      <path
         id="path21333-9-5"
         style="fill:#78ff66;fill-opacity:1;stroke:none;stroke-width:1.5875;stroke-linejoin:round;stroke-miterlimit:4;stroke-dasharray:none;stroke-opacity:1"
         d="m 74.91518,-10.960699 a 4.9988636,4.9988636 0 0 1 0.0045,-0.0718 4.9988636,4.9988636 0 0 1 0.01129,-0.128249 4.9988636,4.9988636 0 0 1 0.015,-0.128009 4.9988636,4.9988636 0 0 1 0.01827,-0.127508 4.9988636,4.9988636 0 0 1 0.0211,-0.126751 4.9988636,4.9988636 0 0 1 0.02482,-0.12651 4.9988636,4.9988636 0 0 1 0.02834,-0.125567 4.9988636,4.9988636 0 0 1 0.03117,-0.124808 4.9988636,4.9988636 0 0 1 0.034,-0.124051 4.9988636,4.9988636 0 0 1 0.03753,-0.123102 4.9988636,4.9988636 0 0 1 0.04106,-0.122168 4.9988636,4.9988636 0 0 1 0.04369,-0.120691 4.9988636,4.9988636 0 0 1 0.04695,-0.120207 4.9988636,4.9988636 0 0 1 0.0503,-0.118544 4.9988636,4.9988636 0 0 1 0.05293,-0.117085 4.9988636,4.9988636 0 0 1 0.05604,-0.115869 4.9988636,4.9988636 0 0 1 0.05906,-0.114697 4.9988636,4.9988636 0 0 1 0.06199,-0.112769 4.9988636,4.9988636 0 0 1 0.06463,-0.111305 4.9988636,4.9988636 0 0 1 0.06754,-0.109383 4.9988636,4.9988636 0 0 1 0.07086,-0.107742 4.9988636,4.9988636 0 0 1 0.07305,-0.106021 4.9988636,4.9988636 0 0 1 0.07575,-0.103408 4.9988636,4.9988636 0 0 1 0.07883,-0.1022 4.9988636,4.9988636 0 0 1 0.08128,-0.100033 4.9988636,4.9988636 0 0 1 0.08328,-0.0976 4.9988636,4.9988636 0 0 1 0.08617,-0.09569 4.9988636,4.9988636 0 0 1 0.08888,-0.09308 4.9988636,4.9988636 0 0 1 0.09106,-0.09136 4.9988636,4.9988636 0 0 1 0.09331,-0.08848 4.9988636,4.9988636 0 0 1 0.09576,-0.08632 4.9988636,4.9988636 0 0 1 0.09776,-0.08389 4.9988636,4.9988636 0 0 1 0.09957,-0.08075 4.9988636,4.9988636 0 0 1 0.102011,-0.07859 4.9988636,4.9988636 0 0 1 0.104015,-0.07616 4.9988636,4.9988636 0 0 1 0.105813,-0.07303 4.9988636,4.9988636 0 0 1 0.107835,-0.07057 4.9988636,4.9988636 0 0 1 0.109635,-0.06745 4.9988636,4.9988636 0 0 1 0.110934,-0.0652 4.9988636,4.9988636 0 0 1 0.112984,-0.06165 4.9988636,4.9988636 0 0 1 0.114538,-0.05897 4.9988636,4.9988636 0 0 1 0.01167,-0.0056 4.9988636,4.9988636 0 0 0 -4.71992,0.147865 4.9988636,4.9988636 0 0 0 -1.829638,6.828298 4.9988636,4.9988636 0 0 0 1.563429,1.6620051 4.9988636,4.9988636 0 0 1 -0.0087,-0.1494997 4.9988636,4.9988636 0 0 1 -0.002,-0.2452926 4.9988636,4.9988636 0 0 1 0.01006,-0.2450876 4.9988636,4.9988636 0 0 1 0.02211,-0.2448876 4.9988636,4.9988636 0 0 1 0.03404,-0.2428247 4.9988636,4.9988636 0 0 1 0.04597,-0.2407647 4.9988636,4.9988636 0 0 1 0.05746,-0.2384408 4.9988636,4.9988636 0 0 1 0.0692,-0.2356761 4.9988636,4.9988636 0 0 1 0.08101,-0.231754 4.9988636,4.9988636 0 0 1 0.09193,-0.2273118 4.9988636,4.9988636 0 0 1 0.103107,-0.2224252 4.9988636,4.9988636 0 0 1 0.113833,-0.217285 4.9988636,4.9988636 0 0 1 0.124377,-0.2114274 4.9988636,4.9988636 0 0 1 0.134906,-0.2055849 4.9988636,4.9988636 0 0 1 0.144618,-0.1980658 4.9988636,4.9988636 0 0 1 0.15407,-0.1909962 4.9988636,4.9988636 0 0 1 0.162891,-0.182955 4.9988636,4.9988636 0 0 1 0.172152,-0.175177 4.9988636,4.9988636 0 0 1 0.18033,-0.166181 4.9988636,4.9988636 0 0 1 0.188514,-0.157174 4.9988636,4.9988636 0 0 1 0.195799,-0.147655 4.9988636,4.9988636 0 0 1 0.145251,-0.09878 z" />
    </g>
  </g>
</svg>
