<?xml version="1.0" encoding="UTF-8" standalone="no"?>
<!-- Created with Inkscape (http://www.inkscape.org/) -->

<svg
   xmlns:dc="http://purl.org/dc/elements/1.1/"
   xmlns:cc="http://creativecommons.org/ns#"
   xmlns:rdf="http://www.w3.org/1999/02/22-rdf-syntax-ns#"
   xmlns:svg="http://www.w3.org/2000/svg"
   xmlns="http://www.w3.org/2000/svg"
   xmlns:sodipodi="http://sodipodi.sourceforge.net/DTD/sodipodi-0.dtd"
   xmlns:inkscape="http://www.inkscape.org/namespaces/inkscape"
   width="50.799999mm"
   height="50.799801mm"
   viewBox="0 0 50.8 50.799801"
   version="1.1"
   id="svg8"
   inkscape:version="0.92.3 (2405546, 2018-03-11)"
   sodipodi:docname="building_piston.svg"
   inkscape:export-filename="E:\shapez\building_pistonfull_normal.png"
   inkscape:export-xdpi="96.000374"
   inkscape:export-ydpi="96.000374">
  <sodipodi:namedview
     id="base"
     pagecolor="#ffffff"
     bordercolor="#666666"
     borderopacity="1.0"
     inkscape:pageopacity="0.0"
     inkscape:pageshadow="2"
     inkscape:zoom="2.3619792"
     inkscape:cx="70.98006"
     inkscape:cy="83.342475"
     inkscape:document-units="mm"
     inkscape:current-layer="svg8"
     showgrid="false"
     inkscape:measure-start="-26.9642,-146.576"
     inkscape:measure-end="-18.9322,-156.431"
     inkscape:window-width="1920"
     inkscape:window-height="1057"
     inkscape:window-x="1912"
     inkscape:window-y="-8"
     inkscape:window-maximized="1" />
  <defs
     id="defs2" />
  <metadata
     id="metadata5">
    <rdf:RDF>
      <cc:Work
         rdf:about="">
        <dc:format>image/svg+xml</dc:format>
        <dc:type
           rdf:resource="http://purl.org/dc/dcmitype/StillImage" />
        <dc:title></dc:title>
      </cc:Work>
    </rdf:RDF>
  </metadata>
  <g
     inkscape:groupmode="layer"
     id="layer2"
     inkscape:label="Head"
     style="display:inline">
    <path
       style="color:#000000;font-style:normal;font-variant:normal;font-weight:normal;font-stretch:normal;font-size:medium;line-height:normal;font-family:sans-serif;font-variant-ligatures:normal;font-variant-position:normal;font-variant-caps:normal;font-variant-numeric:normal;font-variant-alternates:normal;font-feature-settings:normal;text-indent:0;text-align:start;text-decoration:none;text-decoration-line:none;text-decoration-style:solid;text-decoration-color:#000000;letter-spacing:normal;word-spacing:normal;text-transform:none;writing-mode:lr-tb;direction:ltr;text-orientation:mixed;dominant-baseline:auto;baseline-shift:baseline;text-anchor:start;white-space:normal;shape-padding:0;clip-rule:nonzero;display:inline;overflow:visible;visibility:visible;opacity:1;isolation:auto;mix-blend-mode:normal;color-interpolation:sRGB;color-interpolation-filters:linearRGB;solid-color:#000000;solid-opacity:1;vector-effect:none;fill:#000000;fill-opacity:0.07058824;fill-rule:nonzero;stroke:none;stroke-width:2.39999986;stroke-linecap:butt;stroke-linejoin:miter;stroke-miterlimit:4;stroke-dasharray:none;stroke-dashoffset:0;stroke-opacity:1;color-rendering:auto;image-rendering:auto;shape-rendering:auto;text-rendering:auto;enable-background:accumulate"
       d="M 13.777454,3.2336124 V 7.060769 h 3.538802 V 50.31911 h 2.40037 V 7.060769 h 5.01158 V 50.31911 h 2.400369 V 7.060769 h 5.013648 V 50.31911 h 2.398821 V 7.060769 h 3.539834 V 3.2336124 Z"
       id="path2745-5"
       inkscape:connector-curvature="0" />
    <path
       transform="translate(-63.046433,-110.58234)"
       style="fill:none;stroke:#64666e;stroke-width:2.4000001;stroke-linecap:butt;stroke-linejoin:miter;stroke-miterlimit:4;stroke-dasharray:none;stroke-opacity:1"
       d="m 88.446432,116.72923 v 42.53856"
       id="path2745"
       inkscape:connector-curvature="0" />
    <path
       transform="translate(-63.046433,-110.58234)"
       style="fill:none;stroke:#64666e;stroke-width:2.4000001;stroke-linecap:butt;stroke-linejoin:miter;stroke-miterlimit:4;stroke-dasharray:none;stroke-opacity:1"
       d="m 81.034014,116.72923 v 42.53856"
       id="path2745-7"
       inkscape:connector-curvature="0" />
    <path
       transform="translate(-63.046433,-110.58234)"
       style="fill:none;stroke:#64666e;stroke-width:2.4000001;stroke-linecap:butt;stroke-linejoin:miter;stroke-miterlimit:4;stroke-dasharray:none;stroke-opacity:1"
       d="m 95.858849,116.72923 v 42.53856"
       id="path2745-8"
       inkscape:connector-curvature="0" />
    <rect
       transform="translate(-63.046433,-110.58234)"
       style="opacity:1;fill:#8e919b;fill-opacity:1;fill-rule:nonzero;stroke:#64666e;stroke-width:3.20000029;stroke-linecap:butt;stroke-linejoin:round;stroke-miterlimit:4;stroke-dasharray:none;stroke-dashoffset:0;stroke-opacity:1;paint-order:markers stroke fill"
       id="rect2686"
       width="24.30304"
       height="3.8272505"
       x="76.294914"
       y="112.18234" />
  </g>
  <g
     inkscape:groupmode="layer"
     id="layer3"
     inkscape:label="Sticky"
     style="display:inline">
    <path
       style="opacity:1;fill:#18d600;fill-opacity:1;fill-rule:nonzero;stroke:none;stroke-width:3.20000005;stroke-linecap:butt;stroke-linejoin:round;stroke-miterlimit:4;stroke-dasharray:none;stroke-dashoffset:0;stroke-opacity:1;paint-order:markers stroke fill"
       d="M 13.24848,1.6000025 V 3.5135808 H 37.551904 V 1.6000025 Z"
       id="rect2686-2-3"
       inkscape:connector-curvature="0" />
    <path
       style="fill:none;stroke:#64666e;stroke-width:1.5999999;stroke-linecap:butt;stroke-linejoin:miter;stroke-miterlimit:4;stroke-dasharray:none;stroke-opacity:1"
       d="M 11.816717,3.5137202 H 38.983664"
       id="path2834-8"
       inkscape:connector-curvature="0" />
  </g>
  <g
     transform="translate(-63.046432,-110.58234)"
     id="layer1"
     inkscape:groupmode="layer"
     inkscape:label="Body"
     style="display:inline">
    <path
       style="display:inline;opacity:1;fill:#000000;fill-opacity:0.07058824;fill-rule:nonzero;stroke:none;stroke-width:3.20000029;stroke-linecap:butt;stroke-linejoin:round;stroke-miterlimit:4;stroke-dasharray:none;stroke-dashoffset:0;stroke-opacity:1;paint-order:markers stroke fill"
       d="m 72.623098,119.28042 c -1.590222,0 -2.870757,1.28004 -2.870757,2.87026 v 35.8805 c 0,1.59023 1.280535,2.87027 2.870757,2.87027 h 35.880512 c 1.59022,0 2.87026,-1.28004 2.87026,-2.87027 v -35.8805 c 0,-1.59022 -1.28004,-2.87026 -2.87026,-2.87026 h -1.19557 v 4.49699 H 73.819659 v -4.49699 z"
       id="rect2679-7"
       inkscape:connector-curvature="0"
       sodipodi:nodetypes="ssssssssccccs" />
    <path
       style="opacity:1;fill:#dee1ea;fill-opacity:1;fill-rule:nonzero;stroke:#64666e;stroke-width:3.20000029;stroke-linecap:butt;stroke-linejoin:round;stroke-miterlimit:4;stroke-dasharray:none;stroke-dashoffset:0;stroke-opacity:1;paint-order:markers stroke fill"
       d="m 70.506426,116.1054 c -1.590222,0 -2.870757,1.28004 -2.870757,2.87026 v 35.8805 c 0,1.59023 1.280535,2.87027 2.870757,2.87027 h 35.880504 c 1.59022,0 2.87026,-1.28004 2.87026,-2.87027 v -35.8805 c 0,-1.59022 -1.28004,-2.87026 -2.87026,-2.87026 h -1.19557 v 4.49699 H 71.702987 v -4.49699 z"
       id="rect2679"
       inkscape:connector-curvature="0"
       sodipodi:nodetypes="ssssssssccccs" />
    <path
       style="opacity:1;fill:#ced1d9;fill-opacity:1;fill-rule:nonzero;stroke:none;stroke-width:3.20000005;stroke-linecap:butt;stroke-linejoin:round;stroke-miterlimit:4;stroke-dasharray:none;stroke-dashoffset:0;stroke-opacity:1;paint-order:markers stroke fill"
       d="m 95.420653,127.29231 -8.257376,8.25686 c 1.362422,0.90264 2.638012,1.92873 3.862295,3.00705 0.04483,0.0395 0.08824,0.0806 0.132808,0.12041 l -6.784081,6.78408 -1.012341,-1.01234 c -0.634301,-0.6343 -1.660134,-0.6302 -2.300118,0.01 l -4.043681,4.04368 c -0.639984,0.63997 -0.644083,1.66582 -0.0098,2.30012 l 4.006991,4.00699 c 0.634302,0.6343 1.660651,0.6302 2.300635,-0.01 l 4.043164,-4.04368 c 0.639984,-0.63997 0.644077,-1.66582 0.0098,-2.30012 l -1.011825,-1.01182 6.791833,-6.79184 c 0.05728,0.0631 0.116467,0.12446 0.173117,0.18811 1.084083,1.21801 2.11541,2.48828 3.024622,3.84524 l 8.233614,-8.23309 z m -13.2271,19.90266 c 0.624454,-0.003 1.247585,0.23257 1.721859,0.70694 0.948481,0.94858 0.941631,2.49351 -0.0155,3.45043 -0.956978,0.95685 -2.501436,0.96386 -3.449918,0.0155 -0.948653,-0.94842 -0.942001,-2.49335 0.01499,-3.45043 0.478527,-0.47863 1.104123,-0.71965 1.728576,-0.72244 z"
       id="rect828-2"
       inkscape:connector-curvature="0" />
    <g
       transform="matrix(0.57247434,0.57246665,-0.57760269,0.57759494,93.53903,13.418644)"
       style="stroke-width:3.93500495;stroke-miterlimit:4;stroke-dasharray:none"
       id="g4636">
      <path
         sodipodi:nodetypes="ccsssssssscccccccc"
         inkscape:connector-curvature="0"
         id="rect828"
         d="m 103.62537,110.23642 v 12.00031 h -1.76839 c -1.108,0 -2.000392,0.89187 -2.000392,1.99987 v 7.00009 c 0,1.108 0.892392,1.99988 2.000392,1.99988 h 6.99958 c 1.108,0 2.00039,-0.89188 2.00039,-1.99988 v -7.00009 c 0,-1.108 -0.89239,-1.99987 -2.00039,-1.99987 h -1.76787 v -12.00031 z m 1.73166,14.51075 c 1.65691,1e-4 2.99999,1.34342 2.99981,3.00033 -1e-4,1.65671 -1.3431,2.99972 -2.99981,2.99982 -1.65692,1.9e-4 -3.00024,-1.3429 -3.00034,-2.99982 -1.8e-4,-1.65712 1.34322,-3.00052 3.00034,-3.00033 z"
         style="opacity:1;fill:#8e919b;fill-opacity:1;fill-rule:nonzero;stroke:#63656b;stroke-width:3.93500495;stroke-linecap:butt;stroke-linejoin:round;stroke-miterlimit:4;stroke-dasharray:none;stroke-dashoffset:0;stroke-opacity:1;paint-order:markers stroke fill" />
      <path
         sodipodi:nodetypes="ccaaccc"
         inkscape:connector-curvature="0"
         id="rect831"
         transform="matrix(0.26458333,0,0,0.26458333,88.144051,96.370239)"
         d="M 35,2.1796882 V 56.210938 c 7.477124,-1.504243 15.074733,-2.323283 22.675781,-2.800782 5.029816,-0.315973 10.087769,-0.3292 15.119141,-0.03906 7.599363,0.438226 15.196956,1.218612 22.677734,2.683594 V 2.1796902 Z"
         style="opacity:1;fill:#8e919b;fill-opacity:1;fill-rule:nonzero;stroke:#63656b;stroke-width:14.87245941;stroke-linecap:butt;stroke-linejoin:round;stroke-miterlimit:4;stroke-dasharray:none;stroke-dashoffset:0;stroke-opacity:1;paint-order:markers stroke fill" />
      <path
         inkscape:connector-curvature="0"
         id="path849-1"
         d="M 97.304051,100.08522 H 113.50405"
         style="fill:none;stroke:#63656b;stroke-width:1.96750247;stroke-linecap:butt;stroke-linejoin:miter;stroke-miterlimit:4;stroke-dasharray:none;stroke-opacity:1" />
      <path
         inkscape:connector-curvature="0"
         id="path849-1-24"
         d="M 97.304053,103.92721 H 113.50404"
         style="fill:none;stroke:#63656b;stroke-width:1.96750247;stroke-linecap:butt;stroke-linejoin:miter;stroke-miterlimit:4;stroke-dasharray:none;stroke-opacity:1" />
    </g>
  </g>
</svg>
