<?xml version="1.0" encoding="UTF-8" standalone="no"?>
<!-- Created with Inkscape (http://www.inkscape.org/) -->

<svg
   width="192"
   height="192"
   viewBox="0 0 50.799999 50.800001"
   version="1.1"
   id="svg45193"
   inkscape:export-filename="E:\shapez\planter-white.png"
   inkscape:export-xdpi="96"
   inkscape:export-ydpi="96"
   inkscape:version="1.1.1 (3bf5ae0d25, 2021-09-20)"
   sodipodi:docname="planter.svg"
   xmlns:inkscape="http://www.inkscape.org/namespaces/inkscape"
   xmlns:sodipodi="http://sodipodi.sourceforge.net/DTD/sodipodi-0.dtd"
   xmlns="http://www.w3.org/2000/svg"
   xmlns:svg="http://www.w3.org/2000/svg">
  <sodipodi:namedview
     id="namedview45195"
     pagecolor="#505050"
     bordercolor="#eeeeee"
     borderopacity="1"
     inkscape:pageshadow="0"
     inkscape:pageopacity="0"
     inkscape:pagecheckerboard="0"
     inkscape:document-units="px"
     showgrid="false"
     units="px"
     inkscape:zoom="2.5620932"
     inkscape:cx="23.418352"
     inkscape:cy="87.623666"
     inkscape:window-width="1920"
     inkscape:window-height="1057"
     inkscape:window-x="1072"
     inkscape:window-y="484"
     inkscape:window-maximized="1"
     inkscape:current-layer="layer1">
    <sodipodi:guide
       position="47.625,50.8"
       orientation="-1,0"
       id="guide29415"
       inkscape:label=""
       inkscape:locked="false"
       inkscape:color="rgb(0,0,255)" />
    <sodipodi:guide
       position="50.8,3.175"
       orientation="0,1"
       id="guide29417"
       inkscape:label=""
       inkscape:locked="false"
       inkscape:color="rgb(0,0,255)" />
    <sodipodi:guide
       position="3.175,50.8"
       orientation="-1,0"
       id="guide29419"
       inkscape:label=""
       inkscape:locked="false"
       inkscape:color="rgb(0,0,255)" />
  </sodipodi:namedview>
  <defs
     id="defs45190">
    <inkscape:path-effect
       effect="fillet_chamfer"
       id="path-effect84711"
       is_visible="true"
       lpeversion="1"
       satellites_param="F,0,0,1,0,0,0,1 @ F,0,0,1,0,0,0,1 @ F,0,1,1,0,1,0,1 @ F,0,1,1,0,1,0,1 @ F,0,1,1,0,1,0,1 @ F,0,0,1,0,0,0,1 @ F,0,0,1,0,0,0,1"
       unit="px"
       method="auto"
       mode="F"
       radius="1"
       chamfer_steps="1"
       flexible="false"
       use_knot_distance="true"
       apply_no_radius="true"
       apply_with_radius="true"
       only_selected="true"
       hide_knots="false" />
    <inkscape:path-effect
       effect="fillet_chamfer"
       id="path-effect84707"
       is_visible="true"
       lpeversion="1"
       satellites_param="F,0,0,1,0,0,0,1 @ F,0,0,1,0,0,0,1 @ F,0,1,1,0,1,0,1 @ F,0,1,1,0,1,0,1 @ F,0,1,1,0,1,0,1 @ F,0,0,1,0,0,0,1 @ F,0,0,1,0,0,0,1"
       unit="px"
       method="auto"
       mode="F"
       radius="1"
       chamfer_steps="1"
       flexible="false"
       use_knot_distance="true"
       apply_no_radius="true"
       apply_with_radius="true"
       only_selected="true"
       hide_knots="false" />
    <inkscape:path-effect
       effect="fillet_chamfer"
       id="path-effect84703"
       is_visible="true"
       lpeversion="1"
       satellites_param="F,0,0,1,0,0,0,1 @ F,0,0,1,0,0,0,1 @ F,0,1,1,0,1,0,1 @ F,0,1,1,0,1,0,1 @ F,0,1,1,0,1,0,1 @ F,0,0,1,0,0,0,1 @ F,0,0,1,0,0,0,1"
       unit="px"
       method="auto"
       mode="F"
       radius="1"
       chamfer_steps="1"
       flexible="false"
       use_knot_distance="true"
       apply_no_radius="true"
       apply_with_radius="true"
       only_selected="true"
       hide_knots="false" />
    <inkscape:path-effect
       effect="fillet_chamfer"
       id="path-effect84699"
       is_visible="true"
       lpeversion="1"
       satellites_param="F,0,0,1,0,0,0,1 @ F,0,0,1,0,0,0,1 @ F,0,1,1,0,1,0,1 @ F,0,1,1,0,1,0,1 @ F,0,1,1,0,1,0,1 @ F,0,0,1,0,0,0,1 @ F,0,0,1,0,0,0,1"
       unit="px"
       method="auto"
       mode="F"
       radius="1"
       chamfer_steps="1"
       flexible="false"
       use_knot_distance="true"
       apply_no_radius="true"
       apply_with_radius="true"
       only_selected="true"
       hide_knots="false" />
    <inkscape:path-effect
       effect="fillet_chamfer"
       id="path-effect83844"
       is_visible="true"
       lpeversion="1"
       satellites_param="F,0,0,1,0,0,0,1 @ F,0,0,1,0,0,0,1 @ F,0,1,1,0,1,0,1 @ F,0,1,1,0,1,0,1 @ F,0,1,1,0,1,0,1 @ F,0,0,1,0,0,0,1 @ F,0,0,1,0,0,0,1"
       unit="px"
       method="auto"
       mode="F"
       radius="1"
       chamfer_steps="1"
       flexible="false"
       use_knot_distance="true"
       apply_no_radius="true"
       apply_with_radius="true"
       only_selected="true"
       hide_knots="false" />
    <inkscape:path-effect
       effect="fillet_chamfer"
       id="path-effect83501"
       is_visible="true"
       lpeversion="1"
       satellites_param="F,0,0,1,0,0,0,1 @ F,0,0,1,0,0,0,1 @ F,0,1,1,0,1,0,1 @ F,0,1,1,0,1,0,1 @ F,0,1,1,0,1,0,1 @ F,0,0,1,0,0,0,1 @ F,0,0,1,0,0,0,1"
       unit="px"
       method="auto"
       mode="F"
       radius="1"
       chamfer_steps="1"
       flexible="false"
       use_knot_distance="true"
       apply_no_radius="true"
       apply_with_radius="true"
       only_selected="true"
       hide_knots="false" />
    <inkscape:path-effect
       effect="fillet_chamfer"
       id="path-effect83478"
       is_visible="true"
       lpeversion="1"
       satellites_param="F,0,0,1,0,0,0,1 @ F,0,0,1,0,0,0,1 @ F,0,1,1,0,1,0,1 @ F,0,1,1,0,1,0,1 @ F,0,1,1,0,1,0,1 @ F,0,0,1,0,0,0,1 @ F,0,0,1,0,0,0,1"
       unit="px"
       method="auto"
       mode="F"
       radius="1"
       chamfer_steps="1"
       flexible="false"
       use_knot_distance="true"
       apply_no_radius="true"
       apply_with_radius="true"
       only_selected="true"
       hide_knots="false" />
    <inkscape:path-effect
       effect="fillet_chamfer"
       id="path-effect83455"
       is_visible="true"
       lpeversion="1"
       satellites_param="F,0,0,1,0,0,0,1 @ F,0,0,1,0,0,0,1 @ F,0,1,1,0,1,0,1 @ F,0,1,1,0,1,0,1 @ F,0,1,1,0,1,0,1 @ F,0,0,1,0,0,0,1 @ F,0,0,1,0,0,0,1"
       unit="px"
       method="auto"
       mode="F"
       radius="1"
       chamfer_steps="1"
       flexible="false"
       use_knot_distance="true"
       apply_no_radius="true"
       apply_with_radius="true"
       only_selected="true"
       hide_knots="false" />
    <inkscape:path-effect
       effect="fillet_chamfer"
       id="path-effect83058"
       is_visible="true"
       lpeversion="1"
       satellites_param="F,0,0,1,0,0,0,1 @ F,0,0,1,0,0,0,1 @ F,0,1,1,0,1,0,1 @ F,0,1,1,0,1,0,1 @ F,0,1,1,0,1,0,1 @ F,0,0,1,0,0,0,1 @ F,0,0,1,0,0,0,1"
       unit="px"
       method="auto"
       mode="F"
       radius="1"
       chamfer_steps="1"
       flexible="false"
       use_knot_distance="true"
       apply_no_radius="true"
       apply_with_radius="true"
       only_selected="true"
       hide_knots="false" />
    <filter
       style="color-interpolation-filters:sRGB;"
       inkscape:label="Drop Shadow"
       id="filter152814"
       x="0"
       y="0"
       width="1.0577392"
       height="1.070291">
      <feFlood
         flood-opacity="0.121569"
         flood-color="rgb(0,0,0)"
         result="flood"
         id="feFlood152804" />
      <feComposite
         in="flood"
         in2="SourceGraphic"
         operator="in"
         result="composite1"
         id="feComposite152806" />
      <feGaussianBlur
         in="composite1"
         stdDeviation="0"
         result="blur"
         id="feGaussianBlur152808" />
      <feOffset
         dx="2.3"
         dy="2.8"
         result="offset"
         id="feOffset152810" />
      <feComposite
         in="SourceGraphic"
         in2="offset"
         operator="over"
         result="composite2"
         id="feComposite152812" />
    </filter>
    <filter
       style="color-interpolation-filters:sRGB;"
       inkscape:label="Drop Shadow"
       id="filter29221"
       x="0"
       y="0"
       width="1.0180251"
       height="1.0515003">
      <feFlood
         flood-opacity="0.121569"
         flood-color="rgb(0,0,0)"
         result="flood"
         id="feFlood29211" />
      <feComposite
         in="flood"
         in2="SourceGraphic"
         operator="in"
         result="composite1"
         id="feComposite29213" />
      <feGaussianBlur
         in="composite1"
         stdDeviation="0"
         result="blur"
         id="feGaussianBlur29215" />
      <feOffset
         dx="2.9914529914529737"
         dy="8.5470085470085451"
         result="offset"
         id="feOffset29217" />
      <feComposite
         in="SourceGraphic"
         in2="offset"
         operator="over"
         result="composite2"
         id="feComposite29219" />
    </filter>
    <filter
       style="color-interpolation-filters:sRGB;"
       inkscape:label="Drop Shadow"
       id="filter29233"
       x="0"
       y="0"
       width="1.0375841"
       height="1.0292321">
      <feFlood
         flood-opacity="0.121569"
         flood-color="rgb(0,0,0)"
         result="flood"
         id="feFlood29223" />
      <feComposite
         in="flood"
         in2="SourceGraphic"
         operator="in"
         result="composite1"
         id="feComposite29225" />
      <feGaussianBlur
         in="composite1"
         stdDeviation="0"
         result="blur"
         id="feGaussianBlur29227" />
      <feOffset
         dx="3.8461538461538538"
         dy="2.9914529914529737"
         result="offset"
         id="feOffset29229" />
      <feComposite
         in="SourceGraphic"
         in2="offset"
         operator="over"
         result="composite2"
         id="feComposite29231" />
    </filter>
    <filter
       style="color-interpolation-filters:sRGB;"
       inkscape:label="Drop Shadow"
       id="filter44297"
       x="0"
       y="0"
       width="1.2063251"
       height="1.2579064">
      <feFlood
         flood-opacity="0.121569"
         flood-color="rgb(0,0,0)"
         result="flood"
         id="feFlood44287" />
      <feComposite
         in="flood"
         in2="SourceGraphic"
         operator="in"
         result="composite1"
         id="feComposite44289" />
      <feGaussianBlur
         in="composite1"
         stdDeviation="0"
         result="blur"
         id="feGaussianBlur44291" />
      <feOffset
         dx="1.5444015444015378"
         dy="1.9305019305019329"
         result="offset"
         id="feOffset44293" />
      <feComposite
         in="SourceGraphic"
         in2="offset"
         operator="over"
         result="composite2"
         id="feComposite44295" />
    </filter>
  </defs>
  <g
     inkscape:label="Base"
     inkscape:groupmode="layer"
     id="layer1">
    <rect
       style="fill:#ff0000;fill-opacity:1;stroke:none;stroke-width:3.175;stroke-linecap:round;stroke-linejoin:round;stroke-opacity:1;paint-order:markers stroke fill;filter:url(#filter152814)"
       id="rect61619-1-3"
       width="39.834301"
       height="39.834412"
       x="5.4827976"
       y="5.4827914"
       ry="3.2129591"
       rx="3.2129593" />
    <rect
       style="fill:#91949e;fill-opacity:1;stroke:#64666e;stroke-width:3.175;stroke-linecap:round;stroke-linejoin:round;stroke-opacity:1;paint-order:markers stroke fill"
       id="rect61619-1"
       width="39.834301"
       height="39.834412"
       x="5.4827976"
       y="5.4827914"
       ry="3.2129591"
       rx="3.2129593" />
    <path
       sodipodi:type="star"
       style="fill:#ff0000;fill-opacity:1;stroke:none;stroke-width:4.16516;stroke-linecap:round;stroke-linejoin:round;stroke-miterlimit:4;stroke-dasharray:none;stroke-opacity:1;filter:url(#filter29233)"
       id="path24550-4"
       inkscape:flatsided="false"
       sodipodi:sides="8"
       sodipodi:cx="99.527992"
       sodipodi:cy="95.624939"
       sodipodi:r1="51.167297"
       sodipodi:r2="36.687366"
       sodipodi:arg1="-1.5707963"
       sodipodi:arg2="-1.1780972"
       inkscape:rounded="0"
       inkscape:randomized="0"
       transform="matrix(0.33807347,0.17598991,-0.17598991,0.33807347,8.5811993,-24.444179)"
       d="m 99.527994,44.457642 14.039646,17.272591 22.1411,-2.286036 -2.28604,22.141096 17.27259,14.039647 -17.27259,14.03965 2.28603,22.14109 -22.14109,-2.28603 -14.039649,17.27259 -14.039648,-17.27259 -22.141095,2.28603 2.286037,-22.1411 L 48.360695,95.624938 65.633286,81.58529 63.34725,59.444195 85.488346,61.730231 Z" />
    <path
       sodipodi:type="star"
       style="fill:#70ad47;fill-opacity:1;stroke:#536351;stroke-width:4.16516;stroke-linecap:round;stroke-linejoin:round;stroke-miterlimit:4;stroke-dasharray:none;stroke-opacity:1"
       id="path24550"
       inkscape:flatsided="false"
       sodipodi:sides="8"
       sodipodi:cx="99.527992"
       sodipodi:cy="95.624939"
       sodipodi:r1="51.167297"
       sodipodi:r2="36.687366"
       sodipodi:arg1="-1.5707963"
       sodipodi:arg2="-1.1780972"
       inkscape:rounded="0"
       inkscape:randomized="0"
       d="m 99.527994,44.457642 14.039646,17.27259 22.1411,-2.286035 -2.28604,22.141096 17.27259,14.039647 -17.27259,14.03965 2.28603,22.14109 -22.14109,-2.28603 -14.039649,17.27259 -14.039647,-17.27259 -22.141096,2.28603 2.286037,-22.14109 L 48.360695,95.624938 65.633286,81.585291 63.34725,59.444195 85.488346,61.730232 Z"
       transform="matrix(0.33807347,0.17598991,-0.17598991,0.33807347,8.5811993,-24.444179)" />
    <path
       sodipodi:type="star"
       style="fill:#ff0000;fill-opacity:1;stroke:none;stroke-width:5.92714;stroke-linecap:round;stroke-linejoin:round;stroke-miterlimit:4;stroke-dasharray:none;stroke-opacity:1;filter:url(#filter29221)"
       id="path1071-1"
       inkscape:flatsided="false"
       sodipodi:sides="8"
       sodipodi:cx="98.357079"
       sodipodi:cy="101.47952"
       sodipodi:r1="82.980164"
       sodipodi:r2="41.744789"
       sodipodi:arg1="0"
       sodipodi:arg2="0.39269908"
       inkscape:rounded="0"
       inkscape:randomized="0"
       transform="matrix(0.26681652,0.02334342,-0.02334342,0.26681652,1.5255342,-3.9724064)"
       d="m 181.33724,101.47952 -44.41301,15.97504 20.10868,42.7008 -42.70079,-20.10868 -15.975041,44.41301 -15.97504,-44.41301 -42.700797,20.10868 20.10868,-42.7008 -44.413007,-15.97504 44.413007,-15.975036 -20.10868,-42.700798 42.700797,20.10868 15.97504,-44.413007 15.975041,44.413007 42.70079,-20.10868 -20.10868,42.700797 z" />
    <path
       sodipodi:type="star"
       style="fill:#78ff66;fill-opacity:1;stroke:#536351;stroke-width:5.92714;stroke-linecap:round;stroke-linejoin:round;stroke-miterlimit:4;stroke-dasharray:none;stroke-opacity:1"
       id="path1071"
       inkscape:flatsided="false"
       sodipodi:sides="8"
       sodipodi:cx="98.357079"
       sodipodi:cy="101.47952"
       sodipodi:r1="82.980164"
       sodipodi:r2="41.744789"
       sodipodi:arg1="0"
       sodipodi:arg2="0.39269908"
       inkscape:rounded="0"
       inkscape:randomized="0"
       d="m 181.33724,101.47952 -44.41301,15.97504 20.10868,42.7008 -42.70079,-20.10868 -15.975041,44.41301 -15.97504,-44.41301 -42.700797,20.10868 20.10868,-42.7008 -44.413007,-15.97504 44.413007,-15.975036 -20.10868,-42.700798 42.700797,20.10868 15.97504,-44.413007 15.975041,44.413007 42.70079,-20.10868 -20.10868,42.700798 z"
       transform="matrix(0.26681652,0.02334342,-0.02334342,0.26681652,1.5255342,-3.9724064)" />
  </g>
  <g
     inkscape:groupmode="layer"
     id="layer2"
     inkscape:label="Blue"
     style="display:none">
    <path
       id="rect36500-9"
       style="fill:#ff0000;fill-opacity:1;stroke:none;stroke-width:1.5875;stroke-linecap:round;stroke-linejoin:round;stroke-miterlimit:4;stroke-dasharray:none;stroke-opacity:1;filter:url(#filter44297)"
       d="m 21.33353,10.223919 -1.87132,3.241222 a 3.7426399,3.7426399 0 0 0 1.369901,5.112543 3.7426399,3.7426399 0 0 0 5.112542,-1.369902 3.7426399,3.7426399 0 0 0 -1.369901,-5.112542 z"
       inkscape:tile-cx="-25.903194"
       inkscape:tile-cy="7.5878943"
       inkscape:tile-w="12.170833"
       inkscape:tile-h="12.170833"
       inkscape:tile-x0="-31.98861"
       inkscape:tile-y0="1.5024778" />
    <path
       id="rect36500"
       style="fill:#66a7ff;fill-opacity:1;stroke:#64666e;stroke-width:1.5875;stroke-linecap:round;stroke-linejoin:round;stroke-miterlimit:4;stroke-dasharray:none;stroke-opacity:1"
       d="m 21.33353,10.223919 -1.87132,3.241222 a 3.7426399,3.7426399 0 0 0 1.369901,5.112543 3.7426399,3.7426399 0 0 0 5.112542,-1.369902 3.7426399,3.7426399 0 0 0 -1.369901,-5.112542 z"
       inkscape:tile-cx="-25.903194"
       inkscape:tile-cy="7.5878943"
       inkscape:tile-w="12.170833"
       inkscape:tile-h="12.170833"
       inkscape:tile-x0="-31.98861"
       inkscape:tile-y0="1.5024778" />
    <path
       id="rect36500-1-4"
       style="fill:#ff0000;fill-opacity:1;stroke:none;stroke-width:1.5875;stroke-linecap:round;stroke-linejoin:round;stroke-miterlimit:4;stroke-dasharray:none;stroke-opacity:1;filter:url(#filter44297)"
       d="m 14.294479,36.505467 3.742641,-1e-6 a 3.7426399,3.7426399 0 0 0 3.742641,-3.74264 3.7426399,3.7426399 0 0 0 -3.742641,-3.74264 3.7426399,3.7426399 0 0 0 -3.742641,3.742639 z"
       inkscape:tile-cx="-25.903194"
       inkscape:tile-cy="7.5878943"
       inkscape:tile-w="12.170833"
       inkscape:tile-h="12.170833"
       inkscape:tile-x0="-31.98861"
       inkscape:tile-y0="1.5024778" />
    <path
       id="rect36500-1"
       style="fill:#66a7ff;fill-opacity:1;stroke:#64666e;stroke-width:1.5875;stroke-linecap:round;stroke-linejoin:round;stroke-miterlimit:4;stroke-dasharray:none;stroke-opacity:1"
       d="m 14.294479,36.505467 3.742641,-1e-6 a 3.7426399,3.7426399 0 0 0 3.742641,-3.74264 3.7426399,3.7426399 0 0 0 -3.742641,-3.74264 3.7426399,3.7426399 0 0 0 -3.742641,3.742639 z"
       inkscape:tile-cx="-25.903194"
       inkscape:tile-cy="7.5878943"
       inkscape:tile-w="12.170833"
       inkscape:tile-h="12.170833"
       inkscape:tile-x0="-31.98861"
       inkscape:tile-y0="1.5024778" />
    <path
       id="rect36500-18-8"
       style="fill:#ff0000;fill-opacity:1;stroke:none;stroke-width:1.5875;stroke-linecap:round;stroke-linejoin:round;stroke-miterlimit:4;stroke-dasharray:none;stroke-opacity:1;filter:url(#filter44297)"
       d="m 40.576026,29.466415 -1.871321,-3.241222 a 3.7426399,3.7426399 0 0 0 -5.112542,-1.369902 3.7426399,3.7426399 0 0 0 -1.369901,5.112542 3.7426399,3.7426399 0 0 0 5.112542,1.369902 z"
       inkscape:tile-cx="-25.903194"
       inkscape:tile-cy="7.5878943"
       inkscape:tile-w="12.170833"
       inkscape:tile-h="12.170833"
       inkscape:tile-x0="-31.98861"
       inkscape:tile-y0="1.5024778" />
    <path
       id="rect36500-18"
       style="fill:#66a7ff;fill-opacity:1;stroke:#64666e;stroke-width:1.5875;stroke-linecap:round;stroke-linejoin:round;stroke-miterlimit:4;stroke-dasharray:none;stroke-opacity:1"
       d="m 40.576026,29.466415 -1.871321,-3.241222 a 3.7426399,3.7426399 0 0 0 -5.112542,-1.369902 3.7426399,3.7426399 0 0 0 -1.369901,5.112542 3.7426399,3.7426399 0 0 0 5.112542,1.369902 z"
       inkscape:tile-cx="-25.903194"
       inkscape:tile-cy="7.5878943"
       inkscape:tile-w="12.170833"
       inkscape:tile-h="12.170833"
       inkscape:tile-x0="-31.98861"
       inkscape:tile-y0="1.5024778" />
  </g>
  <g
     inkscape:groupmode="layer"
     id="layer3"
     inkscape:label="Cyan"
     style="display:none">
    <path
       id="rect44605-9-8"
       style="fill:#ff0000;fill-opacity:1;stroke:none;stroke-width:1.5875;stroke-linecap:round;stroke-linejoin:round;stroke-miterlimit:4;stroke-dasharray:none;stroke-opacity:1;filter:url(#filter44297)"
       d="m 20.708278,11.367345 0.489304,1.826107 -1.826107,0.489305 0.957058,3.57179 1.826107,-0.489303 0.489304,1.826105 3.571786,-0.957057 -0.489303,-1.826107 1.82566,-0.489185 -0.957059,-3.57179 -1.82566,0.489185 -0.489302,-1.826107 z" />
    <path
       id="rect44605-9-0-2"
       style="fill:#ff0000;fill-opacity:1;stroke:none;stroke-width:1.5875;stroke-linecap:round;stroke-linejoin:round;stroke-miterlimit:4;stroke-dasharray:none;stroke-opacity:1;filter:url(#filter44297)"
       d="m 41.023305,27.155664 -1.826106,-0.489305 0.489304,-1.826107 -3.571791,-0.957058 -0.489303,1.826107 -1.826105,-0.489304 -0.957057,3.571789 1.826104,0.489303 -0.489183,1.82566 3.57179,0.957058 0.489184,-1.825659 1.826105,0.489304 z" />
    <path
       id="rect44605-9"
       style="fill:#87fff5;fill-opacity:1;stroke:#64666e;stroke-width:1.5875;stroke-linecap:round;stroke-linejoin:round;stroke-miterlimit:4;stroke-dasharray:none;stroke-opacity:1"
       d="m 20.708278,11.367345 0.489304,1.826107 -1.826107,0.489304 0.957058,3.571791 1.826107,-0.489304 0.489304,1.826106 3.571786,-0.957058 -0.489303,-1.826106 1.82566,-0.489185 -0.957059,-3.571791 -1.82566,0.489185 -0.489302,-1.826107 z" />
    <path
       id="rect44605-9-9-6"
       style="fill:#ff0000;fill-opacity:1;stroke:none;stroke-width:1.5875;stroke-linecap:round;stroke-linejoin:round;stroke-miterlimit:4;stroke-dasharray:none;stroke-opacity:1;filter:url(#filter44297)"
       d="m 17.194845,36.855413 1.336802,-1.336802 1.336803,1.336803 2.614731,-2.614731 -1.336802,-1.336804 1.336802,-1.336802 -2.61473,-2.614731 -1.336802,1.336803 -1.336475,-1.336476 -2.614732,2.614732 1.336476,1.336476 -1.336803,1.336802 z" />
    <path
       id="rect44605-9-0"
       style="fill:#87fff5;fill-opacity:1;stroke:#64666e;stroke-width:1.5875;stroke-linecap:round;stroke-linejoin:round;stroke-miterlimit:4;stroke-dasharray:none;stroke-opacity:1"
       d="m 41.023305,27.155663 -1.826106,-0.489304 0.489304,-1.826107 -3.571791,-0.957058 -0.489303,1.826107 -1.826105,-0.489304 -0.957057,3.571788 1.826104,0.489304 -0.489183,1.82566 3.57179,0.957058 0.489184,-1.825659 1.826105,0.489304 z" />
    <path
       id="rect44605-9-9"
       style="fill:#87fff5;fill-opacity:1;stroke:#64666e;stroke-width:1.5875;stroke-linecap:round;stroke-linejoin:round;stroke-miterlimit:4;stroke-dasharray:none;stroke-opacity:1"
       d="m 17.194845,36.855413 1.336802,-1.336802 1.336803,1.336803 2.614731,-2.614732 -1.336802,-1.336804 1.336802,-1.336802 -2.61473,-2.614731 -1.336802,1.336803 -1.336475,-1.336476 -2.614732,2.614732 1.336476,1.336476 -1.336803,1.336802 z" />
  </g>
  <g
     inkscape:groupmode="layer"
     id="layer4"
     inkscape:label="Purple"
     style="display:none">
    <path
       id="path52144-1"
       style="fill:#ff0000;fill-opacity:1;stroke:none;stroke-width:1.5875;stroke-linecap:round;stroke-linejoin:round;stroke-miterlimit:4;stroke-dasharray:none;stroke-opacity:1;filter:url(#filter44297)"
       d="m 18.797819,10.716823 0.06679,3.484997 -1.800534,2.985403 3.485444,-0.06705 2.984698,1.800344 -0.06679,-3.484996 1.800344,-2.984698 -3.485254,0.06635 z m -1.732181,22.021503 1.800261,2.984819 -0.06678,3.48514 2.984818,-1.80026 3.485143,0.06678 -1.800519,-2.985265 0.06678,-3.485143 -2.984819,1.80026 z m 21.669453,-12.510865 -1.684995,3.051165 -3.051481,1.684799 3.051167,1.684994 1.685055,3.051929 1.685184,-3.051873 3.051479,-1.684798 -3.051612,-1.684733 z" />
    <path
       sodipodi:type="star"
       style="fill:#dd66ff;fill-opacity:1;stroke:#6d646e;stroke-width:6.54097;stroke-linecap:round;stroke-linejoin:round;stroke-miterlimit:4;stroke-dasharray:none;stroke-opacity:1"
       id="path52144"
       inkscape:flatsided="false"
       sodipodi:sides="4"
       sodipodi:cx="-42.543339"
       sodipodi:cy="21.076517"
       sodipodi:r1="19.515293"
       sodipodi:r2="9.8175392"
       sodipodi:arg1="0"
       sodipodi:arg2="0.78539816"
       inkscape:rounded="0"
       inkscape:randomized="0"
       transform="matrix(0.21018519,-0.12135047,0.12135047,0.21018519,27.550372,5.2261161)"
       d="m -23.028046,21.076517 -12.573244,6.942049 -6.942049,12.573244 -6.942048,-12.573244 -12.573245,-6.942049 12.573245,-6.942048 6.942048,-12.573245 6.942049,12.573245 z" />
    <path
       sodipodi:type="star"
       style="fill:#dd66ff;fill-opacity:1;stroke:#6d646e;stroke-width:6.54097;stroke-linecap:round;stroke-linejoin:round;stroke-miterlimit:4;stroke-dasharray:none;stroke-opacity:1"
       id="path52144-8-9"
       inkscape:flatsided="false"
       sodipodi:sides="4"
       sodipodi:cx="-42.543339"
       sodipodi:cy="21.076517"
       sodipodi:r1="19.515293"
       sodipodi:r2="9.8175392"
       sodipodi:arg1="0"
       sodipodi:arg2="0.78539816"
       inkscape:rounded="0"
       inkscape:randomized="0"
       transform="matrix(-0.21018518,-0.12135048,0.12135048,-0.21018518,9.6676625,34.373627)"
       d="m -23.028046,21.076517 -12.573244,6.942049 -6.942049,12.573244 -6.942048,-12.573244 -12.573245,-6.942049 12.573245,-6.942048 6.942048,-12.573245 6.942049,12.573245 z" />
    <path
       sodipodi:type="star"
       style="fill:#dd66ff;fill-opacity:1;stroke:#6d646e;stroke-width:6.54097;stroke-linecap:round;stroke-linejoin:round;stroke-miterlimit:4;stroke-dasharray:none;stroke-opacity:1"
       id="path52144-8"
       inkscape:flatsided="false"
       sodipodi:sides="4"
       sodipodi:cx="-42.543339"
       sodipodi:cy="21.076517"
       sodipodi:r1="19.515293"
       sodipodi:r2="9.8175392"
       sodipodi:arg1="0"
       sodipodi:arg2="0.78539816"
       inkscape:rounded="0"
       inkscape:randomized="0"
       transform="matrix(0,0.24270095,-0.24270095,0,43.850253,35.288919)"
       d="m -23.028046,21.076517 -12.573244,6.942049 -6.942049,12.573244 -6.942048,-12.573244 -12.573245,-6.942049 12.573245,-6.942048 6.942048,-12.573245 6.942049,12.573245 z" />
  </g>
  <g
     inkscape:groupmode="layer"
     id="layer5"
     inkscape:label="Red"
     style="display:none">
    <path
       id="rect56487-4"
       style="fill:#ff0000;fill-opacity:1;stroke:none;stroke-width:1.5875;stroke-linecap:round;stroke-linejoin:round;stroke-opacity:1;filter:url(#filter44297)"
       d="m 21.038697,10.448772 c -1.988384,0.585285 -1.425003,5.765852 4.365492,7.317411 5.651915,-5.651914 0.03002,-12.2445334 -1.625444,-6.066242 -1.130707,-1.130707 -2.077254,-1.446266 -2.740048,-1.251169 z" />
    <path
       id="rect56487"
       style="fill:#ff666a;fill-opacity:1;stroke:#635151;stroke-width:1.5875;stroke-linecap:round;stroke-linejoin:round;stroke-opacity:1"
       d="m 21.038697,10.448772 c -1.988384,0.585285 -1.425003,5.765852 4.365492,7.317411 5.651915,-5.651914 0.03002,-12.2445334 -1.625444,-6.066242 -1.130707,-1.130707 -2.077254,-1.446266 -2.740048,-1.251169 z" />
    <path
       id="rect56487-8-0-3"
       style="fill:#ff0000;fill-opacity:1;stroke:none;stroke-width:1.5875;stroke-linecap:round;stroke-linejoin:round;stroke-opacity:1;filter:url(#filter44297)"
       d="m 18.299033,36.228891 c 1.501063,1.429348 5.705876,-1.648838 4.154318,-7.439333 -7.72066,-2.068745 -10.619089,6.096266 -4.440799,4.440797 -0.413866,1.544574 -0.213876,2.522087 0.286481,2.998536 z" />
    <path
       id="rect56487-8-0"
       style="fill:#ff666a;fill-opacity:1;stroke:#635151;stroke-width:1.5875;stroke-linecap:round;stroke-linejoin:round;stroke-opacity:1"
       d="m 18.299033,36.228891 c 1.501063,1.429348 5.705876,-1.648838 4.154318,-7.439333 -7.72066,-2.068745 -10.619089,6.096266 -4.440799,4.440797 -0.413866,1.544574 -0.213876,2.522087 0.286481,2.998536 z" />
    <path
       id="rect56487-8-1"
       style="fill:#ff0000;fill-opacity:1;stroke:none;stroke-width:1.5875;stroke-linecap:round;stroke-linejoin:round;stroke-opacity:1;filter:url(#filter44297)"
       d="m 41.993307,25.713246 c 0.48732,-2.014634 -4.280873,-4.117014 -8.51981,0.121921 2.068745,7.72066 10.589066,6.148267 6.066244,1.625445 1.544571,-0.413866 2.291128,-1.075821 2.453566,-1.747366 z" />
    <path
       id="rect56487-8"
       style="fill:#ff666a;fill-opacity:1;stroke:#635151;stroke-width:1.5875;stroke-linecap:round;stroke-linejoin:round;stroke-opacity:1"
       d="m 41.993307,25.713246 c 0.48732,-2.014634 -4.280873,-4.117014 -8.51981,0.121921 2.068745,7.72066 10.589066,6.148267 6.066244,1.625445 1.544571,-0.413866 2.291128,-1.075821 2.453566,-1.747366 z" />
  </g>
  <g
     inkscape:groupmode="layer"
     id="layer6"
     inkscape:label="White"
     style="display:inline">
    <path
       id="path81648-6-7"
       style="display:inline;fill:#ff0000;stroke:none;stroke-width:1.5875;stroke-linecap:round;stroke-linejoin:round;filter:url(#filter44297)"
       d="m 34.196255,30.884536 a 4.4405422,4.4405422 0 0 1 -4.440542,-4.440542 4.4405422,4.4405422 0 0 1 4.440542,-4.440542 4.4405422,4.4405422 0 0 1 4.440543,4.440543 4.4405422,4.4405422 0 0 1 -4.440543,4.440541 z" />
    <path
       id="path81648-6"
       style="fill:#ffffff;stroke:#64666e;stroke-width:1.5875;stroke-linecap:round;stroke-linejoin:round"
       d="m 34.196255,30.884536 a 4.4405422,4.4405422 0 0 1 -4.440542,-4.440542 4.4405422,4.4405422 0 0 1 4.440542,-4.440542 4.4405422,4.4405422 0 0 1 4.440543,4.440543 4.4405422,4.4405422 0 0 1 -4.440543,4.440541 z" />
    <path
       id="path81648-6-5-7"
       style="display:inline;fill:#ff0000;stroke:none;stroke-width:1.5875;stroke-linecap:round;stroke-linejoin:round;filter:url(#filter44297)"
       d="m 15.801846,32.62347 a 4.4405422,4.4405422 0 0 1 6.065893,-1.625352 4.4405422,4.4405422 0 0 1 1.625351,6.065895 4.4405422,4.4405422 0 0 1 -6.065893,1.62535 4.4405422,4.4405422 0 0 1 -1.625351,-6.065893 z" />
    <path
       id="path81648-6-5"
       style="fill:#ffffff;stroke:#64666e;stroke-width:1.5875;stroke-linecap:round;stroke-linejoin:round"
       d="m 15.801846,32.62347 a 4.4405422,4.4405422 0 0 1 6.065893,-1.625352 4.4405422,4.4405422 0 0 1 1.625351,6.065895 4.4405422,4.4405422 0 0 1 -6.065893,1.62535 4.4405422,4.4405422 0 0 1 -1.625351,-6.065893 z" />
    <path
       id="path81648-4"
       style="display:inline;fill:#ff0000;stroke:none;stroke-width:1.5875;stroke-linecap:round;stroke-linejoin:round;filter:url(#filter44297)"
       d="m 23.491821,15.821778 a 4.4405422,4.4405422 0 0 1 -1.625351,6.065894 4.4405422,4.4405422 0 0 1 -6.065893,-1.625352 4.4405422,4.4405422 0 0 1 1.625351,-6.065893 4.4405422,4.4405422 0 0 1 6.065893,1.625351 z" />
    <path
       id="path81648"
       style="fill:#ffffff;stroke:#64666e;stroke-width:1.5875;stroke-linecap:round;stroke-linejoin:round"
       d="m 23.491821,15.821778 a 4.4405422,4.4405422 0 0 1 -1.625351,6.065894 4.4405422,4.4405422 0 0 1 -6.065893,-1.625352 4.4405422,4.4405422 0 0 1 1.625351,-6.065893 4.4405422,4.4405422 0 0 1 6.065893,1.625351 z" />
  </g>
  <g
     inkscape:groupmode="layer"
     id="layer7"
     inkscape:label="Yellow"
     style="display:none">
    <path
       id="path85336-1-4"
       style="fill:#ff0000;stroke:none;stroke-width:1.5875;stroke-linecap:round;stroke-linejoin:round;filter:url(#filter44297)"
       d="m 42.055599,25.040089 -1.392003,1.477068 -0.06015,2.02874 -2.02874,0.06015 -1.477067,1.392003 -1.477068,-1.392003 -2.028739,-0.06015 -0.06015,-2.02874 -1.392003,-1.477068 1.392003,-1.477067 0.06015,-2.02874 2.028739,-0.06015 1.477068,-1.392004 1.477068,1.392003 2.028739,0.06015 0.06015,2.02874 z" />
    <path
       id="path85336-1-3-8"
       style="fill:#ff0000;stroke:none;stroke-width:1.5875;stroke-linecap:round;stroke-linejoin:round;filter:url(#filter44297)"
       d="m 19.078879,38.305704 -0.583177,-1.944044 -1.726865,-1.066461 0.962279,-1.787015 -0.466976,-1.97518 1.944044,-0.583176 1.066461,-1.726865 1.787014,0.962278 1.97518,-0.466976 0.583177,1.944044 1.726865,1.066461 -0.962279,1.787015 0.466976,1.97518 -1.944044,0.583176 -1.066461,1.726865 -1.787015,-0.962279 z" />
    <path
       id="path85336-8"
       style="fill:#ff0000;stroke:none;stroke-width:1.5875;stroke-linecap:round;stroke-linejoin:round;filter:url(#filter44297)"
       d="m 19.077635,11.772316 1.97518,0.466976 1.787014,-0.962278 1.066461,1.726865 1.944044,0.583177 -0.466976,1.975179 0.962278,1.787015 -1.726865,1.066461 -0.583176,1.944044 -1.97518,-0.466976 -1.787015,0.962278 -1.066461,-1.726865 -1.944044,-0.583177 0.466976,-1.975179 -0.962278,-1.787015 1.726865,-1.066461 z" />
    <path
       id="path85336-1"
       style="fill:#fcf52a;stroke:#6e6d5f;stroke-width:1.5875;stroke-linecap:round;stroke-linejoin:round;stroke-opacity:1"
       d="m 42.055599,25.040089 -1.392003,1.477068 -0.06015,2.02874 -2.02874,0.06015 -1.477067,1.392003 -1.477068,-1.392003 -2.028739,-0.06015 -0.06015,-2.02874 -1.392003,-1.477068 1.392003,-1.477067 0.06015,-2.02874 2.028739,-0.06015 1.477068,-1.392004 1.477068,1.392003 2.028739,0.06015 0.06015,2.02874 z" />
    <path
       id="path85336-1-3"
       style="fill:#fcf52a;stroke:#6e6d5f;stroke-width:1.5875;stroke-linecap:round;stroke-linejoin:round;stroke-opacity:1"
       d="m 19.078879,38.305704 -0.583177,-1.944044 -1.726865,-1.066461 0.962279,-1.787015 -0.466976,-1.97518 1.944044,-0.583176 1.066461,-1.726865 1.787014,0.962278 1.97518,-0.466976 0.583177,1.944044 1.726865,1.066461 -0.962279,1.787015 0.466976,1.97518 -1.944044,0.583176 -1.066461,1.726865 -1.787015,-0.962279 z" />
    <path
       id="path85336"
       style="fill:#fcf52a;stroke:#6e6d5f;stroke-width:1.5875;stroke-linecap:round;stroke-linejoin:round;stroke-opacity:1"
       d="m 19.077635,11.772316 1.97518,0.466976 1.787014,-0.962278 1.066461,1.726865 1.944044,0.583177 -0.466976,1.975179 0.962278,1.787015 -1.726865,1.066461 -0.583176,1.944044 -1.97518,-0.466976 -1.787015,0.962278 -1.066461,-1.726865 -1.944044,-0.583177 0.466976,-1.975179 -0.962278,-1.787015 1.726865,-1.066461 z" />
  </g>
</svg>
